<mxfile host="app.diagrams.net" agent="Mozilla/5.0 (Windows NT 10.0; Win64; x64) AppleWebKit/537.36 (KHTML, like Gecko) Chrome/140.0.0.0 Safari/537.36" version="28.2.3" pages="3">
  <diagram name="Old ER" id="Q8vEIFZhFeog4edb7E5p">
    <mxGraphModel dx="2053" dy="773" grid="1" gridSize="10" guides="1" tooltips="1" connect="1" arrows="1" fold="1" page="1" pageScale="1" pageWidth="827" pageHeight="1169" math="0" shadow="0">
      <root>
        <mxCell id="0" />
        <mxCell id="1" parent="0" />
        <mxCell id="vMgHsEjD-DmCyHvrCuMM-5" value="" style="edgeStyle=orthogonalEdgeStyle;rounded=0;orthogonalLoop=1;jettySize=auto;html=1;endArrow=none;startFill=0;" parent="1" source="vMgHsEjD-DmCyHvrCuMM-1" target="vMgHsEjD-DmCyHvrCuMM-4" edge="1">
          <mxGeometry relative="1" as="geometry" />
        </mxCell>
        <mxCell id="vMgHsEjD-DmCyHvrCuMM-1" value="USER" style="rounded=0;whiteSpace=wrap;html=1;" parent="1" vertex="1">
          <mxGeometry x="345" y="230" width="70" height="30" as="geometry" />
        </mxCell>
        <mxCell id="vMgHsEjD-DmCyHvrCuMM-7" value="" style="rounded=0;orthogonalLoop=1;jettySize=auto;html=1;endArrow=none;startFill=0;" parent="1" source="vMgHsEjD-DmCyHvrCuMM-4" target="vMgHsEjD-DmCyHvrCuMM-6" edge="1">
          <mxGeometry relative="1" as="geometry" />
        </mxCell>
        <mxCell id="vMgHsEjD-DmCyHvrCuMM-15" value="" style="rounded=0;orthogonalLoop=1;jettySize=auto;html=1;endArrow=none;startFill=0;" parent="1" source="vMgHsEjD-DmCyHvrCuMM-4" target="vMgHsEjD-DmCyHvrCuMM-14" edge="1">
          <mxGeometry relative="1" as="geometry" />
        </mxCell>
        <mxCell id="vMgHsEjD-DmCyHvrCuMM-17" value="" style="rounded=0;orthogonalLoop=1;jettySize=auto;html=1;endArrow=none;startFill=0;" parent="1" source="vMgHsEjD-DmCyHvrCuMM-4" target="vMgHsEjD-DmCyHvrCuMM-16" edge="1">
          <mxGeometry relative="1" as="geometry" />
        </mxCell>
        <mxCell id="vMgHsEjD-DmCyHvrCuMM-20" style="rounded=0;orthogonalLoop=1;jettySize=auto;html=1;entryX=0.5;entryY=0;entryDx=0;entryDy=0;endArrow=none;startFill=0;" parent="1" source="vMgHsEjD-DmCyHvrCuMM-4" target="vMgHsEjD-DmCyHvrCuMM-19" edge="1">
          <mxGeometry relative="1" as="geometry" />
        </mxCell>
        <mxCell id="vMgHsEjD-DmCyHvrCuMM-23" value="" style="rounded=0;orthogonalLoop=1;jettySize=auto;html=1;endArrow=none;startFill=0;" parent="1" source="vMgHsEjD-DmCyHvrCuMM-4" target="vMgHsEjD-DmCyHvrCuMM-22" edge="1">
          <mxGeometry relative="1" as="geometry">
            <Array as="points">
              <mxPoint x="400" y="440" />
            </Array>
          </mxGeometry>
        </mxCell>
        <mxCell id="vMgHsEjD-DmCyHvrCuMM-4" value="d" style="ellipse;whiteSpace=wrap;html=1;rounded=0;" parent="1" vertex="1">
          <mxGeometry x="370" y="430" width="20" height="20" as="geometry" />
        </mxCell>
        <mxCell id="vMgHsEjD-DmCyHvrCuMM-179" style="edgeStyle=none;rounded=0;orthogonalLoop=1;jettySize=auto;html=1;entryX=0.5;entryY=0;entryDx=0;entryDy=0;endArrow=none;startFill=0;" parent="1" source="vMgHsEjD-DmCyHvrCuMM-6" target="vMgHsEjD-DmCyHvrCuMM-178" edge="1">
          <mxGeometry relative="1" as="geometry" />
        </mxCell>
        <mxCell id="vMgHsEjD-DmCyHvrCuMM-181" value="N" style="edgeLabel;html=1;align=center;verticalAlign=middle;resizable=0;points=[];" parent="vMgHsEjD-DmCyHvrCuMM-179" vertex="1" connectable="0">
          <mxGeometry x="-0.7567" y="1" relative="1" as="geometry">
            <mxPoint x="-12" y="-7" as="offset" />
          </mxGeometry>
        </mxCell>
        <mxCell id="vMgHsEjD-DmCyHvrCuMM-235" value="" style="edgeStyle=none;rounded=0;orthogonalLoop=1;jettySize=auto;html=1;elbow=vertical;" parent="1" source="vMgHsEjD-DmCyHvrCuMM-6" target="vMgHsEjD-DmCyHvrCuMM-234" edge="1">
          <mxGeometry relative="1" as="geometry" />
        </mxCell>
        <mxCell id="vMgHsEjD-DmCyHvrCuMM-246" value="1" style="edgeLabel;html=1;align=center;verticalAlign=middle;resizable=0;points=[];" parent="vMgHsEjD-DmCyHvrCuMM-235" vertex="1" connectable="0">
          <mxGeometry x="-0.8733" y="-4" relative="1" as="geometry">
            <mxPoint as="offset" />
          </mxGeometry>
        </mxCell>
        <mxCell id="vMgHsEjD-DmCyHvrCuMM-242" value="" style="edgeStyle=none;rounded=0;orthogonalLoop=1;jettySize=auto;html=1;elbow=vertical;endArrow=none;startFill=0;" parent="1" source="vMgHsEjD-DmCyHvrCuMM-6" target="vMgHsEjD-DmCyHvrCuMM-241" edge="1">
          <mxGeometry relative="1" as="geometry" />
        </mxCell>
        <mxCell id="vMgHsEjD-DmCyHvrCuMM-244" value="1" style="edgeLabel;html=1;align=center;verticalAlign=middle;resizable=0;points=[];" parent="vMgHsEjD-DmCyHvrCuMM-242" vertex="1" connectable="0">
          <mxGeometry x="-0.8436" y="-3" relative="1" as="geometry">
            <mxPoint x="-4" y="-34" as="offset" />
          </mxGeometry>
        </mxCell>
        <mxCell id="vMgHsEjD-DmCyHvrCuMM-6" value="STUDENT" style="whiteSpace=wrap;html=1;rounded=0;" parent="1" vertex="1">
          <mxGeometry x="-300" y="499.98" width="70" height="30" as="geometry" />
        </mxCell>
        <mxCell id="vMgHsEjD-DmCyHvrCuMM-14" value="ADMIN" style="whiteSpace=wrap;html=1;rounded=0;" parent="1" vertex="1">
          <mxGeometry x="110" y="519.98" width="70" height="30" as="geometry" />
        </mxCell>
        <mxCell id="vMgHsEjD-DmCyHvrCuMM-16" value="DEAN" style="whiteSpace=wrap;html=1;rounded=0;" parent="1" vertex="1">
          <mxGeometry x="330" y="522.5" width="70" height="30" as="geometry" />
        </mxCell>
        <mxCell id="vMgHsEjD-DmCyHvrCuMM-230" style="edgeStyle=none;rounded=0;orthogonalLoop=1;jettySize=auto;html=1;entryX=1;entryY=0.5;entryDx=0;entryDy=0;elbow=vertical;endArrow=none;startFill=0;" parent="1" source="vMgHsEjD-DmCyHvrCuMM-19" target="vMgHsEjD-DmCyHvrCuMM-228" edge="1">
          <mxGeometry relative="1" as="geometry" />
        </mxCell>
        <mxCell id="vMgHsEjD-DmCyHvrCuMM-249" value="1" style="edgeLabel;html=1;align=center;verticalAlign=middle;resizable=0;points=[];" parent="vMgHsEjD-DmCyHvrCuMM-230" vertex="1" connectable="0">
          <mxGeometry x="-0.8159" y="5" relative="1" as="geometry">
            <mxPoint x="-7" y="3" as="offset" />
          </mxGeometry>
        </mxCell>
        <mxCell id="vMgHsEjD-DmCyHvrCuMM-19" value="LECTURER" style="whiteSpace=wrap;html=1;rounded=0;" parent="1" vertex="1">
          <mxGeometry x="480" y="522.5" width="85" height="30" as="geometry" />
        </mxCell>
        <mxCell id="vMgHsEjD-DmCyHvrCuMM-22" value="TECH_OFFICER" style="whiteSpace=wrap;html=1;rounded=0;" parent="1" vertex="1">
          <mxGeometry x="630" y="522.5" width="110" height="27.5" as="geometry" />
        </mxCell>
        <mxCell id="vMgHsEjD-DmCyHvrCuMM-26" value="&lt;u&gt;User_id&lt;/u&gt;" style="ellipse;whiteSpace=wrap;html=1;align=center;" parent="1" vertex="1">
          <mxGeometry x="260" y="160" width="70" height="30" as="geometry" />
        </mxCell>
        <mxCell id="vMgHsEjD-DmCyHvrCuMM-27" value="Name" style="ellipse;whiteSpace=wrap;html=1;align=center;" parent="1" vertex="1">
          <mxGeometry x="344" y="150" width="70" height="30" as="geometry" />
        </mxCell>
        <mxCell id="vMgHsEjD-DmCyHvrCuMM-31" style="rounded=0;orthogonalLoop=1;jettySize=auto;html=1;entryX=1;entryY=0.75;entryDx=0;entryDy=0;endArrow=none;startFill=0;" parent="1" source="vMgHsEjD-DmCyHvrCuMM-28" target="vMgHsEjD-DmCyHvrCuMM-1" edge="1">
          <mxGeometry relative="1" as="geometry" />
        </mxCell>
        <mxCell id="vMgHsEjD-DmCyHvrCuMM-28" value="Nic" style="ellipse;whiteSpace=wrap;html=1;align=center;" parent="1" vertex="1">
          <mxGeometry x="480" y="180" width="70" height="30" as="geometry" />
        </mxCell>
        <mxCell id="vMgHsEjD-DmCyHvrCuMM-29" style="rounded=0;orthogonalLoop=1;jettySize=auto;html=1;entryX=-0.001;entryY=0.315;entryDx=0;entryDy=0;entryPerimeter=0;endArrow=none;startFill=0;" parent="1" source="vMgHsEjD-DmCyHvrCuMM-26" target="vMgHsEjD-DmCyHvrCuMM-1" edge="1">
          <mxGeometry relative="1" as="geometry" />
        </mxCell>
        <mxCell id="vMgHsEjD-DmCyHvrCuMM-30" style="rounded=0;orthogonalLoop=1;jettySize=auto;html=1;exitX=0.5;exitY=1;exitDx=0;exitDy=0;endArrow=none;startFill=0;entryX=0.531;entryY=-0.005;entryDx=0;entryDy=0;entryPerimeter=0;" parent="1" source="vMgHsEjD-DmCyHvrCuMM-27" target="vMgHsEjD-DmCyHvrCuMM-1" edge="1">
          <mxGeometry relative="1" as="geometry">
            <mxPoint x="382" y="228" as="targetPoint" />
          </mxGeometry>
        </mxCell>
        <mxCell id="vMgHsEjD-DmCyHvrCuMM-37" style="rounded=0;orthogonalLoop=1;jettySize=auto;html=1;entryX=1;entryY=0.5;entryDx=0;entryDy=0;endArrow=none;startFill=0;" parent="1" source="vMgHsEjD-DmCyHvrCuMM-33" target="vMgHsEjD-DmCyHvrCuMM-1" edge="1">
          <mxGeometry relative="1" as="geometry" />
        </mxCell>
        <mxCell id="vMgHsEjD-DmCyHvrCuMM-33" value="Email" style="ellipse;whiteSpace=wrap;html=1;align=center;" parent="1" vertex="1">
          <mxGeometry x="430" y="150" width="70" height="30" as="geometry" />
        </mxCell>
        <mxCell id="vMgHsEjD-DmCyHvrCuMM-36" style="rounded=0;orthogonalLoop=1;jettySize=auto;html=1;entryX=0;entryY=0.5;entryDx=0;entryDy=0;endArrow=none;startFill=0;" parent="1" source="vMgHsEjD-DmCyHvrCuMM-34" target="vMgHsEjD-DmCyHvrCuMM-1" edge="1">
          <mxGeometry relative="1" as="geometry" />
        </mxCell>
        <mxCell id="vMgHsEjD-DmCyHvrCuMM-34" value="User_pwd" style="ellipse;whiteSpace=wrap;html=1;align=center;" parent="1" vertex="1">
          <mxGeometry x="220" y="200" width="70" height="30" as="geometry" />
        </mxCell>
        <mxCell id="vMgHsEjD-DmCyHvrCuMM-35" value="Phone" style="ellipse;shape=doubleEllipse;margin=3;whiteSpace=wrap;html=1;align=center;" parent="1" vertex="1">
          <mxGeometry x="500" y="220" width="60" height="30" as="geometry" />
        </mxCell>
        <mxCell id="vMgHsEjD-DmCyHvrCuMM-38" style="rounded=0;orthogonalLoop=1;jettySize=auto;html=1;entryX=1;entryY=1;entryDx=0;entryDy=0;endArrow=none;startFill=0;" parent="1" source="vMgHsEjD-DmCyHvrCuMM-35" target="vMgHsEjD-DmCyHvrCuMM-1" edge="1">
          <mxGeometry relative="1" as="geometry" />
        </mxCell>
        <mxCell id="vMgHsEjD-DmCyHvrCuMM-53" style="rounded=0;orthogonalLoop=1;jettySize=auto;html=1;entryX=1;entryY=0.5;entryDx=0;entryDy=0;endArrow=none;startFill=0;" parent="1" source="vMgHsEjD-DmCyHvrCuMM-43" target="vMgHsEjD-DmCyHvrCuMM-46" edge="1">
          <mxGeometry relative="1" as="geometry" />
        </mxCell>
        <mxCell id="vMgHsEjD-DmCyHvrCuMM-43" value="Address" style="ellipse;whiteSpace=wrap;html=1;align=center;" parent="1" vertex="1">
          <mxGeometry x="210" y="260" width="70" height="30" as="geometry" />
        </mxCell>
        <mxCell id="vMgHsEjD-DmCyHvrCuMM-46" value="No" style="ellipse;whiteSpace=wrap;html=1;align=center;" parent="1" vertex="1">
          <mxGeometry x="150" y="235" width="40" height="20" as="geometry" />
        </mxCell>
        <mxCell id="vMgHsEjD-DmCyHvrCuMM-48" value="City" style="ellipse;whiteSpace=wrap;html=1;align=center;" parent="1" vertex="1">
          <mxGeometry x="140" y="275" width="40" height="20" as="geometry" />
        </mxCell>
        <mxCell id="vMgHsEjD-DmCyHvrCuMM-49" value="Street" style="ellipse;whiteSpace=wrap;html=1;align=center;" parent="1" vertex="1">
          <mxGeometry x="160" y="310" width="50" height="20" as="geometry" />
        </mxCell>
        <mxCell id="vMgHsEjD-DmCyHvrCuMM-50" style="rounded=0;orthogonalLoop=1;jettySize=auto;html=1;entryX=0.914;entryY=0.227;entryDx=0;entryDy=0;entryPerimeter=0;endArrow=none;startFill=0;" parent="1" source="vMgHsEjD-DmCyHvrCuMM-1" target="vMgHsEjD-DmCyHvrCuMM-43" edge="1">
          <mxGeometry relative="1" as="geometry" />
        </mxCell>
        <mxCell id="vMgHsEjD-DmCyHvrCuMM-51" style="rounded=0;orthogonalLoop=1;jettySize=auto;html=1;entryX=0.931;entryY=0.245;entryDx=0;entryDy=0;entryPerimeter=0;endArrow=none;startFill=0;" parent="1" source="vMgHsEjD-DmCyHvrCuMM-43" target="vMgHsEjD-DmCyHvrCuMM-48" edge="1">
          <mxGeometry relative="1" as="geometry" />
        </mxCell>
        <mxCell id="vMgHsEjD-DmCyHvrCuMM-52" style="rounded=0;orthogonalLoop=1;jettySize=auto;html=1;entryX=0.947;entryY=0.33;entryDx=0;entryDy=0;entryPerimeter=0;endArrow=none;startFill=0;" parent="1" source="vMgHsEjD-DmCyHvrCuMM-43" target="vMgHsEjD-DmCyHvrCuMM-49" edge="1">
          <mxGeometry relative="1" as="geometry" />
        </mxCell>
        <mxCell id="vMgHsEjD-DmCyHvrCuMM-224" style="edgeStyle=none;rounded=0;orthogonalLoop=1;jettySize=auto;html=1;entryX=0;entryY=0.5;entryDx=0;entryDy=0;elbow=vertical;exitX=1;exitY=0.5;exitDx=0;exitDy=0;endArrow=none;endFill=1;startFill=0;" parent="1" source="vMgHsEjD-DmCyHvrCuMM-54" target="vMgHsEjD-DmCyHvrCuMM-215" edge="1">
          <mxGeometry relative="1" as="geometry" />
        </mxCell>
        <mxCell id="vMgHsEjD-DmCyHvrCuMM-226" value="1" style="edgeLabel;html=1;align=center;verticalAlign=middle;resizable=0;points=[];" parent="vMgHsEjD-DmCyHvrCuMM-224" vertex="1" connectable="0">
          <mxGeometry x="-0.787" y="-3" relative="1" as="geometry">
            <mxPoint as="offset" />
          </mxGeometry>
        </mxCell>
        <mxCell id="vMgHsEjD-DmCyHvrCuMM-231" style="edgeStyle=none;rounded=0;orthogonalLoop=1;jettySize=auto;html=1;entryX=0;entryY=0.5;entryDx=0;entryDy=0;elbow=vertical;endArrow=none;startFill=0;" parent="1" source="vMgHsEjD-DmCyHvrCuMM-54" target="vMgHsEjD-DmCyHvrCuMM-228" edge="1">
          <mxGeometry relative="1" as="geometry" />
        </mxCell>
        <mxCell id="vMgHsEjD-DmCyHvrCuMM-248" value="N" style="edgeLabel;html=1;align=center;verticalAlign=middle;resizable=0;points=[];" parent="vMgHsEjD-DmCyHvrCuMM-231" vertex="1" connectable="0">
          <mxGeometry x="-0.6753" relative="1" as="geometry">
            <mxPoint as="offset" />
          </mxGeometry>
        </mxCell>
        <mxCell id="vMgHsEjD-DmCyHvrCuMM-239" value="" style="edgeStyle=none;rounded=0;orthogonalLoop=1;jettySize=auto;html=1;elbow=vertical;endArrow=none;startFill=0;" parent="1" source="vMgHsEjD-DmCyHvrCuMM-54" target="vMgHsEjD-DmCyHvrCuMM-238" edge="1">
          <mxGeometry relative="1" as="geometry" />
        </mxCell>
        <mxCell id="vMgHsEjD-DmCyHvrCuMM-250" value="1" style="edgeLabel;html=1;align=center;verticalAlign=middle;resizable=0;points=[];" parent="vMgHsEjD-DmCyHvrCuMM-239" vertex="1" connectable="0">
          <mxGeometry x="-0.7481" y="-2" relative="1" as="geometry">
            <mxPoint as="offset" />
          </mxGeometry>
        </mxCell>
        <mxCell id="vMgHsEjD-DmCyHvrCuMM-54" value="COURSE" style="rounded=0;whiteSpace=wrap;html=1;" parent="1" vertex="1">
          <mxGeometry x="49.999999999999986" y="908.98" width="100" height="40" as="geometry" />
        </mxCell>
        <mxCell id="vMgHsEjD-DmCyHvrCuMM-59" style="edgeStyle=none;rounded=0;orthogonalLoop=1;jettySize=auto;html=1;endArrow=none;startFill=0;" parent="1" source="vMgHsEjD-DmCyHvrCuMM-55" target="vMgHsEjD-DmCyHvrCuMM-54" edge="1">
          <mxGeometry relative="1" as="geometry" />
        </mxCell>
        <mxCell id="vMgHsEjD-DmCyHvrCuMM-55" value="&lt;u&gt;C_code&lt;/u&gt;" style="ellipse;whiteSpace=wrap;html=1;align=center;" parent="1" vertex="1">
          <mxGeometry x="-65" y="888.98" width="70" height="30" as="geometry" />
        </mxCell>
        <mxCell id="vMgHsEjD-DmCyHvrCuMM-60" style="edgeStyle=none;rounded=0;orthogonalLoop=1;jettySize=auto;html=1;entryX=0;entryY=0.75;entryDx=0;entryDy=0;endArrow=none;startFill=0;" parent="1" source="vMgHsEjD-DmCyHvrCuMM-56" target="vMgHsEjD-DmCyHvrCuMM-54" edge="1">
          <mxGeometry relative="1" as="geometry" />
        </mxCell>
        <mxCell id="vMgHsEjD-DmCyHvrCuMM-56" value="C_name" style="ellipse;whiteSpace=wrap;html=1;align=center;" parent="1" vertex="1">
          <mxGeometry x="-65" y="938.98" width="70" height="30" as="geometry" />
        </mxCell>
        <mxCell id="vMgHsEjD-DmCyHvrCuMM-61" style="edgeStyle=none;rounded=0;orthogonalLoop=1;jettySize=auto;html=1;entryX=0.25;entryY=1;entryDx=0;entryDy=0;endArrow=none;startFill=0;" parent="1" source="vMgHsEjD-DmCyHvrCuMM-57" target="vMgHsEjD-DmCyHvrCuMM-54" edge="1">
          <mxGeometry relative="1" as="geometry" />
        </mxCell>
        <mxCell id="vMgHsEjD-DmCyHvrCuMM-57" value="Credit" style="ellipse;whiteSpace=wrap;html=1;align=center;" parent="1" vertex="1">
          <mxGeometry x="-20" y="988.98" width="70" height="30" as="geometry" />
        </mxCell>
        <mxCell id="vMgHsEjD-DmCyHvrCuMM-58" value="Type (P/T)" style="ellipse;whiteSpace=wrap;html=1;align=center;" parent="1" vertex="1">
          <mxGeometry x="79.99999999999999" y="998.98" width="70" height="30" as="geometry" />
        </mxCell>
        <mxCell id="vMgHsEjD-DmCyHvrCuMM-62" style="edgeStyle=none;rounded=0;orthogonalLoop=1;jettySize=auto;html=1;entryX=0.633;entryY=1.079;entryDx=0;entryDy=0;entryPerimeter=0;endArrow=none;startFill=0;" parent="1" source="vMgHsEjD-DmCyHvrCuMM-58" target="vMgHsEjD-DmCyHvrCuMM-54" edge="1">
          <mxGeometry relative="1" as="geometry" />
        </mxCell>
        <mxCell id="vMgHsEjD-DmCyHvrCuMM-253" value="" style="edgeStyle=none;rounded=0;orthogonalLoop=1;jettySize=auto;html=1;elbow=vertical;endArrow=none;startFill=0;" parent="1" source="vMgHsEjD-DmCyHvrCuMM-73" target="vMgHsEjD-DmCyHvrCuMM-252" edge="1">
          <mxGeometry relative="1" as="geometry" />
        </mxCell>
        <mxCell id="vMgHsEjD-DmCyHvrCuMM-268" value="1" style="edgeLabel;html=1;align=center;verticalAlign=middle;resizable=0;points=[];" parent="vMgHsEjD-DmCyHvrCuMM-253" vertex="1" connectable="0">
          <mxGeometry x="-0.881" y="1" relative="1" as="geometry">
            <mxPoint as="offset" />
          </mxGeometry>
        </mxCell>
        <mxCell id="vMgHsEjD-DmCyHvrCuMM-73" value="MEDICAL" style="rounded=0;whiteSpace=wrap;html=1;" parent="1" vertex="1">
          <mxGeometry x="-505" y="1310" width="100" height="40" as="geometry" />
        </mxCell>
        <mxCell id="vMgHsEjD-DmCyHvrCuMM-74" style="edgeStyle=none;rounded=0;orthogonalLoop=1;jettySize=auto;html=1;endArrow=none;startFill=0;" parent="1" source="vMgHsEjD-DmCyHvrCuMM-75" target="vMgHsEjD-DmCyHvrCuMM-73" edge="1">
          <mxGeometry relative="1" as="geometry" />
        </mxCell>
        <mxCell id="vMgHsEjD-DmCyHvrCuMM-75" value="&lt;u&gt;Medical_id&lt;/u&gt;" style="ellipse;whiteSpace=wrap;html=1;align=center;" parent="1" vertex="1">
          <mxGeometry x="-610" y="1270" width="70" height="30" as="geometry" />
        </mxCell>
        <mxCell id="vMgHsEjD-DmCyHvrCuMM-76" style="edgeStyle=none;rounded=0;orthogonalLoop=1;jettySize=auto;html=1;entryX=0;entryY=0.5;entryDx=0;entryDy=0;endArrow=none;startFill=0;" parent="1" source="vMgHsEjD-DmCyHvrCuMM-77" target="vMgHsEjD-DmCyHvrCuMM-73" edge="1">
          <mxGeometry relative="1" as="geometry" />
        </mxCell>
        <mxCell id="vMgHsEjD-DmCyHvrCuMM-77" value="Date_submitted" style="ellipse;whiteSpace=wrap;html=1;align=center;" parent="1" vertex="1">
          <mxGeometry x="-640" y="1330" width="100" height="30" as="geometry" />
        </mxCell>
        <mxCell id="vMgHsEjD-DmCyHvrCuMM-78" style="edgeStyle=none;rounded=0;orthogonalLoop=1;jettySize=auto;html=1;entryX=0.853;entryY=1.013;entryDx=0;entryDy=0;entryPerimeter=0;endArrow=none;startFill=0;" parent="1" source="vMgHsEjD-DmCyHvrCuMM-79" target="vMgHsEjD-DmCyHvrCuMM-73" edge="1">
          <mxGeometry relative="1" as="geometry" />
        </mxCell>
        <mxCell id="vMgHsEjD-DmCyHvrCuMM-79" value="Status&lt;div&gt;&lt;font style=&quot;font-size: 7px;&quot;&gt;(Approved or not)&lt;/font&gt;&lt;/div&gt;" style="ellipse;whiteSpace=wrap;html=1;align=center;" parent="1" vertex="1">
          <mxGeometry x="-430" y="1385" width="90" height="40" as="geometry" />
        </mxCell>
        <mxCell id="vMgHsEjD-DmCyHvrCuMM-270" value="" style="edgeStyle=none;rounded=0;orthogonalLoop=1;jettySize=auto;html=1;elbow=vertical;endArrow=none;startFill=0;entryX=0.5;entryY=1;entryDx=0;entryDy=0;" parent="1" source="vMgHsEjD-DmCyHvrCuMM-82" target="vMgHsEjD-DmCyHvrCuMM-269" edge="1">
          <mxGeometry relative="1" as="geometry" />
        </mxCell>
        <mxCell id="vMgHsEjD-DmCyHvrCuMM-272" value="1" style="edgeLabel;html=1;align=center;verticalAlign=middle;resizable=0;points=[];" parent="vMgHsEjD-DmCyHvrCuMM-270" vertex="1" connectable="0">
          <mxGeometry x="-0.7266" y="2" relative="1" as="geometry">
            <mxPoint as="offset" />
          </mxGeometry>
        </mxCell>
        <mxCell id="vMgHsEjD-DmCyHvrCuMM-82" value="EXAM" style="rounded=0;whiteSpace=wrap;html=1;" parent="1" vertex="1">
          <mxGeometry x="855" y="800" width="100" height="40" as="geometry" />
        </mxCell>
        <mxCell id="vMgHsEjD-DmCyHvrCuMM-83" style="edgeStyle=none;rounded=0;orthogonalLoop=1;jettySize=auto;html=1;endArrow=none;startFill=0;" parent="1" source="vMgHsEjD-DmCyHvrCuMM-84" target="vMgHsEjD-DmCyHvrCuMM-82" edge="1">
          <mxGeometry relative="1" as="geometry" />
        </mxCell>
        <mxCell id="vMgHsEjD-DmCyHvrCuMM-84" value="&lt;u&gt;Exam_id&lt;/u&gt;" style="ellipse;whiteSpace=wrap;html=1;align=center;" parent="1" vertex="1">
          <mxGeometry x="740" y="805" width="70" height="30" as="geometry" />
        </mxCell>
        <mxCell id="vMgHsEjD-DmCyHvrCuMM-85" style="edgeStyle=none;rounded=0;orthogonalLoop=1;jettySize=auto;html=1;entryX=0.25;entryY=1;entryDx=0;entryDy=0;endArrow=none;startFill=0;" parent="1" source="vMgHsEjD-DmCyHvrCuMM-86" target="vMgHsEjD-DmCyHvrCuMM-82" edge="1">
          <mxGeometry relative="1" as="geometry" />
        </mxCell>
        <mxCell id="vMgHsEjD-DmCyHvrCuMM-86" value="C_code" style="ellipse;whiteSpace=wrap;html=1;align=center;" parent="1" vertex="1">
          <mxGeometry x="760" y="860" width="60" height="30" as="geometry" />
        </mxCell>
        <mxCell id="vMgHsEjD-DmCyHvrCuMM-87" style="edgeStyle=none;rounded=0;orthogonalLoop=1;jettySize=auto;html=1;entryX=0.636;entryY=0.983;entryDx=0;entryDy=0;entryPerimeter=0;endArrow=none;startFill=0;" parent="1" target="vMgHsEjD-DmCyHvrCuMM-82" edge="1">
          <mxGeometry relative="1" as="geometry">
            <mxPoint x="905" y="870" as="sourcePoint" />
          </mxGeometry>
        </mxCell>
        <mxCell id="vMgHsEjD-DmCyHvrCuMM-88" value="Exam_date" style="ellipse;whiteSpace=wrap;html=1;align=center;" parent="1" vertex="1">
          <mxGeometry x="855" y="870" width="85" height="35" as="geometry" />
        </mxCell>
        <mxCell id="vMgHsEjD-DmCyHvrCuMM-92" value="" style="edgeStyle=none;rounded=0;orthogonalLoop=1;jettySize=auto;html=1;endArrow=none;startFill=0;" parent="1" source="vMgHsEjD-DmCyHvrCuMM-89" target="vMgHsEjD-DmCyHvrCuMM-91" edge="1">
          <mxGeometry relative="1" as="geometry" />
        </mxCell>
        <mxCell id="vMgHsEjD-DmCyHvrCuMM-89" value="Exam_type" style="ellipse;whiteSpace=wrap;html=1;align=center;" parent="1" vertex="1">
          <mxGeometry x="955" y="875" width="85" height="35" as="geometry" />
        </mxCell>
        <mxCell id="vMgHsEjD-DmCyHvrCuMM-90" style="edgeStyle=none;rounded=0;orthogonalLoop=1;jettySize=auto;html=1;entryX=0.999;entryY=0.931;entryDx=0;entryDy=0;entryPerimeter=0;endArrow=none;startFill=0;" parent="1" target="vMgHsEjD-DmCyHvrCuMM-82" edge="1">
          <mxGeometry relative="1" as="geometry">
            <mxPoint x="985" y="876" as="sourcePoint" />
          </mxGeometry>
        </mxCell>
        <mxCell id="vMgHsEjD-DmCyHvrCuMM-91" value="&lt;font style=&quot;font-size: 9px;&quot;&gt;Final_P&lt;/font&gt;" style="ellipse;whiteSpace=wrap;html=1;align=center;fillColor=#e51400;fontColor=#ffffff;strokeColor=#B20000;" parent="1" vertex="1">
          <mxGeometry x="870" y="940" width="40" height="20" as="geometry" />
        </mxCell>
        <mxCell id="vMgHsEjD-DmCyHvrCuMM-93" value="&lt;font style=&quot;font-size: 9px;&quot;&gt;Final_T&lt;/font&gt;" style="ellipse;whiteSpace=wrap;html=1;align=center;fillColor=#e51400;fontColor=#ffffff;strokeColor=#B20000;" parent="1" vertex="1">
          <mxGeometry x="915" y="960" width="40" height="20" as="geometry" />
        </mxCell>
        <mxCell id="vMgHsEjD-DmCyHvrCuMM-94" value="&lt;font style=&quot;font-size: 9px;&quot;&gt;Quiz&lt;/font&gt;" style="ellipse;whiteSpace=wrap;html=1;align=center;fillColor=#e51400;fontColor=#ffffff;strokeColor=#B20000;" parent="1" vertex="1">
          <mxGeometry x="970" y="970" width="40" height="20" as="geometry" />
        </mxCell>
        <mxCell id="vMgHsEjD-DmCyHvrCuMM-95" value="&lt;font style=&quot;font-size: 9px;&quot;&gt;CA&lt;/font&gt;" style="ellipse;whiteSpace=wrap;html=1;align=center;fillColor=#e51400;fontColor=#ffffff;strokeColor=#B20000;" parent="1" vertex="1">
          <mxGeometry x="1030" y="970" width="20" height="20" as="geometry" />
        </mxCell>
        <mxCell id="vMgHsEjD-DmCyHvrCuMM-101" style="edgeStyle=none;rounded=0;orthogonalLoop=1;jettySize=auto;html=1;entryX=1;entryY=1;entryDx=0;entryDy=0;endArrow=none;startFill=0;" parent="1" source="vMgHsEjD-DmCyHvrCuMM-96" target="vMgHsEjD-DmCyHvrCuMM-89" edge="1">
          <mxGeometry relative="1" as="geometry" />
        </mxCell>
        <mxCell id="vMgHsEjD-DmCyHvrCuMM-96" value="&lt;font size=&quot;1&quot;&gt;Mid_p&lt;/font&gt;" style="ellipse;whiteSpace=wrap;html=1;align=center;fillColor=#e51400;fontColor=#ffffff;strokeColor=#B20000;" parent="1" vertex="1">
          <mxGeometry x="1070" y="960" width="40" height="20" as="geometry" />
        </mxCell>
        <mxCell id="vMgHsEjD-DmCyHvrCuMM-97" value="&lt;font size=&quot;1&quot;&gt;Mid_T&lt;/font&gt;" style="ellipse;whiteSpace=wrap;html=1;align=center;fillColor=#e51400;fontColor=#ffffff;strokeColor=#B20000;" parent="1" vertex="1">
          <mxGeometry x="1100" y="920" width="40" height="20" as="geometry" />
        </mxCell>
        <mxCell id="vMgHsEjD-DmCyHvrCuMM-98" style="edgeStyle=none;rounded=0;orthogonalLoop=1;jettySize=auto;html=1;entryX=0.397;entryY=1.002;entryDx=0;entryDy=0;entryPerimeter=0;endArrow=none;startFill=0;" parent="1" source="vMgHsEjD-DmCyHvrCuMM-93" target="vMgHsEjD-DmCyHvrCuMM-89" edge="1">
          <mxGeometry relative="1" as="geometry" />
        </mxCell>
        <mxCell id="vMgHsEjD-DmCyHvrCuMM-99" style="edgeStyle=none;rounded=0;orthogonalLoop=1;jettySize=auto;html=1;entryX=0.534;entryY=0.986;entryDx=0;entryDy=0;entryPerimeter=0;endArrow=none;startFill=0;" parent="1" source="vMgHsEjD-DmCyHvrCuMM-94" target="vMgHsEjD-DmCyHvrCuMM-89" edge="1">
          <mxGeometry relative="1" as="geometry" />
        </mxCell>
        <mxCell id="vMgHsEjD-DmCyHvrCuMM-100" style="edgeStyle=none;rounded=0;orthogonalLoop=1;jettySize=auto;html=1;entryX=0.702;entryY=0.969;entryDx=0;entryDy=0;entryPerimeter=0;endArrow=none;startFill=0;" parent="1" source="vMgHsEjD-DmCyHvrCuMM-95" target="vMgHsEjD-DmCyHvrCuMM-89" edge="1">
          <mxGeometry relative="1" as="geometry" />
        </mxCell>
        <mxCell id="vMgHsEjD-DmCyHvrCuMM-102" style="edgeStyle=none;rounded=0;orthogonalLoop=1;jettySize=auto;html=1;entryX=1.008;entryY=0.662;entryDx=0;entryDy=0;entryPerimeter=0;endArrow=none;startFill=0;" parent="1" source="vMgHsEjD-DmCyHvrCuMM-97" target="vMgHsEjD-DmCyHvrCuMM-89" edge="1">
          <mxGeometry relative="1" as="geometry" />
        </mxCell>
        <mxCell id="vMgHsEjD-DmCyHvrCuMM-124" value="ATTENDANCE" style="rounded=0;whiteSpace=wrap;html=1;" parent="1" vertex="1">
          <mxGeometry x="466" y="1340" width="100" height="40" as="geometry" />
        </mxCell>
        <mxCell id="vMgHsEjD-DmCyHvrCuMM-125" style="edgeStyle=none;rounded=0;orthogonalLoop=1;jettySize=auto;html=1;endArrow=none;startFill=0;" parent="1" source="vMgHsEjD-DmCyHvrCuMM-126" target="vMgHsEjD-DmCyHvrCuMM-124" edge="1">
          <mxGeometry relative="1" as="geometry" />
        </mxCell>
        <mxCell id="vMgHsEjD-DmCyHvrCuMM-126" value="&lt;u&gt;Attendance_id&lt;/u&gt;" style="ellipse;whiteSpace=wrap;html=1;align=center;" parent="1" vertex="1">
          <mxGeometry x="396.5" y="1430" width="90" height="30" as="geometry" />
        </mxCell>
        <mxCell id="vMgHsEjD-DmCyHvrCuMM-127" style="edgeStyle=none;rounded=0;orthogonalLoop=1;jettySize=auto;html=1;entryX=0.463;entryY=1.016;entryDx=0;entryDy=0;endArrow=none;startFill=0;entryPerimeter=0;" parent="1" source="vMgHsEjD-DmCyHvrCuMM-128" target="vMgHsEjD-DmCyHvrCuMM-124" edge="1">
          <mxGeometry relative="1" as="geometry" />
        </mxCell>
        <mxCell id="vMgHsEjD-DmCyHvrCuMM-128" value="st_id" style="ellipse;whiteSpace=wrap;html=1;align=center;" parent="1" vertex="1">
          <mxGeometry x="505" y="1450" width="60" height="30" as="geometry" />
        </mxCell>
        <mxCell id="vMgHsEjD-DmCyHvrCuMM-129" style="edgeStyle=none;rounded=0;orthogonalLoop=1;jettySize=auto;html=1;entryX=0.619;entryY=1.003;entryDx=0;entryDy=0;entryPerimeter=0;endArrow=none;startFill=0;" parent="1" source="vMgHsEjD-DmCyHvrCuMM-130" target="vMgHsEjD-DmCyHvrCuMM-124" edge="1">
          <mxGeometry relative="1" as="geometry">
            <mxPoint x="551" y="1385" as="targetPoint" />
          </mxGeometry>
        </mxCell>
        <mxCell id="vMgHsEjD-DmCyHvrCuMM-130" value="Session_id" style="ellipse;whiteSpace=wrap;html=1;align=center;" parent="1" vertex="1">
          <mxGeometry x="560" y="1420" width="90" height="40" as="geometry" />
        </mxCell>
        <mxCell id="vMgHsEjD-DmCyHvrCuMM-131" style="edgeStyle=none;rounded=0;orthogonalLoop=1;jettySize=auto;html=1;entryX=1;entryY=1;entryDx=0;entryDy=0;endArrow=none;startFill=0;" parent="1" source="vMgHsEjD-DmCyHvrCuMM-132" target="vMgHsEjD-DmCyHvrCuMM-124" edge="1">
          <mxGeometry relative="1" as="geometry" />
        </mxCell>
        <mxCell id="vMgHsEjD-DmCyHvrCuMM-132" value="Status&lt;div&gt;&lt;font style=&quot;font-size: 10px;&quot;&gt;(present/not)&lt;/font&gt;&lt;/div&gt;" style="ellipse;whiteSpace=wrap;html=1;align=center;" parent="1" vertex="1">
          <mxGeometry x="650" y="1375" width="80" height="45" as="geometry" />
        </mxCell>
        <mxCell id="vMgHsEjD-DmCyHvrCuMM-133" style="edgeStyle=none;rounded=0;orthogonalLoop=1;jettySize=auto;html=1;endArrow=none;startFill=0;" parent="1" source="vMgHsEjD-DmCyHvrCuMM-134" target="vMgHsEjD-DmCyHvrCuMM-124" edge="1">
          <mxGeometry relative="1" as="geometry" />
        </mxCell>
        <mxCell id="vMgHsEjD-DmCyHvrCuMM-134" value="C_code" style="ellipse;whiteSpace=wrap;html=1;align=center;" parent="1" vertex="1">
          <mxGeometry x="615.5" y="1300" width="90" height="40" as="geometry" />
        </mxCell>
        <mxCell id="vMgHsEjD-DmCyHvrCuMM-263" value="" style="edgeStyle=none;rounded=0;orthogonalLoop=1;jettySize=auto;html=1;elbow=vertical;endArrow=none;startFill=0;" parent="1" source="vMgHsEjD-DmCyHvrCuMM-156" target="vMgHsEjD-DmCyHvrCuMM-262" edge="1">
          <mxGeometry relative="1" as="geometry" />
        </mxCell>
        <mxCell id="vMgHsEjD-DmCyHvrCuMM-265" value="1" style="edgeLabel;html=1;align=center;verticalAlign=middle;resizable=0;points=[];" parent="vMgHsEjD-DmCyHvrCuMM-263" vertex="1" connectable="0">
          <mxGeometry x="-0.6977" relative="1" as="geometry">
            <mxPoint as="offset" />
          </mxGeometry>
        </mxCell>
        <mxCell id="vMgHsEjD-DmCyHvrCuMM-156" value="SESSION" style="rounded=0;whiteSpace=wrap;html=1;" parent="1" vertex="1">
          <mxGeometry x="480.5" y="1098.2" width="100" height="40" as="geometry" />
        </mxCell>
        <mxCell id="vMgHsEjD-DmCyHvrCuMM-157" style="edgeStyle=none;rounded=0;orthogonalLoop=1;jettySize=auto;html=1;endArrow=none;startFill=0;" parent="1" source="vMgHsEjD-DmCyHvrCuMM-158" target="vMgHsEjD-DmCyHvrCuMM-156" edge="1">
          <mxGeometry relative="1" as="geometry" />
        </mxCell>
        <mxCell id="vMgHsEjD-DmCyHvrCuMM-158" value="&lt;u&gt;Session_id&lt;/u&gt;" style="ellipse;whiteSpace=wrap;html=1;align=center;" parent="1" vertex="1">
          <mxGeometry x="345.5" y="1103.2" width="90" height="30" as="geometry" />
        </mxCell>
        <mxCell id="vMgHsEjD-DmCyHvrCuMM-159" style="edgeStyle=none;rounded=0;orthogonalLoop=1;jettySize=auto;html=1;entryX=0.25;entryY=1;entryDx=0;entryDy=0;endArrow=none;startFill=0;" parent="1" source="vMgHsEjD-DmCyHvrCuMM-160" target="vMgHsEjD-DmCyHvrCuMM-156" edge="1">
          <mxGeometry relative="1" as="geometry" />
        </mxCell>
        <mxCell id="vMgHsEjD-DmCyHvrCuMM-160" value="C_code" style="ellipse;whiteSpace=wrap;html=1;align=center;" parent="1" vertex="1">
          <mxGeometry x="405.5" y="1168.2" width="60" height="30" as="geometry" />
        </mxCell>
        <mxCell id="vMgHsEjD-DmCyHvrCuMM-161" style="edgeStyle=none;rounded=0;orthogonalLoop=1;jettySize=auto;html=1;entryX=1;entryY=0;entryDx=0;entryDy=0;endArrow=none;startFill=0;" parent="1" source="vMgHsEjD-DmCyHvrCuMM-162" target="vMgHsEjD-DmCyHvrCuMM-156" edge="1">
          <mxGeometry relative="1" as="geometry">
            <mxPoint x="565.5" y="1143.2" as="targetPoint" />
          </mxGeometry>
        </mxCell>
        <mxCell id="vMgHsEjD-DmCyHvrCuMM-162" value="Week_no" style="ellipse;whiteSpace=wrap;html=1;align=center;" parent="1" vertex="1">
          <mxGeometry x="580.5" y="1038.98" width="76" height="35" as="geometry" />
        </mxCell>
        <mxCell id="vMgHsEjD-DmCyHvrCuMM-163" style="edgeStyle=none;rounded=0;orthogonalLoop=1;jettySize=auto;html=1;entryX=1;entryY=1;entryDx=0;entryDy=0;endArrow=none;startFill=0;" parent="1" source="vMgHsEjD-DmCyHvrCuMM-164" target="vMgHsEjD-DmCyHvrCuMM-156" edge="1">
          <mxGeometry relative="1" as="geometry" />
        </mxCell>
        <mxCell id="vMgHsEjD-DmCyHvrCuMM-164" value="Date" style="ellipse;whiteSpace=wrap;html=1;align=center;" parent="1" vertex="1">
          <mxGeometry x="615.5" y="1163.2" width="51" height="30" as="geometry" />
        </mxCell>
        <mxCell id="vMgHsEjD-DmCyHvrCuMM-165" style="edgeStyle=none;rounded=0;orthogonalLoop=1;jettySize=auto;html=1;endArrow=none;startFill=0;" parent="1" source="vMgHsEjD-DmCyHvrCuMM-166" target="vMgHsEjD-DmCyHvrCuMM-156" edge="1">
          <mxGeometry relative="1" as="geometry" />
        </mxCell>
        <mxCell id="vMgHsEjD-DmCyHvrCuMM-166" value="Type&amp;nbsp;&lt;br&gt;&lt;font style=&quot;font-size: 8px;&quot;&gt;(P/T)&lt;/font&gt;" style="ellipse;whiteSpace=wrap;html=1;align=center;" parent="1" vertex="1">
          <mxGeometry x="636.5" y="1093.2" width="60" height="40" as="geometry" />
        </mxCell>
        <mxCell id="vMgHsEjD-DmCyHvrCuMM-167" value="MARK" style="rounded=0;whiteSpace=wrap;html=1;" parent="1" vertex="1">
          <mxGeometry x="900" y="485" width="100" height="40" as="geometry" />
        </mxCell>
        <mxCell id="vMgHsEjD-DmCyHvrCuMM-168" style="edgeStyle=none;rounded=0;orthogonalLoop=1;jettySize=auto;html=1;endArrow=none;startFill=0;" parent="1" source="vMgHsEjD-DmCyHvrCuMM-169" target="vMgHsEjD-DmCyHvrCuMM-167" edge="1">
          <mxGeometry relative="1" as="geometry" />
        </mxCell>
        <mxCell id="vMgHsEjD-DmCyHvrCuMM-169" value="&lt;u&gt;Mark_id&lt;/u&gt;" style="ellipse;whiteSpace=wrap;html=1;align=center;" parent="1" vertex="1">
          <mxGeometry x="825" y="420" width="70" height="30" as="geometry" />
        </mxCell>
        <mxCell id="vMgHsEjD-DmCyHvrCuMM-170" style="edgeStyle=none;rounded=0;orthogonalLoop=1;jettySize=auto;html=1;entryX=0;entryY=0.5;entryDx=0;entryDy=0;endArrow=none;startFill=0;" parent="1" source="vMgHsEjD-DmCyHvrCuMM-171" target="vMgHsEjD-DmCyHvrCuMM-167" edge="1">
          <mxGeometry relative="1" as="geometry" />
        </mxCell>
        <mxCell id="vMgHsEjD-DmCyHvrCuMM-171" value="Exam_id" style="ellipse;whiteSpace=wrap;html=1;align=center;" parent="1" vertex="1">
          <mxGeometry x="810" y="492.5" width="60" height="30" as="geometry" />
        </mxCell>
        <mxCell id="vMgHsEjD-DmCyHvrCuMM-172" style="edgeStyle=none;rounded=0;orthogonalLoop=1;jettySize=auto;html=1;entryX=0.038;entryY=1.009;entryDx=0;entryDy=0;entryPerimeter=0;endArrow=none;startFill=0;" parent="1" source="vMgHsEjD-DmCyHvrCuMM-173" target="vMgHsEjD-DmCyHvrCuMM-167" edge="1">
          <mxGeometry relative="1" as="geometry">
            <mxPoint x="985" y="530" as="targetPoint" />
          </mxGeometry>
        </mxCell>
        <mxCell id="vMgHsEjD-DmCyHvrCuMM-173" value="St_id" style="ellipse;whiteSpace=wrap;html=1;align=center;" parent="1" vertex="1">
          <mxGeometry x="835" y="555" width="75" height="30" as="geometry" />
        </mxCell>
        <mxCell id="vMgHsEjD-DmCyHvrCuMM-174" style="edgeStyle=none;rounded=0;orthogonalLoop=1;jettySize=auto;html=1;entryX=1;entryY=1;entryDx=0;entryDy=0;endArrow=none;startFill=0;" parent="1" source="vMgHsEjD-DmCyHvrCuMM-175" target="vMgHsEjD-DmCyHvrCuMM-167" edge="1">
          <mxGeometry relative="1" as="geometry" />
        </mxCell>
        <mxCell id="vMgHsEjD-DmCyHvrCuMM-175" value="Marks" style="ellipse;whiteSpace=wrap;html=1;align=center;" parent="1" vertex="1">
          <mxGeometry x="1015" y="555" width="70" height="35" as="geometry" />
        </mxCell>
        <mxCell id="vMgHsEjD-DmCyHvrCuMM-180" style="edgeStyle=none;rounded=0;orthogonalLoop=1;jettySize=auto;html=1;entryX=0.5;entryY=0;entryDx=0;entryDy=0;endArrow=none;startFill=0;" parent="1" source="vMgHsEjD-DmCyHvrCuMM-178" target="vMgHsEjD-DmCyHvrCuMM-54" edge="1">
          <mxGeometry relative="1" as="geometry" />
        </mxCell>
        <mxCell id="vMgHsEjD-DmCyHvrCuMM-182" value="M" style="edgeLabel;html=1;align=center;verticalAlign=middle;resizable=0;points=[];" parent="vMgHsEjD-DmCyHvrCuMM-180" vertex="1" connectable="0">
          <mxGeometry x="0.4484" y="-1" relative="1" as="geometry">
            <mxPoint x="9" y="27" as="offset" />
          </mxGeometry>
        </mxCell>
        <mxCell id="vMgHsEjD-DmCyHvrCuMM-178" value="ENROLLS_IN" style="rhombus;whiteSpace=wrap;html=1;" parent="1" vertex="1">
          <mxGeometry x="-18.75" y="695" width="132.5" height="60" as="geometry" />
        </mxCell>
        <mxCell id="vMgHsEjD-DmCyHvrCuMM-184" style="edgeStyle=none;rounded=0;orthogonalLoop=1;jettySize=auto;html=1;endArrow=none;startFill=0;" parent="1" source="vMgHsEjD-DmCyHvrCuMM-183" target="vMgHsEjD-DmCyHvrCuMM-178" edge="1">
          <mxGeometry relative="1" as="geometry" />
        </mxCell>
        <mxCell id="vMgHsEjD-DmCyHvrCuMM-183" value="Academic_yr" style="ellipse;whiteSpace=wrap;html=1;align=center;" parent="1" vertex="1">
          <mxGeometry x="100" y="765" width="90" height="35" as="geometry" />
        </mxCell>
        <mxCell id="vMgHsEjD-DmCyHvrCuMM-185" value="Sem" style="ellipse;whiteSpace=wrap;html=1;align=center;" parent="1" vertex="1">
          <mxGeometry x="-60" y="765" width="40" height="20" as="geometry" />
        </mxCell>
        <mxCell id="vMgHsEjD-DmCyHvrCuMM-186" style="edgeStyle=none;rounded=0;orthogonalLoop=1;jettySize=auto;html=1;entryX=0.121;entryY=0.632;entryDx=0;entryDy=0;entryPerimeter=0;endArrow=none;startFill=0;" parent="1" source="vMgHsEjD-DmCyHvrCuMM-185" target="vMgHsEjD-DmCyHvrCuMM-178" edge="1">
          <mxGeometry relative="1" as="geometry" />
        </mxCell>
        <mxCell id="vMgHsEjD-DmCyHvrCuMM-187" value="Status" style="ellipse;whiteSpace=wrap;html=1;align=center;" parent="1" vertex="1">
          <mxGeometry x="-110" y="677.5" width="70" height="32.5" as="geometry" />
        </mxCell>
        <mxCell id="vMgHsEjD-DmCyHvrCuMM-188" style="edgeStyle=none;rounded=0;orthogonalLoop=1;jettySize=auto;html=1;entryX=0.068;entryY=0.436;entryDx=0;entryDy=0;entryPerimeter=0;endArrow=none;startFill=0;" parent="1" source="vMgHsEjD-DmCyHvrCuMM-187" target="vMgHsEjD-DmCyHvrCuMM-178" edge="1">
          <mxGeometry relative="1" as="geometry" />
        </mxCell>
        <mxCell id="vMgHsEjD-DmCyHvrCuMM-193" value="User_id" style="ellipse;whiteSpace=wrap;html=1;align=center;" parent="1" vertex="1">
          <mxGeometry x="-390" y="439.98" width="75" height="30" as="geometry" />
        </mxCell>
        <mxCell id="vMgHsEjD-DmCyHvrCuMM-195" value="&lt;u&gt;St_id&lt;/u&gt;" style="ellipse;whiteSpace=wrap;html=1;align=center;" parent="1" vertex="1">
          <mxGeometry x="-290" y="429.98" width="75" height="30" as="geometry" />
        </mxCell>
        <mxCell id="vMgHsEjD-DmCyHvrCuMM-200" style="edgeStyle=none;rounded=0;orthogonalLoop=1;jettySize=auto;html=1;entryX=0;entryY=0.5;entryDx=0;entryDy=0;endArrow=none;startFill=0;" parent="1" source="vMgHsEjD-DmCyHvrCuMM-196" target="vMgHsEjD-DmCyHvrCuMM-6" edge="1">
          <mxGeometry relative="1" as="geometry" />
        </mxCell>
        <mxCell id="vMgHsEjD-DmCyHvrCuMM-196" value="Program" style="ellipse;whiteSpace=wrap;html=1;align=center;" parent="1" vertex="1">
          <mxGeometry x="-410" y="489.98" width="75" height="30" as="geometry" />
        </mxCell>
        <mxCell id="vMgHsEjD-DmCyHvrCuMM-198" style="edgeStyle=none;rounded=0;orthogonalLoop=1;jettySize=auto;html=1;entryX=0;entryY=0;entryDx=0;entryDy=0;endArrow=none;startFill=0;" parent="1" source="vMgHsEjD-DmCyHvrCuMM-193" target="vMgHsEjD-DmCyHvrCuMM-6" edge="1">
          <mxGeometry relative="1" as="geometry" />
        </mxCell>
        <mxCell id="vMgHsEjD-DmCyHvrCuMM-199" style="edgeStyle=none;rounded=0;orthogonalLoop=1;jettySize=auto;html=1;entryX=0.679;entryY=0.002;entryDx=0;entryDy=0;entryPerimeter=0;endArrow=none;startFill=0;" parent="1" source="vMgHsEjD-DmCyHvrCuMM-195" target="vMgHsEjD-DmCyHvrCuMM-6" edge="1">
          <mxGeometry relative="1" as="geometry" />
        </mxCell>
        <mxCell id="vMgHsEjD-DmCyHvrCuMM-201" value="Dean_id" style="ellipse;whiteSpace=wrap;html=1;align=center;" parent="1" vertex="1">
          <mxGeometry x="321" y="585" width="70" height="30" as="geometry" />
        </mxCell>
        <mxCell id="vMgHsEjD-DmCyHvrCuMM-202" value="Admin_id" style="ellipse;whiteSpace=wrap;html=1;align=center;" parent="1" vertex="1">
          <mxGeometry x="100" y="584.98" width="70" height="30" as="geometry" />
        </mxCell>
        <mxCell id="vMgHsEjD-DmCyHvrCuMM-204" style="edgeStyle=none;rounded=0;orthogonalLoop=1;jettySize=auto;html=1;entryX=0.431;entryY=1.02;entryDx=0;entryDy=0;entryPerimeter=0;endArrow=none;startFill=0;" parent="1" source="vMgHsEjD-DmCyHvrCuMM-201" target="vMgHsEjD-DmCyHvrCuMM-16" edge="1">
          <mxGeometry relative="1" as="geometry" />
        </mxCell>
        <mxCell id="vMgHsEjD-DmCyHvrCuMM-205" style="edgeStyle=none;rounded=0;orthogonalLoop=1;jettySize=auto;html=1;endArrow=none;startFill=0;" parent="1" source="vMgHsEjD-DmCyHvrCuMM-202" target="vMgHsEjD-DmCyHvrCuMM-14" edge="1">
          <mxGeometry relative="1" as="geometry" />
        </mxCell>
        <mxCell id="vMgHsEjD-DmCyHvrCuMM-207" value="User_id" style="ellipse;whiteSpace=wrap;html=1;align=center;" parent="1" vertex="1">
          <mxGeometry x="435" y="560" width="60" height="30" as="geometry" />
        </mxCell>
        <mxCell id="vMgHsEjD-DmCyHvrCuMM-208" value="&lt;u&gt;Lec_id&lt;/u&gt;" style="ellipse;whiteSpace=wrap;html=1;align=center;" parent="1" vertex="1">
          <mxGeometry x="540" y="560" width="60" height="30" as="geometry" />
        </mxCell>
        <mxCell id="vMgHsEjD-DmCyHvrCuMM-209" style="edgeStyle=none;rounded=0;orthogonalLoop=1;jettySize=auto;html=1;entryX=0.71;entryY=1.017;entryDx=0;entryDy=0;entryPerimeter=0;endArrow=none;startFill=0;" parent="1" source="vMgHsEjD-DmCyHvrCuMM-208" target="vMgHsEjD-DmCyHvrCuMM-19" edge="1">
          <mxGeometry relative="1" as="geometry" />
        </mxCell>
        <mxCell id="vMgHsEjD-DmCyHvrCuMM-210" style="edgeStyle=none;rounded=0;orthogonalLoop=1;jettySize=auto;html=1;entryX=0.34;entryY=0.965;entryDx=0;entryDy=0;entryPerimeter=0;endArrow=none;startFill=0;" parent="1" source="vMgHsEjD-DmCyHvrCuMM-207" target="vMgHsEjD-DmCyHvrCuMM-19" edge="1">
          <mxGeometry relative="1" as="geometry" />
        </mxCell>
        <mxCell id="vMgHsEjD-DmCyHvrCuMM-213" style="edgeStyle=none;rounded=0;orthogonalLoop=1;jettySize=auto;html=1;entryX=0.75;entryY=1;entryDx=0;entryDy=0;endArrow=none;startFill=0;" parent="1" source="vMgHsEjD-DmCyHvrCuMM-211" target="vMgHsEjD-DmCyHvrCuMM-22" edge="1">
          <mxGeometry relative="1" as="geometry" />
        </mxCell>
        <mxCell id="vMgHsEjD-DmCyHvrCuMM-211" value="&lt;u&gt;To_id&lt;/u&gt;" style="ellipse;whiteSpace=wrap;html=1;align=center;" parent="1" vertex="1">
          <mxGeometry x="704" y="602" width="60" height="30" as="geometry" />
        </mxCell>
        <mxCell id="vMgHsEjD-DmCyHvrCuMM-212" value="User_id" style="ellipse;whiteSpace=wrap;html=1;align=center;" parent="1" vertex="1">
          <mxGeometry x="629" y="602" width="60" height="30" as="geometry" />
        </mxCell>
        <mxCell id="vMgHsEjD-DmCyHvrCuMM-214" style="edgeStyle=none;rounded=0;orthogonalLoop=1;jettySize=auto;html=1;entryX=0.327;entryY=1.016;entryDx=0;entryDy=0;entryPerimeter=0;endArrow=none;startFill=0;" parent="1" source="vMgHsEjD-DmCyHvrCuMM-212" target="vMgHsEjD-DmCyHvrCuMM-22" edge="1">
          <mxGeometry relative="1" as="geometry" />
        </mxCell>
        <mxCell id="vMgHsEjD-DmCyHvrCuMM-215" value="HAS" style="rhombus;whiteSpace=wrap;html=1;" parent="1" vertex="1">
          <mxGeometry x="220" y="988.98" width="112.5" height="50" as="geometry" />
        </mxCell>
        <mxCell id="vMgHsEjD-DmCyHvrCuMM-225" style="edgeStyle=none;rounded=0;orthogonalLoop=1;jettySize=auto;html=1;entryX=1;entryY=0.5;entryDx=0;entryDy=0;elbow=vertical;endArrow=none;endFill=1;startFill=0;" parent="1" source="vMgHsEjD-DmCyHvrCuMM-156" target="vMgHsEjD-DmCyHvrCuMM-215" edge="1">
          <mxGeometry relative="1" as="geometry" />
        </mxCell>
        <mxCell id="vMgHsEjD-DmCyHvrCuMM-227" value="M" style="edgeLabel;html=1;align=center;verticalAlign=middle;resizable=0;points=[];" parent="vMgHsEjD-DmCyHvrCuMM-225" vertex="1" connectable="0">
          <mxGeometry x="-0.7848" y="2" relative="1" as="geometry">
            <mxPoint as="offset" />
          </mxGeometry>
        </mxCell>
        <mxCell id="vMgHsEjD-DmCyHvrCuMM-228" value="TEACHES" style="rhombus;whiteSpace=wrap;html=1;" parent="1" vertex="1">
          <mxGeometry x="260.75" y="820" width="112.5" height="50" as="geometry" />
        </mxCell>
        <mxCell id="vMgHsEjD-DmCyHvrCuMM-236" style="edgeStyle=none;rounded=0;orthogonalLoop=1;jettySize=auto;html=1;entryX=0.25;entryY=0;entryDx=0;entryDy=0;elbow=vertical;endArrow=none;startFill=0;" parent="1" source="vMgHsEjD-DmCyHvrCuMM-234" target="vMgHsEjD-DmCyHvrCuMM-73" edge="1">
          <mxGeometry relative="1" as="geometry" />
        </mxCell>
        <mxCell id="vMgHsEjD-DmCyHvrCuMM-247" value="M" style="edgeLabel;html=1;align=center;verticalAlign=middle;resizable=0;points=[];" parent="vMgHsEjD-DmCyHvrCuMM-236" vertex="1" connectable="0">
          <mxGeometry x="0.5698" y="-3" relative="1" as="geometry">
            <mxPoint x="14" y="20" as="offset" />
          </mxGeometry>
        </mxCell>
        <mxCell id="vMgHsEjD-DmCyHvrCuMM-234" value="SUBMITS" style="rhombus;whiteSpace=wrap;html=1;rounded=0;" parent="1" vertex="1">
          <mxGeometry x="-600" y="879.75" width="121" height="55" as="geometry" />
        </mxCell>
        <mxCell id="vMgHsEjD-DmCyHvrCuMM-240" style="edgeStyle=none;rounded=0;orthogonalLoop=1;jettySize=auto;html=1;entryX=0;entryY=0.75;entryDx=0;entryDy=0;elbow=vertical;endArrow=none;startFill=0;" parent="1" source="vMgHsEjD-DmCyHvrCuMM-238" target="vMgHsEjD-DmCyHvrCuMM-82" edge="1">
          <mxGeometry relative="1" as="geometry" />
        </mxCell>
        <mxCell id="vMgHsEjD-DmCyHvrCuMM-251" value="N" style="edgeLabel;html=1;align=center;verticalAlign=middle;resizable=0;points=[];" parent="vMgHsEjD-DmCyHvrCuMM-240" vertex="1" connectable="0">
          <mxGeometry x="0.8389" y="-6" relative="1" as="geometry">
            <mxPoint as="offset" />
          </mxGeometry>
        </mxCell>
        <mxCell id="vMgHsEjD-DmCyHvrCuMM-238" value="HAS" style="rhombus;whiteSpace=wrap;html=1;rounded=0;" parent="1" vertex="1">
          <mxGeometry x="391" y="887.96" width="120" height="51.02" as="geometry" />
        </mxCell>
        <mxCell id="vMgHsEjD-DmCyHvrCuMM-243" style="edgeStyle=none;rounded=0;orthogonalLoop=1;jettySize=auto;html=1;entryX=0;entryY=0.25;entryDx=0;entryDy=0;elbow=vertical;endArrow=none;startFill=0;" parent="1" source="vMgHsEjD-DmCyHvrCuMM-241" target="vMgHsEjD-DmCyHvrCuMM-124" edge="1">
          <mxGeometry relative="1" as="geometry" />
        </mxCell>
        <mxCell id="vMgHsEjD-DmCyHvrCuMM-245" value="M" style="edgeLabel;html=1;align=center;verticalAlign=middle;resizable=0;points=[];" parent="vMgHsEjD-DmCyHvrCuMM-243" vertex="1" connectable="0">
          <mxGeometry x="0.8634" y="3" relative="1" as="geometry">
            <mxPoint as="offset" />
          </mxGeometry>
        </mxCell>
        <mxCell id="vMgHsEjD-DmCyHvrCuMM-241" value="HAS" style="rhombus;whiteSpace=wrap;html=1;rounded=0;" parent="1" vertex="1">
          <mxGeometry x="-240" y="1133.2" width="100" height="45" as="geometry" />
        </mxCell>
        <mxCell id="vMgHsEjD-DmCyHvrCuMM-254" style="edgeStyle=none;rounded=0;orthogonalLoop=1;jettySize=auto;html=1;entryX=0;entryY=0.75;entryDx=0;entryDy=0;elbow=vertical;endArrow=none;startFill=0;" parent="1" source="vMgHsEjD-DmCyHvrCuMM-252" target="vMgHsEjD-DmCyHvrCuMM-124" edge="1">
          <mxGeometry relative="1" as="geometry" />
        </mxCell>
        <mxCell id="vMgHsEjD-DmCyHvrCuMM-267" value="N" style="edgeLabel;html=1;align=center;verticalAlign=middle;resizable=0;points=[];" parent="vMgHsEjD-DmCyHvrCuMM-254" vertex="1" connectable="0">
          <mxGeometry x="0.915" y="-1" relative="1" as="geometry">
            <mxPoint as="offset" />
          </mxGeometry>
        </mxCell>
        <mxCell id="vMgHsEjD-DmCyHvrCuMM-252" value="JUSTIFY_BY" style="rhombus;whiteSpace=wrap;html=1;rounded=0;" parent="1" vertex="1">
          <mxGeometry x="-90" y="1410" width="140" height="50" as="geometry" />
        </mxCell>
        <mxCell id="vMgHsEjD-DmCyHvrCuMM-264" style="edgeStyle=none;rounded=0;orthogonalLoop=1;jettySize=auto;html=1;elbow=vertical;endArrow=none;startFill=0;" parent="1" source="vMgHsEjD-DmCyHvrCuMM-262" target="vMgHsEjD-DmCyHvrCuMM-124" edge="1">
          <mxGeometry relative="1" as="geometry" />
        </mxCell>
        <mxCell id="vMgHsEjD-DmCyHvrCuMM-266" value="M" style="edgeLabel;html=1;align=center;verticalAlign=middle;resizable=0;points=[];" parent="vMgHsEjD-DmCyHvrCuMM-264" vertex="1" connectable="0">
          <mxGeometry x="0.4458" relative="1" as="geometry">
            <mxPoint as="offset" />
          </mxGeometry>
        </mxCell>
        <mxCell id="vMgHsEjD-DmCyHvrCuMM-262" value="HAS" style="rhombus;whiteSpace=wrap;html=1;rounded=0;" parent="1" vertex="1">
          <mxGeometry x="486.5" y="1220" width="79.5" height="41.8" as="geometry" />
        </mxCell>
        <mxCell id="vMgHsEjD-DmCyHvrCuMM-271" style="edgeStyle=none;rounded=0;orthogonalLoop=1;jettySize=auto;html=1;entryX=0.541;entryY=1.006;entryDx=0;entryDy=0;elbow=vertical;endArrow=none;startFill=0;entryPerimeter=0;" parent="1" source="vMgHsEjD-DmCyHvrCuMM-269" target="vMgHsEjD-DmCyHvrCuMM-167" edge="1">
          <mxGeometry relative="1" as="geometry" />
        </mxCell>
        <mxCell id="vMgHsEjD-DmCyHvrCuMM-275" value="n" style="edgeLabel;html=1;align=center;verticalAlign=middle;resizable=0;points=[];" parent="vMgHsEjD-DmCyHvrCuMM-271" vertex="1" connectable="0">
          <mxGeometry x="0.5858" y="1" relative="1" as="geometry">
            <mxPoint as="offset" />
          </mxGeometry>
        </mxCell>
        <mxCell id="vMgHsEjD-DmCyHvrCuMM-269" value="HAS" style="rhombus;whiteSpace=wrap;html=1;rounded=0;" parent="1" vertex="1">
          <mxGeometry x="887.5" y="680" width="95" height="40" as="geometry" />
        </mxCell>
        <mxCell id="vMgHsEjD-DmCyHvrCuMM-274" style="edgeStyle=none;rounded=0;orthogonalLoop=1;jettySize=auto;html=1;entryX=1;entryY=0.5;entryDx=0;entryDy=0;elbow=vertical;endArrow=none;startFill=0;" parent="1" source="vMgHsEjD-DmCyHvrCuMM-273" target="vMgHsEjD-DmCyHvrCuMM-167" edge="1">
          <mxGeometry relative="1" as="geometry" />
        </mxCell>
        <mxCell id="vMgHsEjD-DmCyHvrCuMM-273" value="Direct_marks" style="ellipse;whiteSpace=wrap;html=1;align=center;" parent="1" vertex="1">
          <mxGeometry x="1055" y="487.5" width="100" height="35" as="geometry" />
        </mxCell>
        <mxCell id="5WDiBSM0z3BSwG_DDWjl-2" style="rounded=0;orthogonalLoop=1;jettySize=auto;html=1;entryX=0;entryY=1;entryDx=0;entryDy=0;endArrow=none;endFill=0;" parent="1" source="5WDiBSM0z3BSwG_DDWjl-1" target="vMgHsEjD-DmCyHvrCuMM-73" edge="1">
          <mxGeometry relative="1" as="geometry" />
        </mxCell>
        <mxCell id="5WDiBSM0z3BSwG_DDWjl-1" value="St_id" style="ellipse;whiteSpace=wrap;html=1;align=center;" parent="1" vertex="1">
          <mxGeometry x="-589.5" y="1385" width="49.5" height="30" as="geometry" />
        </mxCell>
        <mxCell id="5WDiBSM0z3BSwG_DDWjl-3" value="Attendance_id" style="ellipse;whiteSpace=wrap;html=1;align=center;" parent="1" vertex="1">
          <mxGeometry x="-530" y="1400" width="100" height="30" as="geometry" />
        </mxCell>
        <mxCell id="5WDiBSM0z3BSwG_DDWjl-5" style="rounded=0;orthogonalLoop=1;jettySize=auto;html=1;entryX=0.425;entryY=1.002;entryDx=0;entryDy=0;entryPerimeter=0;endArrow=none;endFill=0;" parent="1" source="5WDiBSM0z3BSwG_DDWjl-3" target="vMgHsEjD-DmCyHvrCuMM-73" edge="1">
          <mxGeometry relative="1" as="geometry" />
        </mxCell>
        <mxCell id="GWespRJhVOi1i9ig_3XA-2" style="rounded=0;orthogonalLoop=1;jettySize=auto;html=1;entryX=1;entryY=0.5;entryDx=0;entryDy=0;endArrow=none;endFill=0;" parent="1" source="GWespRJhVOi1i9ig_3XA-1" target="vMgHsEjD-DmCyHvrCuMM-82" edge="1">
          <mxGeometry relative="1" as="geometry" />
        </mxCell>
        <mxCell id="GWespRJhVOi1i9ig_3XA-1" value="Total_mark" style="ellipse;whiteSpace=wrap;html=1;align=center;" parent="1" vertex="1">
          <mxGeometry x="1010" y="810" width="70" height="30" as="geometry" />
        </mxCell>
        <mxCell id="GWespRJhVOi1i9ig_3XA-5" value="&lt;span style=&quot;font-size: 9px;&quot;&gt;Proper&lt;/span&gt;" style="ellipse;whiteSpace=wrap;html=1;align=center;fillColor=#e51400;fontColor=#ffffff;strokeColor=#B20000;" parent="1" vertex="1">
          <mxGeometry x="-160" y="710" width="40" height="20" as="geometry" />
        </mxCell>
        <mxCell id="GWespRJhVOi1i9ig_3XA-6" value="&lt;span style=&quot;font-size: 9px;&quot;&gt;Repeat&lt;/span&gt;" style="ellipse;whiteSpace=wrap;html=1;align=center;fillColor=#e51400;fontColor=#ffffff;strokeColor=#B20000;" parent="1" vertex="1">
          <mxGeometry x="-130" y="730" width="40" height="20" as="geometry" />
        </mxCell>
        <mxCell id="GWespRJhVOi1i9ig_3XA-7" style="rounded=0;orthogonalLoop=1;jettySize=auto;html=1;entryX=0.068;entryY=0.744;entryDx=0;entryDy=0;entryPerimeter=0;" parent="1" source="GWespRJhVOi1i9ig_3XA-5" target="vMgHsEjD-DmCyHvrCuMM-187" edge="1">
          <mxGeometry relative="1" as="geometry" />
        </mxCell>
        <mxCell id="GWespRJhVOi1i9ig_3XA-8" style="rounded=0;orthogonalLoop=1;jettySize=auto;html=1;entryX=0.274;entryY=0.991;entryDx=0;entryDy=0;entryPerimeter=0;" parent="1" source="GWespRJhVOi1i9ig_3XA-6" target="vMgHsEjD-DmCyHvrCuMM-187" edge="1">
          <mxGeometry relative="1" as="geometry" />
        </mxCell>
      </root>
    </mxGraphModel>
  </diagram>
  <diagram name="latest ER" id="eWszRRzjwhXOFwTcabPn">
    <mxGraphModel dx="2722" dy="1195" grid="1" gridSize="10" guides="1" tooltips="1" connect="1" arrows="1" fold="1" page="1" pageScale="1" pageWidth="827" pageHeight="1169" math="0" shadow="0">
      <root>
        <mxCell id="0RCKadzTL1skOKLIjvH6-0" />
        <mxCell id="0RCKadzTL1skOKLIjvH6-1" parent="0RCKadzTL1skOKLIjvH6-0" />
        <mxCell id="0RCKadzTL1skOKLIjvH6-2" value="" style="edgeStyle=orthogonalEdgeStyle;rounded=0;orthogonalLoop=1;jettySize=auto;html=1;endArrow=none;startFill=0;" parent="0RCKadzTL1skOKLIjvH6-1" source="0RCKadzTL1skOKLIjvH6-3" target="0RCKadzTL1skOKLIjvH6-9" edge="1">
          <mxGeometry relative="1" as="geometry" />
        </mxCell>
        <mxCell id="0RCKadzTL1skOKLIjvH6-3" value="USER" style="rounded=0;whiteSpace=wrap;html=1;" parent="0RCKadzTL1skOKLIjvH6-1" vertex="1">
          <mxGeometry x="345" y="230" width="70" height="30" as="geometry" />
        </mxCell>
        <mxCell id="0RCKadzTL1skOKLIjvH6-4" value="" style="rounded=0;orthogonalLoop=1;jettySize=auto;html=1;endArrow=none;startFill=0;" parent="0RCKadzTL1skOKLIjvH6-1" source="0RCKadzTL1skOKLIjvH6-9" target="0RCKadzTL1skOKLIjvH6-16" edge="1">
          <mxGeometry relative="1" as="geometry" />
        </mxCell>
        <mxCell id="0RCKadzTL1skOKLIjvH6-5" value="" style="rounded=0;orthogonalLoop=1;jettySize=auto;html=1;endArrow=none;startFill=0;" parent="0RCKadzTL1skOKLIjvH6-1" source="0RCKadzTL1skOKLIjvH6-9" target="0RCKadzTL1skOKLIjvH6-17" edge="1">
          <mxGeometry relative="1" as="geometry" />
        </mxCell>
        <mxCell id="0RCKadzTL1skOKLIjvH6-6" value="" style="rounded=0;orthogonalLoop=1;jettySize=auto;html=1;endArrow=none;startFill=0;" parent="0RCKadzTL1skOKLIjvH6-1" source="0RCKadzTL1skOKLIjvH6-9" target="0RCKadzTL1skOKLIjvH6-18" edge="1">
          <mxGeometry relative="1" as="geometry" />
        </mxCell>
        <mxCell id="0RCKadzTL1skOKLIjvH6-7" style="rounded=0;orthogonalLoop=1;jettySize=auto;html=1;entryX=0.5;entryY=0;entryDx=0;entryDy=0;endArrow=none;startFill=0;" parent="0RCKadzTL1skOKLIjvH6-1" source="0RCKadzTL1skOKLIjvH6-9" target="0RCKadzTL1skOKLIjvH6-21" edge="1">
          <mxGeometry relative="1" as="geometry" />
        </mxCell>
        <mxCell id="0RCKadzTL1skOKLIjvH6-8" value="" style="rounded=0;orthogonalLoop=1;jettySize=auto;html=1;endArrow=none;startFill=0;" parent="0RCKadzTL1skOKLIjvH6-1" source="0RCKadzTL1skOKLIjvH6-9" target="0RCKadzTL1skOKLIjvH6-22" edge="1">
          <mxGeometry relative="1" as="geometry">
            <Array as="points">
              <mxPoint x="400" y="440" />
            </Array>
          </mxGeometry>
        </mxCell>
        <mxCell id="0RCKadzTL1skOKLIjvH6-9" value="d" style="ellipse;whiteSpace=wrap;html=1;rounded=0;" parent="0RCKadzTL1skOKLIjvH6-1" vertex="1">
          <mxGeometry x="370" y="430" width="20" height="20" as="geometry" />
        </mxCell>
        <mxCell id="0RCKadzTL1skOKLIjvH6-10" style="edgeStyle=none;rounded=0;orthogonalLoop=1;jettySize=auto;html=1;entryX=0.5;entryY=0;entryDx=0;entryDy=0;endArrow=none;startFill=0;" parent="0RCKadzTL1skOKLIjvH6-1" source="0RCKadzTL1skOKLIjvH6-16" target="0RCKadzTL1skOKLIjvH6-125" edge="1">
          <mxGeometry relative="1" as="geometry" />
        </mxCell>
        <mxCell id="0RCKadzTL1skOKLIjvH6-11" value="N" style="edgeLabel;html=1;align=center;verticalAlign=middle;resizable=0;points=[];" parent="0RCKadzTL1skOKLIjvH6-10" vertex="1" connectable="0">
          <mxGeometry x="-0.7567" y="1" relative="1" as="geometry">
            <mxPoint x="-12" y="-7" as="offset" />
          </mxGeometry>
        </mxCell>
        <mxCell id="0RCKadzTL1skOKLIjvH6-12" value="" style="edgeStyle=none;rounded=0;orthogonalLoop=1;jettySize=auto;html=1;elbow=vertical;" parent="0RCKadzTL1skOKLIjvH6-1" source="0RCKadzTL1skOKLIjvH6-16" target="0RCKadzTL1skOKLIjvH6-156" edge="1">
          <mxGeometry relative="1" as="geometry" />
        </mxCell>
        <mxCell id="0RCKadzTL1skOKLIjvH6-13" value="1" style="edgeLabel;html=1;align=center;verticalAlign=middle;resizable=0;points=[];" parent="0RCKadzTL1skOKLIjvH6-12" vertex="1" connectable="0">
          <mxGeometry x="-0.8733" y="-4" relative="1" as="geometry">
            <mxPoint as="offset" />
          </mxGeometry>
        </mxCell>
        <mxCell id="0RCKadzTL1skOKLIjvH6-14" value="" style="edgeStyle=none;rounded=0;orthogonalLoop=1;jettySize=auto;html=1;elbow=vertical;endArrow=none;startFill=0;" parent="0RCKadzTL1skOKLIjvH6-1" source="0RCKadzTL1skOKLIjvH6-16" target="0RCKadzTL1skOKLIjvH6-162" edge="1">
          <mxGeometry relative="1" as="geometry" />
        </mxCell>
        <mxCell id="0RCKadzTL1skOKLIjvH6-15" value="1" style="edgeLabel;html=1;align=center;verticalAlign=middle;resizable=0;points=[];" parent="0RCKadzTL1skOKLIjvH6-14" vertex="1" connectable="0">
          <mxGeometry x="-0.8436" y="-3" relative="1" as="geometry">
            <mxPoint x="-4" y="-34" as="offset" />
          </mxGeometry>
        </mxCell>
        <mxCell id="0RCKadzTL1skOKLIjvH6-16" value="STUDENT" style="whiteSpace=wrap;html=1;rounded=0;" parent="0RCKadzTL1skOKLIjvH6-1" vertex="1">
          <mxGeometry x="-300" y="499.98" width="70" height="30" as="geometry" />
        </mxCell>
        <mxCell id="0RCKadzTL1skOKLIjvH6-17" value="ADMIN" style="whiteSpace=wrap;html=1;rounded=0;" parent="0RCKadzTL1skOKLIjvH6-1" vertex="1">
          <mxGeometry x="110" y="519.98" width="70" height="30" as="geometry" />
        </mxCell>
        <mxCell id="0RCKadzTL1skOKLIjvH6-18" value="DEAN" style="whiteSpace=wrap;html=1;rounded=0;" parent="0RCKadzTL1skOKLIjvH6-1" vertex="1">
          <mxGeometry x="330" y="522.5" width="70" height="30" as="geometry" />
        </mxCell>
        <mxCell id="0RCKadzTL1skOKLIjvH6-19" style="edgeStyle=none;rounded=0;orthogonalLoop=1;jettySize=auto;html=1;entryX=1;entryY=0.5;entryDx=0;entryDy=0;elbow=vertical;endArrow=none;startFill=0;" parent="0RCKadzTL1skOKLIjvH6-1" source="0RCKadzTL1skOKLIjvH6-21" target="0RCKadzTL1skOKLIjvH6-153" edge="1">
          <mxGeometry relative="1" as="geometry" />
        </mxCell>
        <mxCell id="0RCKadzTL1skOKLIjvH6-20" value="1" style="edgeLabel;html=1;align=center;verticalAlign=middle;resizable=0;points=[];" parent="0RCKadzTL1skOKLIjvH6-19" vertex="1" connectable="0">
          <mxGeometry x="-0.8159" y="5" relative="1" as="geometry">
            <mxPoint x="-7" y="3" as="offset" />
          </mxGeometry>
        </mxCell>
        <mxCell id="0RCKadzTL1skOKLIjvH6-21" value="LECTURER" style="whiteSpace=wrap;html=1;rounded=0;" parent="0RCKadzTL1skOKLIjvH6-1" vertex="1">
          <mxGeometry x="480" y="522.5" width="85" height="30" as="geometry" />
        </mxCell>
        <mxCell id="0RCKadzTL1skOKLIjvH6-22" value="TECH_OFFICER" style="whiteSpace=wrap;html=1;rounded=0;" parent="0RCKadzTL1skOKLIjvH6-1" vertex="1">
          <mxGeometry x="656.5" y="521.23" width="110" height="27.5" as="geometry" />
        </mxCell>
        <mxCell id="0RCKadzTL1skOKLIjvH6-23" value="&lt;u&gt;User_id&lt;/u&gt;" style="ellipse;whiteSpace=wrap;html=1;align=center;" parent="0RCKadzTL1skOKLIjvH6-1" vertex="1">
          <mxGeometry x="260" y="160" width="70" height="30" as="geometry" />
        </mxCell>
        <mxCell id="0RCKadzTL1skOKLIjvH6-24" value="Name" style="ellipse;whiteSpace=wrap;html=1;align=center;" parent="0RCKadzTL1skOKLIjvH6-1" vertex="1">
          <mxGeometry x="344" y="150" width="70" height="30" as="geometry" />
        </mxCell>
        <mxCell id="0RCKadzTL1skOKLIjvH6-25" style="rounded=0;orthogonalLoop=1;jettySize=auto;html=1;entryX=1;entryY=0.75;entryDx=0;entryDy=0;endArrow=none;startFill=0;" parent="0RCKadzTL1skOKLIjvH6-1" source="0RCKadzTL1skOKLIjvH6-26" target="0RCKadzTL1skOKLIjvH6-3" edge="1">
          <mxGeometry relative="1" as="geometry" />
        </mxCell>
        <mxCell id="0RCKadzTL1skOKLIjvH6-26" value="Nic" style="ellipse;whiteSpace=wrap;html=1;align=center;" parent="0RCKadzTL1skOKLIjvH6-1" vertex="1">
          <mxGeometry x="480" y="180" width="70" height="30" as="geometry" />
        </mxCell>
        <mxCell id="0RCKadzTL1skOKLIjvH6-27" style="rounded=0;orthogonalLoop=1;jettySize=auto;html=1;entryX=-0.001;entryY=0.315;entryDx=0;entryDy=0;entryPerimeter=0;endArrow=none;startFill=0;" parent="0RCKadzTL1skOKLIjvH6-1" source="0RCKadzTL1skOKLIjvH6-23" target="0RCKadzTL1skOKLIjvH6-3" edge="1">
          <mxGeometry relative="1" as="geometry" />
        </mxCell>
        <mxCell id="0RCKadzTL1skOKLIjvH6-28" style="rounded=0;orthogonalLoop=1;jettySize=auto;html=1;exitX=0.5;exitY=1;exitDx=0;exitDy=0;endArrow=none;startFill=0;entryX=0.531;entryY=-0.005;entryDx=0;entryDy=0;entryPerimeter=0;" parent="0RCKadzTL1skOKLIjvH6-1" source="0RCKadzTL1skOKLIjvH6-24" target="0RCKadzTL1skOKLIjvH6-3" edge="1">
          <mxGeometry relative="1" as="geometry">
            <mxPoint x="382" y="228" as="targetPoint" />
          </mxGeometry>
        </mxCell>
        <mxCell id="0RCKadzTL1skOKLIjvH6-29" style="rounded=0;orthogonalLoop=1;jettySize=auto;html=1;entryX=1;entryY=0.5;entryDx=0;entryDy=0;endArrow=none;startFill=0;" parent="0RCKadzTL1skOKLIjvH6-1" source="0RCKadzTL1skOKLIjvH6-30" target="0RCKadzTL1skOKLIjvH6-3" edge="1">
          <mxGeometry relative="1" as="geometry" />
        </mxCell>
        <mxCell id="0RCKadzTL1skOKLIjvH6-30" value="Email" style="ellipse;whiteSpace=wrap;html=1;align=center;" parent="0RCKadzTL1skOKLIjvH6-1" vertex="1">
          <mxGeometry x="430" y="150" width="70" height="30" as="geometry" />
        </mxCell>
        <mxCell id="0RCKadzTL1skOKLIjvH6-31" style="rounded=0;orthogonalLoop=1;jettySize=auto;html=1;entryX=0;entryY=0.5;entryDx=0;entryDy=0;endArrow=none;startFill=0;" parent="0RCKadzTL1skOKLIjvH6-1" source="0RCKadzTL1skOKLIjvH6-32" target="0RCKadzTL1skOKLIjvH6-3" edge="1">
          <mxGeometry relative="1" as="geometry" />
        </mxCell>
        <mxCell id="0RCKadzTL1skOKLIjvH6-32" value="User_pwd" style="ellipse;whiteSpace=wrap;html=1;align=center;" parent="0RCKadzTL1skOKLIjvH6-1" vertex="1">
          <mxGeometry x="220" y="200" width="70" height="30" as="geometry" />
        </mxCell>
        <mxCell id="0RCKadzTL1skOKLIjvH6-33" value="Phone" style="ellipse;shape=doubleEllipse;margin=3;whiteSpace=wrap;html=1;align=center;" parent="0RCKadzTL1skOKLIjvH6-1" vertex="1">
          <mxGeometry x="500" y="220" width="60" height="30" as="geometry" />
        </mxCell>
        <mxCell id="0RCKadzTL1skOKLIjvH6-34" style="rounded=0;orthogonalLoop=1;jettySize=auto;html=1;entryX=1;entryY=1;entryDx=0;entryDy=0;endArrow=none;startFill=0;" parent="0RCKadzTL1skOKLIjvH6-1" source="0RCKadzTL1skOKLIjvH6-33" target="0RCKadzTL1skOKLIjvH6-3" edge="1">
          <mxGeometry relative="1" as="geometry" />
        </mxCell>
        <mxCell id="0RCKadzTL1skOKLIjvH6-35" style="rounded=0;orthogonalLoop=1;jettySize=auto;html=1;entryX=1;entryY=0.5;entryDx=0;entryDy=0;endArrow=none;startFill=0;" parent="0RCKadzTL1skOKLIjvH6-1" source="0RCKadzTL1skOKLIjvH6-36" target="0RCKadzTL1skOKLIjvH6-37" edge="1">
          <mxGeometry relative="1" as="geometry" />
        </mxCell>
        <mxCell id="0RCKadzTL1skOKLIjvH6-36" value="Address" style="ellipse;whiteSpace=wrap;html=1;align=center;" parent="0RCKadzTL1skOKLIjvH6-1" vertex="1">
          <mxGeometry x="210" y="260" width="70" height="30" as="geometry" />
        </mxCell>
        <mxCell id="0RCKadzTL1skOKLIjvH6-37" value="No" style="ellipse;whiteSpace=wrap;html=1;align=center;" parent="0RCKadzTL1skOKLIjvH6-1" vertex="1">
          <mxGeometry x="150" y="235" width="40" height="20" as="geometry" />
        </mxCell>
        <mxCell id="0RCKadzTL1skOKLIjvH6-38" value="City" style="ellipse;whiteSpace=wrap;html=1;align=center;" parent="0RCKadzTL1skOKLIjvH6-1" vertex="1">
          <mxGeometry x="140" y="275" width="40" height="20" as="geometry" />
        </mxCell>
        <mxCell id="0RCKadzTL1skOKLIjvH6-39" value="Street" style="ellipse;whiteSpace=wrap;html=1;align=center;" parent="0RCKadzTL1skOKLIjvH6-1" vertex="1">
          <mxGeometry x="160" y="310" width="50" height="20" as="geometry" />
        </mxCell>
        <mxCell id="0RCKadzTL1skOKLIjvH6-40" style="rounded=0;orthogonalLoop=1;jettySize=auto;html=1;entryX=0.914;entryY=0.227;entryDx=0;entryDy=0;entryPerimeter=0;endArrow=none;startFill=0;" parent="0RCKadzTL1skOKLIjvH6-1" source="0RCKadzTL1skOKLIjvH6-3" target="0RCKadzTL1skOKLIjvH6-36" edge="1">
          <mxGeometry relative="1" as="geometry" />
        </mxCell>
        <mxCell id="0RCKadzTL1skOKLIjvH6-41" style="rounded=0;orthogonalLoop=1;jettySize=auto;html=1;entryX=0.931;entryY=0.245;entryDx=0;entryDy=0;entryPerimeter=0;endArrow=none;startFill=0;" parent="0RCKadzTL1skOKLIjvH6-1" source="0RCKadzTL1skOKLIjvH6-36" target="0RCKadzTL1skOKLIjvH6-38" edge="1">
          <mxGeometry relative="1" as="geometry" />
        </mxCell>
        <mxCell id="0RCKadzTL1skOKLIjvH6-42" style="rounded=0;orthogonalLoop=1;jettySize=auto;html=1;entryX=0.947;entryY=0.33;entryDx=0;entryDy=0;entryPerimeter=0;endArrow=none;startFill=0;" parent="0RCKadzTL1skOKLIjvH6-1" source="0RCKadzTL1skOKLIjvH6-36" target="0RCKadzTL1skOKLIjvH6-39" edge="1">
          <mxGeometry relative="1" as="geometry" />
        </mxCell>
        <mxCell id="0RCKadzTL1skOKLIjvH6-43" style="edgeStyle=none;rounded=0;orthogonalLoop=1;jettySize=auto;html=1;entryX=0;entryY=0.5;entryDx=0;entryDy=0;elbow=vertical;exitX=0.5;exitY=1;exitDx=0;exitDy=0;endArrow=none;endFill=1;startFill=0;" parent="0RCKadzTL1skOKLIjvH6-1" source="0RCKadzTL1skOKLIjvH6-49" target="0RCKadzTL1skOKLIjvH6-150" edge="1">
          <mxGeometry relative="1" as="geometry">
            <mxPoint x="220" y="1074.24" as="targetPoint" />
          </mxGeometry>
        </mxCell>
        <mxCell id="0RCKadzTL1skOKLIjvH6-44" value="1" style="edgeLabel;html=1;align=center;verticalAlign=middle;resizable=0;points=[];" parent="0RCKadzTL1skOKLIjvH6-43" vertex="1" connectable="0">
          <mxGeometry x="-0.787" y="-3" relative="1" as="geometry">
            <mxPoint as="offset" />
          </mxGeometry>
        </mxCell>
        <mxCell id="0RCKadzTL1skOKLIjvH6-45" style="edgeStyle=none;rounded=0;orthogonalLoop=1;jettySize=auto;html=1;entryX=0;entryY=0.5;entryDx=0;entryDy=0;elbow=vertical;endArrow=none;startFill=0;" parent="0RCKadzTL1skOKLIjvH6-1" source="0RCKadzTL1skOKLIjvH6-49" target="0RCKadzTL1skOKLIjvH6-153" edge="1">
          <mxGeometry relative="1" as="geometry" />
        </mxCell>
        <mxCell id="0RCKadzTL1skOKLIjvH6-46" value="N" style="edgeLabel;html=1;align=center;verticalAlign=middle;resizable=0;points=[];" parent="0RCKadzTL1skOKLIjvH6-45" vertex="1" connectable="0">
          <mxGeometry x="-0.6753" relative="1" as="geometry">
            <mxPoint as="offset" />
          </mxGeometry>
        </mxCell>
        <mxCell id="0RCKadzTL1skOKLIjvH6-47" value="" style="edgeStyle=none;rounded=0;orthogonalLoop=1;jettySize=auto;html=1;elbow=vertical;endArrow=none;startFill=0;" parent="0RCKadzTL1skOKLIjvH6-1" source="0RCKadzTL1skOKLIjvH6-49" target="0RCKadzTL1skOKLIjvH6-159" edge="1">
          <mxGeometry relative="1" as="geometry" />
        </mxCell>
        <mxCell id="0RCKadzTL1skOKLIjvH6-48" value="1" style="edgeLabel;html=1;align=center;verticalAlign=middle;resizable=0;points=[];" parent="0RCKadzTL1skOKLIjvH6-47" vertex="1" connectable="0">
          <mxGeometry x="-0.7481" y="-2" relative="1" as="geometry">
            <mxPoint as="offset" />
          </mxGeometry>
        </mxCell>
        <mxCell id="Y_suWjR1CYW-WI18Jgu0-27" style="edgeStyle=none;rounded=0;orthogonalLoop=1;jettySize=auto;html=1;" edge="1" parent="0RCKadzTL1skOKLIjvH6-1" source="0RCKadzTL1skOKLIjvH6-49">
          <mxGeometry relative="1" as="geometry">
            <mxPoint x="210" y="1050" as="targetPoint" />
          </mxGeometry>
        </mxCell>
        <mxCell id="0RCKadzTL1skOKLIjvH6-49" value="COURSE" style="rounded=0;whiteSpace=wrap;html=1;" parent="0RCKadzTL1skOKLIjvH6-1" vertex="1">
          <mxGeometry x="49.999999999999986" y="969.24" width="100" height="40" as="geometry" />
        </mxCell>
        <mxCell id="0RCKadzTL1skOKLIjvH6-50" style="edgeStyle=none;rounded=0;orthogonalLoop=1;jettySize=auto;html=1;endArrow=none;startFill=0;" parent="0RCKadzTL1skOKLIjvH6-1" source="0RCKadzTL1skOKLIjvH6-51" target="0RCKadzTL1skOKLIjvH6-49" edge="1">
          <mxGeometry relative="1" as="geometry" />
        </mxCell>
        <mxCell id="0RCKadzTL1skOKLIjvH6-51" value="&lt;u&gt;C_code&lt;/u&gt;" style="ellipse;whiteSpace=wrap;html=1;align=center;" parent="0RCKadzTL1skOKLIjvH6-1" vertex="1">
          <mxGeometry x="-65" y="949.24" width="70" height="30" as="geometry" />
        </mxCell>
        <mxCell id="0RCKadzTL1skOKLIjvH6-52" style="edgeStyle=none;rounded=0;orthogonalLoop=1;jettySize=auto;html=1;entryX=0;entryY=0.75;entryDx=0;entryDy=0;endArrow=none;startFill=0;" parent="0RCKadzTL1skOKLIjvH6-1" source="0RCKadzTL1skOKLIjvH6-53" target="0RCKadzTL1skOKLIjvH6-49" edge="1">
          <mxGeometry relative="1" as="geometry" />
        </mxCell>
        <mxCell id="0RCKadzTL1skOKLIjvH6-53" value="C_name" style="ellipse;whiteSpace=wrap;html=1;align=center;" parent="0RCKadzTL1skOKLIjvH6-1" vertex="1">
          <mxGeometry x="-65" y="999.24" width="70" height="30" as="geometry" />
        </mxCell>
        <mxCell id="0RCKadzTL1skOKLIjvH6-54" style="edgeStyle=none;rounded=0;orthogonalLoop=1;jettySize=auto;html=1;entryX=0.25;entryY=1;entryDx=0;entryDy=0;endArrow=none;startFill=0;" parent="0RCKadzTL1skOKLIjvH6-1" source="0RCKadzTL1skOKLIjvH6-55" target="0RCKadzTL1skOKLIjvH6-49" edge="1">
          <mxGeometry relative="1" as="geometry" />
        </mxCell>
        <mxCell id="0RCKadzTL1skOKLIjvH6-55" value="Credit" style="ellipse;whiteSpace=wrap;html=1;align=center;" parent="0RCKadzTL1skOKLIjvH6-1" vertex="1">
          <mxGeometry x="-20" y="1049.24" width="70" height="30" as="geometry" />
        </mxCell>
        <mxCell id="0RCKadzTL1skOKLIjvH6-56" value="Type (P/T)" style="ellipse;whiteSpace=wrap;html=1;align=center;" parent="0RCKadzTL1skOKLIjvH6-1" vertex="1">
          <mxGeometry x="222.75" y="988.2" width="70" height="30" as="geometry" />
        </mxCell>
        <mxCell id="0RCKadzTL1skOKLIjvH6-57" style="edgeStyle=none;rounded=0;orthogonalLoop=1;jettySize=auto;html=1;entryX=1;entryY=0.75;entryDx=0;entryDy=0;endArrow=none;startFill=0;" parent="0RCKadzTL1skOKLIjvH6-1" source="0RCKadzTL1skOKLIjvH6-56" target="0RCKadzTL1skOKLIjvH6-49" edge="1">
          <mxGeometry relative="1" as="geometry" />
        </mxCell>
        <mxCell id="0RCKadzTL1skOKLIjvH6-60" value="MEDICAL" style="rounded=0;whiteSpace=wrap;html=1;" parent="0RCKadzTL1skOKLIjvH6-1" vertex="1">
          <mxGeometry x="-510" y="983.2" width="100" height="40" as="geometry" />
        </mxCell>
        <mxCell id="0RCKadzTL1skOKLIjvH6-61" style="edgeStyle=none;rounded=0;orthogonalLoop=1;jettySize=auto;html=1;endArrow=none;startFill=0;" parent="0RCKadzTL1skOKLIjvH6-1" source="0RCKadzTL1skOKLIjvH6-62" target="0RCKadzTL1skOKLIjvH6-60" edge="1">
          <mxGeometry relative="1" as="geometry" />
        </mxCell>
        <mxCell id="0RCKadzTL1skOKLIjvH6-62" value="&lt;u&gt;Medical_id&lt;/u&gt;" style="ellipse;whiteSpace=wrap;html=1;align=center;" parent="0RCKadzTL1skOKLIjvH6-1" vertex="1">
          <mxGeometry x="-615" y="943.2" width="70" height="30" as="geometry" />
        </mxCell>
        <mxCell id="0RCKadzTL1skOKLIjvH6-63" style="edgeStyle=none;rounded=0;orthogonalLoop=1;jettySize=auto;html=1;entryX=0;entryY=0.5;entryDx=0;entryDy=0;endArrow=none;startFill=0;" parent="0RCKadzTL1skOKLIjvH6-1" source="0RCKadzTL1skOKLIjvH6-64" target="0RCKadzTL1skOKLIjvH6-60" edge="1">
          <mxGeometry relative="1" as="geometry" />
        </mxCell>
        <mxCell id="0RCKadzTL1skOKLIjvH6-64" value="Date_submitted" style="ellipse;whiteSpace=wrap;html=1;align=center;" parent="0RCKadzTL1skOKLIjvH6-1" vertex="1">
          <mxGeometry x="-645" y="993.2" width="100" height="30" as="geometry" />
        </mxCell>
        <mxCell id="0RCKadzTL1skOKLIjvH6-65" style="edgeStyle=none;rounded=0;orthogonalLoop=1;jettySize=auto;html=1;entryX=0.853;entryY=1.013;entryDx=0;entryDy=0;entryPerimeter=0;endArrow=none;startFill=0;" parent="0RCKadzTL1skOKLIjvH6-1" source="0RCKadzTL1skOKLIjvH6-66" target="0RCKadzTL1skOKLIjvH6-60" edge="1">
          <mxGeometry relative="1" as="geometry" />
        </mxCell>
        <mxCell id="0RCKadzTL1skOKLIjvH6-66" value="Status&lt;div&gt;&lt;font style=&quot;font-size: 7px;&quot;&gt;(Approved or not)&lt;/font&gt;&lt;/div&gt;" style="ellipse;whiteSpace=wrap;html=1;align=center;" parent="0RCKadzTL1skOKLIjvH6-1" vertex="1">
          <mxGeometry x="-463" y="1063.2" width="90" height="40" as="geometry" />
        </mxCell>
        <mxCell id="0RCKadzTL1skOKLIjvH6-69" value="EXAM" style="rounded=0;whiteSpace=wrap;html=1;" parent="0RCKadzTL1skOKLIjvH6-1" vertex="1">
          <mxGeometry x="665" y="824.75" width="100" height="40" as="geometry" />
        </mxCell>
        <mxCell id="0RCKadzTL1skOKLIjvH6-70" style="edgeStyle=none;rounded=0;orthogonalLoop=1;jettySize=auto;html=1;endArrow=none;startFill=0;" parent="0RCKadzTL1skOKLIjvH6-1" source="0RCKadzTL1skOKLIjvH6-71" target="0RCKadzTL1skOKLIjvH6-69" edge="1">
          <mxGeometry relative="1" as="geometry" />
        </mxCell>
        <mxCell id="0RCKadzTL1skOKLIjvH6-71" value="&lt;u&gt;Exam_id&lt;/u&gt;" style="ellipse;whiteSpace=wrap;html=1;align=center;" parent="0RCKadzTL1skOKLIjvH6-1" vertex="1">
          <mxGeometry x="550" y="829.75" width="70" height="30" as="geometry" />
        </mxCell>
        <mxCell id="0RCKadzTL1skOKLIjvH6-72" style="edgeStyle=none;rounded=0;orthogonalLoop=1;jettySize=auto;html=1;entryX=0.25;entryY=1;entryDx=0;entryDy=0;endArrow=none;startFill=0;" parent="0RCKadzTL1skOKLIjvH6-1" source="0RCKadzTL1skOKLIjvH6-73" target="0RCKadzTL1skOKLIjvH6-69" edge="1">
          <mxGeometry relative="1" as="geometry" />
        </mxCell>
        <mxCell id="0RCKadzTL1skOKLIjvH6-73" value="C_code" style="ellipse;whiteSpace=wrap;html=1;align=center;fillColor=#008a00;fontColor=#ffffff;strokeColor=#005700;" parent="0RCKadzTL1skOKLIjvH6-1" vertex="1">
          <mxGeometry x="570" y="884.75" width="60" height="30" as="geometry" />
        </mxCell>
        <mxCell id="0RCKadzTL1skOKLIjvH6-74" style="edgeStyle=none;rounded=0;orthogonalLoop=1;jettySize=auto;html=1;entryX=0.636;entryY=0.983;entryDx=0;entryDy=0;entryPerimeter=0;endArrow=none;startFill=0;" parent="0RCKadzTL1skOKLIjvH6-1" target="0RCKadzTL1skOKLIjvH6-69" edge="1">
          <mxGeometry relative="1" as="geometry">
            <mxPoint x="715" y="894.75" as="sourcePoint" />
          </mxGeometry>
        </mxCell>
        <mxCell id="0RCKadzTL1skOKLIjvH6-75" value="Exam_date" style="ellipse;whiteSpace=wrap;html=1;align=center;" parent="0RCKadzTL1skOKLIjvH6-1" vertex="1">
          <mxGeometry x="665" y="894.75" width="85" height="35" as="geometry" />
        </mxCell>
        <mxCell id="0RCKadzTL1skOKLIjvH6-77" value="Exam_type" style="ellipse;whiteSpace=wrap;html=1;align=center;" parent="0RCKadzTL1skOKLIjvH6-1" vertex="1">
          <mxGeometry x="765" y="899.75" width="85" height="35" as="geometry" />
        </mxCell>
        <mxCell id="0RCKadzTL1skOKLIjvH6-78" style="edgeStyle=none;rounded=0;orthogonalLoop=1;jettySize=auto;html=1;entryX=0.999;entryY=0.931;entryDx=0;entryDy=0;entryPerimeter=0;endArrow=none;startFill=0;" parent="0RCKadzTL1skOKLIjvH6-1" target="0RCKadzTL1skOKLIjvH6-69" edge="1">
          <mxGeometry relative="1" as="geometry">
            <mxPoint x="795" y="900.75" as="sourcePoint" />
          </mxGeometry>
        </mxCell>
        <mxCell id="0RCKadzTL1skOKLIjvH6-90" value="ATTENDANCE" style="shape=ext;margin=3;double=1;whiteSpace=wrap;html=1;align=center;" parent="0RCKadzTL1skOKLIjvH6-1" vertex="1">
          <mxGeometry x="-322" y="1286.92" width="100" height="40" as="geometry" />
        </mxCell>
        <mxCell id="0RCKadzTL1skOKLIjvH6-93" style="edgeStyle=none;rounded=0;orthogonalLoop=1;jettySize=auto;html=1;entryX=0.463;entryY=1.016;entryDx=0;entryDy=0;endArrow=none;startFill=0;entryPerimeter=0;" parent="0RCKadzTL1skOKLIjvH6-1" source="0RCKadzTL1skOKLIjvH6-94" target="0RCKadzTL1skOKLIjvH6-90" edge="1">
          <mxGeometry relative="1" as="geometry" />
        </mxCell>
        <mxCell id="0RCKadzTL1skOKLIjvH6-94" value="User_id" style="ellipse;whiteSpace=wrap;html=1;align=center;fontStyle=4" parent="0RCKadzTL1skOKLIjvH6-1" vertex="1">
          <mxGeometry x="-277" y="1386.92" width="60" height="30" as="geometry" />
        </mxCell>
        <mxCell id="0RCKadzTL1skOKLIjvH6-95" style="edgeStyle=none;rounded=0;orthogonalLoop=1;jettySize=auto;html=1;entryX=0.619;entryY=1.003;entryDx=0;entryDy=0;entryPerimeter=0;endArrow=none;startFill=0;" parent="0RCKadzTL1skOKLIjvH6-1" source="0RCKadzTL1skOKLIjvH6-96" target="0RCKadzTL1skOKLIjvH6-90" edge="1">
          <mxGeometry relative="1" as="geometry">
            <mxPoint x="-237" y="1331.92" as="targetPoint" />
          </mxGeometry>
        </mxCell>
        <mxCell id="0RCKadzTL1skOKLIjvH6-96" value="Session_id" style="ellipse;whiteSpace=wrap;html=1;align=center;fillColor=#008a00;fontColor=#ffffff;strokeColor=#005700;" parent="0RCKadzTL1skOKLIjvH6-1" vertex="1">
          <mxGeometry x="-192" y="1366.92" width="90" height="40" as="geometry" />
        </mxCell>
        <mxCell id="0RCKadzTL1skOKLIjvH6-97" style="edgeStyle=none;rounded=0;orthogonalLoop=1;jettySize=auto;html=1;entryX=0;entryY=0.75;entryDx=0;entryDy=0;endArrow=none;startFill=0;" parent="0RCKadzTL1skOKLIjvH6-1" source="0RCKadzTL1skOKLIjvH6-98" target="0RCKadzTL1skOKLIjvH6-90" edge="1">
          <mxGeometry relative="1" as="geometry" />
        </mxCell>
        <mxCell id="0RCKadzTL1skOKLIjvH6-98" value="Status&lt;div&gt;&lt;font style=&quot;font-size: 10px;&quot;&gt;(present/not)&lt;/font&gt;&lt;/div&gt;" style="ellipse;whiteSpace=wrap;html=1;align=center;" parent="0RCKadzTL1skOKLIjvH6-1" vertex="1">
          <mxGeometry x="-480" y="1300" width="80" height="45" as="geometry" />
        </mxCell>
        <mxCell id="0RCKadzTL1skOKLIjvH6-99" style="edgeStyle=none;rounded=0;orthogonalLoop=1;jettySize=auto;html=1;endArrow=none;startFill=0;entryX=0;entryY=0;entryDx=0;entryDy=0;" parent="0RCKadzTL1skOKLIjvH6-1" source="0RCKadzTL1skOKLIjvH6-100" target="0RCKadzTL1skOKLIjvH6-90" edge="1">
          <mxGeometry relative="1" as="geometry" />
        </mxCell>
        <mxCell id="0RCKadzTL1skOKLIjvH6-100" value="C_code" style="ellipse;whiteSpace=wrap;html=1;align=center;fontStyle=4" parent="0RCKadzTL1skOKLIjvH6-1" vertex="1">
          <mxGeometry x="-430" y="1229.22" width="90" height="40" as="geometry" />
        </mxCell>
        <mxCell id="0RCKadzTL1skOKLIjvH6-101" value="" style="edgeStyle=none;rounded=0;orthogonalLoop=1;jettySize=auto;html=1;elbow=vertical;endArrow=none;startFill=0;" parent="0RCKadzTL1skOKLIjvH6-1" source="0RCKadzTL1skOKLIjvH6-103" target="0RCKadzTL1skOKLIjvH6-168" edge="1">
          <mxGeometry relative="1" as="geometry" />
        </mxCell>
        <mxCell id="0RCKadzTL1skOKLIjvH6-102" value="1" style="edgeLabel;html=1;align=center;verticalAlign=middle;resizable=0;points=[];" parent="0RCKadzTL1skOKLIjvH6-101" vertex="1" connectable="0">
          <mxGeometry x="-0.6977" relative="1" as="geometry">
            <mxPoint as="offset" />
          </mxGeometry>
        </mxCell>
        <mxCell id="0RCKadzTL1skOKLIjvH6-103" value="SESSION" style="rounded=0;whiteSpace=wrap;html=1;" parent="0RCKadzTL1skOKLIjvH6-1" vertex="1">
          <mxGeometry x="174" y="1189.22" width="100" height="40" as="geometry" />
        </mxCell>
        <mxCell id="0RCKadzTL1skOKLIjvH6-104" style="edgeStyle=none;rounded=0;orthogonalLoop=1;jettySize=auto;html=1;endArrow=none;startFill=0;" parent="0RCKadzTL1skOKLIjvH6-1" source="0RCKadzTL1skOKLIjvH6-105" target="0RCKadzTL1skOKLIjvH6-103" edge="1">
          <mxGeometry relative="1" as="geometry" />
        </mxCell>
        <mxCell id="0RCKadzTL1skOKLIjvH6-105" value="&lt;u&gt;Session_id&lt;/u&gt;" style="ellipse;whiteSpace=wrap;html=1;align=center;" parent="0RCKadzTL1skOKLIjvH6-1" vertex="1">
          <mxGeometry x="39" y="1194.22" width="90" height="30" as="geometry" />
        </mxCell>
        <mxCell id="0RCKadzTL1skOKLIjvH6-106" style="edgeStyle=none;rounded=0;orthogonalLoop=1;jettySize=auto;html=1;entryX=0.25;entryY=1;entryDx=0;entryDy=0;endArrow=none;startFill=0;" parent="0RCKadzTL1skOKLIjvH6-1" source="0RCKadzTL1skOKLIjvH6-107" target="0RCKadzTL1skOKLIjvH6-103" edge="1">
          <mxGeometry relative="1" as="geometry" />
        </mxCell>
        <mxCell id="0RCKadzTL1skOKLIjvH6-107" value="C_code" style="ellipse;whiteSpace=wrap;html=1;align=center;" parent="0RCKadzTL1skOKLIjvH6-1" vertex="1">
          <mxGeometry x="99" y="1259.22" width="60" height="30" as="geometry" />
        </mxCell>
        <mxCell id="0RCKadzTL1skOKLIjvH6-110" style="edgeStyle=none;rounded=0;orthogonalLoop=1;jettySize=auto;html=1;entryX=1;entryY=1;entryDx=0;entryDy=0;endArrow=none;startFill=0;" parent="0RCKadzTL1skOKLIjvH6-1" source="0RCKadzTL1skOKLIjvH6-111" target="0RCKadzTL1skOKLIjvH6-103" edge="1">
          <mxGeometry relative="1" as="geometry" />
        </mxCell>
        <mxCell id="0RCKadzTL1skOKLIjvH6-111" value="Date" style="ellipse;whiteSpace=wrap;html=1;align=center;" parent="0RCKadzTL1skOKLIjvH6-1" vertex="1">
          <mxGeometry x="309" y="1254.22" width="51" height="30" as="geometry" />
        </mxCell>
        <mxCell id="0RCKadzTL1skOKLIjvH6-112" style="edgeStyle=none;rounded=0;orthogonalLoop=1;jettySize=auto;html=1;endArrow=none;startFill=0;" parent="0RCKadzTL1skOKLIjvH6-1" source="0RCKadzTL1skOKLIjvH6-113" target="0RCKadzTL1skOKLIjvH6-103" edge="1">
          <mxGeometry relative="1" as="geometry" />
        </mxCell>
        <mxCell id="0RCKadzTL1skOKLIjvH6-113" value="Type&amp;nbsp;&lt;br&gt;&lt;font style=&quot;font-size: 8px;&quot;&gt;(P/T)&lt;/font&gt;" style="ellipse;whiteSpace=wrap;html=1;align=center;" parent="0RCKadzTL1skOKLIjvH6-1" vertex="1">
          <mxGeometry x="330" y="1184.22" width="60" height="40" as="geometry" />
        </mxCell>
        <mxCell id="0RCKadzTL1skOKLIjvH6-114" value="MARK" style="shape=ext;margin=3;double=1;whiteSpace=wrap;html=1;align=center;" parent="0RCKadzTL1skOKLIjvH6-1" vertex="1">
          <mxGeometry x="-680" y="605" width="100" height="40" as="geometry" />
        </mxCell>
        <mxCell id="0RCKadzTL1skOKLIjvH6-117" style="edgeStyle=none;rounded=0;orthogonalLoop=1;jettySize=auto;html=1;entryX=0;entryY=0.5;entryDx=0;entryDy=0;endArrow=none;startFill=0;" parent="0RCKadzTL1skOKLIjvH6-1" source="0RCKadzTL1skOKLIjvH6-118" target="0RCKadzTL1skOKLIjvH6-114" edge="1">
          <mxGeometry relative="1" as="geometry" />
        </mxCell>
        <mxCell id="0RCKadzTL1skOKLIjvH6-118" value="&lt;span&gt;Exam_id&lt;/span&gt;" style="ellipse;whiteSpace=wrap;html=1;align=center;fontStyle=4" parent="0RCKadzTL1skOKLIjvH6-1" vertex="1">
          <mxGeometry x="-770" y="620" width="60" height="30" as="geometry" />
        </mxCell>
        <mxCell id="0RCKadzTL1skOKLIjvH6-119" style="edgeStyle=none;rounded=0;orthogonalLoop=1;jettySize=auto;html=1;entryX=0.038;entryY=1.009;entryDx=0;entryDy=0;entryPerimeter=0;endArrow=none;startFill=0;" parent="0RCKadzTL1skOKLIjvH6-1" source="0RCKadzTL1skOKLIjvH6-120" target="0RCKadzTL1skOKLIjvH6-114" edge="1">
          <mxGeometry relative="1" as="geometry">
            <mxPoint x="-595" y="650" as="targetPoint" />
          </mxGeometry>
        </mxCell>
        <mxCell id="0RCKadzTL1skOKLIjvH6-120" value="&lt;span&gt;User_id&lt;/span&gt;" style="ellipse;whiteSpace=wrap;html=1;align=center;fontStyle=4" parent="0RCKadzTL1skOKLIjvH6-1" vertex="1">
          <mxGeometry x="-720" y="680" width="75" height="30" as="geometry" />
        </mxCell>
        <mxCell id="0RCKadzTL1skOKLIjvH6-121" style="edgeStyle=none;rounded=0;orthogonalLoop=1;jettySize=auto;html=1;entryX=1;entryY=1;entryDx=0;entryDy=0;endArrow=none;startFill=0;" parent="0RCKadzTL1skOKLIjvH6-1" source="0RCKadzTL1skOKLIjvH6-122" target="0RCKadzTL1skOKLIjvH6-114" edge="1">
          <mxGeometry relative="1" as="geometry" />
        </mxCell>
        <mxCell id="0RCKadzTL1skOKLIjvH6-122" value="Marks" style="ellipse;whiteSpace=wrap;html=1;align=center;" parent="0RCKadzTL1skOKLIjvH6-1" vertex="1">
          <mxGeometry x="-580" y="677.5" width="70" height="35" as="geometry" />
        </mxCell>
        <mxCell id="0RCKadzTL1skOKLIjvH6-123" style="edgeStyle=none;rounded=0;orthogonalLoop=1;jettySize=auto;html=1;entryX=0.5;entryY=0;entryDx=0;entryDy=0;endArrow=none;startFill=0;" parent="0RCKadzTL1skOKLIjvH6-1" source="0RCKadzTL1skOKLIjvH6-125" target="0RCKadzTL1skOKLIjvH6-49" edge="1">
          <mxGeometry relative="1" as="geometry" />
        </mxCell>
        <mxCell id="0RCKadzTL1skOKLIjvH6-124" value="M" style="edgeLabel;html=1;align=center;verticalAlign=middle;resizable=0;points=[];" parent="0RCKadzTL1skOKLIjvH6-123" vertex="1" connectable="0">
          <mxGeometry x="0.4484" y="-1" relative="1" as="geometry">
            <mxPoint x="9" y="27" as="offset" />
          </mxGeometry>
        </mxCell>
        <mxCell id="0RCKadzTL1skOKLIjvH6-125" value="ENROLLS_IN" style="rhombus;whiteSpace=wrap;html=1;" parent="0RCKadzTL1skOKLIjvH6-1" vertex="1">
          <mxGeometry x="-18.75" y="695" width="132.5" height="60" as="geometry" />
        </mxCell>
        <mxCell id="0RCKadzTL1skOKLIjvH6-126" style="edgeStyle=none;rounded=0;orthogonalLoop=1;jettySize=auto;html=1;endArrow=none;startFill=0;" parent="0RCKadzTL1skOKLIjvH6-1" source="0RCKadzTL1skOKLIjvH6-127" target="0RCKadzTL1skOKLIjvH6-125" edge="1">
          <mxGeometry relative="1" as="geometry" />
        </mxCell>
        <mxCell id="0RCKadzTL1skOKLIjvH6-127" value="Academic_yr" style="ellipse;whiteSpace=wrap;html=1;align=center;" parent="0RCKadzTL1skOKLIjvH6-1" vertex="1">
          <mxGeometry x="100" y="765" width="90" height="35" as="geometry" />
        </mxCell>
        <mxCell id="0RCKadzTL1skOKLIjvH6-128" value="Sem" style="ellipse;whiteSpace=wrap;html=1;align=center;" parent="0RCKadzTL1skOKLIjvH6-1" vertex="1">
          <mxGeometry x="-5" y="780" width="40" height="20" as="geometry" />
        </mxCell>
        <mxCell id="0RCKadzTL1skOKLIjvH6-129" style="edgeStyle=none;rounded=0;orthogonalLoop=1;jettySize=auto;html=1;entryX=0.121;entryY=0.632;entryDx=0;entryDy=0;entryPerimeter=0;endArrow=none;startFill=0;" parent="0RCKadzTL1skOKLIjvH6-1" source="0RCKadzTL1skOKLIjvH6-128" target="0RCKadzTL1skOKLIjvH6-125" edge="1">
          <mxGeometry relative="1" as="geometry" />
        </mxCell>
        <mxCell id="0RCKadzTL1skOKLIjvH6-130" value="Status" style="ellipse;whiteSpace=wrap;html=1;align=center;" parent="0RCKadzTL1skOKLIjvH6-1" vertex="1">
          <mxGeometry x="-130" y="687.5" width="70" height="32.5" as="geometry" />
        </mxCell>
        <mxCell id="0RCKadzTL1skOKLIjvH6-131" style="edgeStyle=none;rounded=0;orthogonalLoop=1;jettySize=auto;html=1;entryX=0.068;entryY=0.436;entryDx=0;entryDy=0;entryPerimeter=0;endArrow=none;startFill=0;" parent="0RCKadzTL1skOKLIjvH6-1" source="0RCKadzTL1skOKLIjvH6-130" target="0RCKadzTL1skOKLIjvH6-125" edge="1">
          <mxGeometry relative="1" as="geometry" />
        </mxCell>
        <mxCell id="0RCKadzTL1skOKLIjvH6-150" value="HAS" style="rhombus;whiteSpace=wrap;html=1;" parent="0RCKadzTL1skOKLIjvH6-1" vertex="1">
          <mxGeometry x="113.75" y="1073.98" width="112.5" height="50" as="geometry" />
        </mxCell>
        <mxCell id="0RCKadzTL1skOKLIjvH6-151" style="edgeStyle=none;rounded=0;orthogonalLoop=1;jettySize=auto;html=1;entryX=1;entryY=0.5;entryDx=0;entryDy=0;elbow=vertical;endArrow=none;endFill=1;startFill=0;" parent="0RCKadzTL1skOKLIjvH6-1" source="0RCKadzTL1skOKLIjvH6-103" target="0RCKadzTL1skOKLIjvH6-150" edge="1">
          <mxGeometry relative="1" as="geometry" />
        </mxCell>
        <mxCell id="0RCKadzTL1skOKLIjvH6-152" value="M" style="edgeLabel;html=1;align=center;verticalAlign=middle;resizable=0;points=[];" parent="0RCKadzTL1skOKLIjvH6-151" vertex="1" connectable="0">
          <mxGeometry x="-0.7848" y="2" relative="1" as="geometry">
            <mxPoint as="offset" />
          </mxGeometry>
        </mxCell>
        <mxCell id="0RCKadzTL1skOKLIjvH6-153" value="TEACHES" style="rhombus;whiteSpace=wrap;html=1;" parent="0RCKadzTL1skOKLIjvH6-1" vertex="1">
          <mxGeometry x="260" y="757.5" width="112.5" height="50" as="geometry" />
        </mxCell>
        <mxCell id="0RCKadzTL1skOKLIjvH6-154" style="edgeStyle=none;rounded=0;orthogonalLoop=1;jettySize=auto;html=1;entryX=0.25;entryY=0;entryDx=0;entryDy=0;elbow=vertical;endArrow=none;startFill=0;" parent="0RCKadzTL1skOKLIjvH6-1" source="0RCKadzTL1skOKLIjvH6-156" target="0RCKadzTL1skOKLIjvH6-60" edge="1">
          <mxGeometry relative="1" as="geometry" />
        </mxCell>
        <mxCell id="0RCKadzTL1skOKLIjvH6-155" value="M" style="edgeLabel;html=1;align=center;verticalAlign=middle;resizable=0;points=[];" parent="0RCKadzTL1skOKLIjvH6-154" vertex="1" connectable="0">
          <mxGeometry x="0.5698" y="-3" relative="1" as="geometry">
            <mxPoint x="14" y="20" as="offset" />
          </mxGeometry>
        </mxCell>
        <mxCell id="0RCKadzTL1skOKLIjvH6-156" value="SUBMITS" style="rhombus;whiteSpace=wrap;html=1;rounded=0;" parent="0RCKadzTL1skOKLIjvH6-1" vertex="1">
          <mxGeometry x="-540" y="770" width="121" height="55" as="geometry" />
        </mxCell>
        <mxCell id="0RCKadzTL1skOKLIjvH6-157" style="edgeStyle=none;rounded=0;orthogonalLoop=1;jettySize=auto;html=1;entryX=0;entryY=0.75;entryDx=0;entryDy=0;elbow=vertical;endArrow=none;startFill=0;" parent="0RCKadzTL1skOKLIjvH6-1" source="0RCKadzTL1skOKLIjvH6-159" target="0RCKadzTL1skOKLIjvH6-69" edge="1">
          <mxGeometry relative="1" as="geometry" />
        </mxCell>
        <mxCell id="0RCKadzTL1skOKLIjvH6-158" value="N" style="edgeLabel;html=1;align=center;verticalAlign=middle;resizable=0;points=[];" parent="0RCKadzTL1skOKLIjvH6-157" vertex="1" connectable="0">
          <mxGeometry x="0.8389" y="-6" relative="1" as="geometry">
            <mxPoint as="offset" />
          </mxGeometry>
        </mxCell>
        <mxCell id="0RCKadzTL1skOKLIjvH6-159" value="HAS" style="rhombus;whiteSpace=wrap;html=1;rounded=0;" parent="0RCKadzTL1skOKLIjvH6-1" vertex="1">
          <mxGeometry x="330" y="899.75" width="120" height="51.02" as="geometry" />
        </mxCell>
        <mxCell id="0RCKadzTL1skOKLIjvH6-160" style="edgeStyle=none;rounded=0;orthogonalLoop=1;jettySize=auto;html=1;entryX=0.5;entryY=0;entryDx=0;entryDy=0;elbow=vertical;endArrow=none;startFill=0;exitX=0.5;exitY=1;exitDx=0;exitDy=0;" parent="0RCKadzTL1skOKLIjvH6-1" source="0RCKadzTL1skOKLIjvH6-162" target="0RCKadzTL1skOKLIjvH6-90" edge="1">
          <mxGeometry relative="1" as="geometry" />
        </mxCell>
        <mxCell id="0RCKadzTL1skOKLIjvH6-161" value="M" style="edgeLabel;html=1;align=center;verticalAlign=middle;resizable=0;points=[];" parent="0RCKadzTL1skOKLIjvH6-160" vertex="1" connectable="0">
          <mxGeometry x="0.8634" y="3" relative="1" as="geometry">
            <mxPoint as="offset" />
          </mxGeometry>
        </mxCell>
        <mxCell id="0RCKadzTL1skOKLIjvH6-162" value="HAS" style="shape=rhombus;double=1;perimeter=rhombusPerimeter;whiteSpace=wrap;html=1;align=center;" parent="0RCKadzTL1skOKLIjvH6-1" vertex="1">
          <mxGeometry x="-270" y="973.2" width="100" height="45" as="geometry" />
        </mxCell>
        <mxCell id="0RCKadzTL1skOKLIjvH6-166" style="edgeStyle=none;rounded=0;orthogonalLoop=1;jettySize=auto;html=1;elbow=vertical;endArrow=none;startFill=0;" parent="0RCKadzTL1skOKLIjvH6-1" source="0RCKadzTL1skOKLIjvH6-168" target="0RCKadzTL1skOKLIjvH6-90" edge="1">
          <mxGeometry relative="1" as="geometry" />
        </mxCell>
        <mxCell id="0RCKadzTL1skOKLIjvH6-167" value="M" style="edgeLabel;html=1;align=center;verticalAlign=middle;resizable=0;points=[];" parent="0RCKadzTL1skOKLIjvH6-166" vertex="1" connectable="0">
          <mxGeometry x="0.4458" relative="1" as="geometry">
            <mxPoint as="offset" />
          </mxGeometry>
        </mxCell>
        <mxCell id="0RCKadzTL1skOKLIjvH6-168" value="HAS" style="rhombus;whiteSpace=wrap;html=1;rounded=0;" parent="0RCKadzTL1skOKLIjvH6-1" vertex="1">
          <mxGeometry x="180" y="1311.02" width="79.5" height="41.8" as="geometry" />
        </mxCell>
        <mxCell id="Y_suWjR1CYW-WI18Jgu0-19" style="edgeStyle=none;rounded=0;orthogonalLoop=1;jettySize=auto;html=1;entryX=0;entryY=0.75;entryDx=0;entryDy=0;endArrow=none;endFill=0;exitX=1;exitY=0.5;exitDx=0;exitDy=0;" edge="1" parent="0RCKadzTL1skOKLIjvH6-1" source="0RCKadzTL1skOKLIjvH6-171" target="0RCKadzTL1skOKLIjvH6-16">
          <mxGeometry relative="1" as="geometry" />
        </mxCell>
        <mxCell id="Y_suWjR1CYW-WI18Jgu0-22" value="1" style="edgeLabel;html=1;align=center;verticalAlign=middle;resizable=0;points=[];" vertex="1" connectable="0" parent="Y_suWjR1CYW-WI18Jgu0-19">
          <mxGeometry x="0.6656" y="1" relative="1" as="geometry">
            <mxPoint as="offset" />
          </mxGeometry>
        </mxCell>
        <mxCell id="0RCKadzTL1skOKLIjvH6-171" value="HAS" style="shape=rhombus;double=1;perimeter=rhombusPerimeter;whiteSpace=wrap;html=1;align=center;" parent="0RCKadzTL1skOKLIjvH6-1" vertex="1">
          <mxGeometry x="-508" y="540" width="95" height="40" as="geometry" />
        </mxCell>
        <mxCell id="0RCKadzTL1skOKLIjvH6-174" style="rounded=0;orthogonalLoop=1;jettySize=auto;html=1;entryX=0;entryY=1;entryDx=0;entryDy=0;endArrow=none;endFill=0;" parent="0RCKadzTL1skOKLIjvH6-1" source="0RCKadzTL1skOKLIjvH6-175" target="0RCKadzTL1skOKLIjvH6-60" edge="1">
          <mxGeometry relative="1" as="geometry" />
        </mxCell>
        <mxCell id="0RCKadzTL1skOKLIjvH6-175" value="User_id" style="ellipse;whiteSpace=wrap;html=1;align=center;fillColor=#008a00;fontColor=#ffffff;strokeColor=#005700;" parent="0RCKadzTL1skOKLIjvH6-1" vertex="1">
          <mxGeometry x="-559.5" y="1055.7" width="49.5" height="30" as="geometry" />
        </mxCell>
        <mxCell id="0RCKadzTL1skOKLIjvH6-178" style="rounded=0;orthogonalLoop=1;jettySize=auto;html=1;entryX=1;entryY=0.5;entryDx=0;entryDy=0;endArrow=none;endFill=0;" parent="0RCKadzTL1skOKLIjvH6-1" source="0RCKadzTL1skOKLIjvH6-179" target="0RCKadzTL1skOKLIjvH6-69" edge="1">
          <mxGeometry relative="1" as="geometry" />
        </mxCell>
        <mxCell id="0RCKadzTL1skOKLIjvH6-179" value="Total_mark" style="ellipse;whiteSpace=wrap;html=1;align=center;" parent="0RCKadzTL1skOKLIjvH6-1" vertex="1">
          <mxGeometry x="820" y="834.75" width="70" height="30" as="geometry" />
        </mxCell>
        <mxCell id="Y_suWjR1CYW-WI18Jgu0-13" style="edgeStyle=none;rounded=0;orthogonalLoop=1;jettySize=auto;html=1;exitX=0.5;exitY=1;exitDx=0;exitDy=0;" edge="1" parent="0RCKadzTL1skOKLIjvH6-1" source="hEPUDwOpI7Vbl83t5lPr-5">
          <mxGeometry relative="1" as="geometry">
            <mxPoint x="-760" y="870.0000000000002" as="targetPoint" />
          </mxGeometry>
        </mxCell>
        <mxCell id="hEPUDwOpI7Vbl83t5lPr-5" value="Entity" style="shape=ext;margin=3;double=1;whiteSpace=wrap;html=1;align=center;" vertex="1" parent="0RCKadzTL1skOKLIjvH6-1">
          <mxGeometry x="-800" y="830" width="100" height="40" as="geometry" />
        </mxCell>
        <mxCell id="hEPUDwOpI7Vbl83t5lPr-6" value="Relationship" style="shape=rhombus;double=1;perimeter=rhombusPerimeter;whiteSpace=wrap;html=1;align=center;" vertex="1" parent="0RCKadzTL1skOKLIjvH6-1">
          <mxGeometry x="-800" y="948.98" width="120" height="60" as="geometry" />
        </mxCell>
        <mxCell id="hEPUDwOpI7Vbl83t5lPr-7" value="Dpt Name" style="ellipse;whiteSpace=wrap;html=1;align=center;" vertex="1" parent="0RCKadzTL1skOKLIjvH6-1">
          <mxGeometry x="540" y="600" width="63.5" height="30" as="geometry" />
        </mxCell>
        <mxCell id="hEPUDwOpI7Vbl83t5lPr-8" style="rounded=0;orthogonalLoop=1;jettySize=auto;html=1;entryX=0.574;entryY=1.059;entryDx=0;entryDy=0;entryPerimeter=0;endArrow=none;endFill=0;" edge="1" parent="0RCKadzTL1skOKLIjvH6-1" source="hEPUDwOpI7Vbl83t5lPr-7" target="0RCKadzTL1skOKLIjvH6-21">
          <mxGeometry relative="1" as="geometry" />
        </mxCell>
        <mxCell id="hEPUDwOpI7Vbl83t5lPr-10" style="rounded=0;orthogonalLoop=1;jettySize=auto;html=1;entryX=0;entryY=0.5;entryDx=0;entryDy=0;endArrow=none;endFill=0;" edge="1" parent="0RCKadzTL1skOKLIjvH6-1" source="hEPUDwOpI7Vbl83t5lPr-9" target="0RCKadzTL1skOKLIjvH6-16">
          <mxGeometry relative="1" as="geometry" />
        </mxCell>
        <mxCell id="hEPUDwOpI7Vbl83t5lPr-9" value="User_id" style="ellipse;whiteSpace=wrap;html=1;align=center;fontStyle=4" vertex="1" parent="0RCKadzTL1skOKLIjvH6-1">
          <mxGeometry x="-390" y="450" width="75" height="30" as="geometry" />
        </mxCell>
        <mxCell id="hEPUDwOpI7Vbl83t5lPr-21" style="edgeStyle=none;rounded=0;orthogonalLoop=1;jettySize=auto;html=1;entryX=0.25;entryY=1;entryDx=0;entryDy=0;endArrow=none;endFill=0;" edge="1" parent="0RCKadzTL1skOKLIjvH6-1" source="hEPUDwOpI7Vbl83t5lPr-11" target="0RCKadzTL1skOKLIjvH6-17">
          <mxGeometry relative="1" as="geometry" />
        </mxCell>
        <mxCell id="hEPUDwOpI7Vbl83t5lPr-11" value="User_id" style="ellipse;whiteSpace=wrap;html=1;align=center;fontStyle=4" vertex="1" parent="0RCKadzTL1skOKLIjvH6-1">
          <mxGeometry x="60" y="585" width="65" height="30" as="geometry" />
        </mxCell>
        <mxCell id="hEPUDwOpI7Vbl83t5lPr-20" style="edgeStyle=none;rounded=0;orthogonalLoop=1;jettySize=auto;html=1;entryX=0.25;entryY=1;entryDx=0;entryDy=0;endArrow=none;endFill=0;" edge="1" parent="0RCKadzTL1skOKLIjvH6-1" source="hEPUDwOpI7Vbl83t5lPr-13" target="0RCKadzTL1skOKLIjvH6-18">
          <mxGeometry relative="1" as="geometry" />
        </mxCell>
        <mxCell id="hEPUDwOpI7Vbl83t5lPr-13" value="User_id" style="ellipse;whiteSpace=wrap;html=1;align=center;fontStyle=4" vertex="1" parent="0RCKadzTL1skOKLIjvH6-1">
          <mxGeometry x="290" y="590" width="65" height="30" as="geometry" />
        </mxCell>
        <mxCell id="hEPUDwOpI7Vbl83t5lPr-18" style="edgeStyle=none;rounded=0;orthogonalLoop=1;jettySize=auto;html=1;endArrow=none;endFill=0;" edge="1" parent="0RCKadzTL1skOKLIjvH6-1" source="hEPUDwOpI7Vbl83t5lPr-14">
          <mxGeometry relative="1" as="geometry">
            <mxPoint x="697.5" y="550" as="targetPoint" />
          </mxGeometry>
        </mxCell>
        <mxCell id="hEPUDwOpI7Vbl83t5lPr-14" value="User_id" style="ellipse;whiteSpace=wrap;html=1;align=center;fontStyle=4" vertex="1" parent="0RCKadzTL1skOKLIjvH6-1">
          <mxGeometry x="665" y="612" width="65" height="30" as="geometry" />
        </mxCell>
        <mxCell id="hEPUDwOpI7Vbl83t5lPr-19" style="edgeStyle=none;rounded=0;orthogonalLoop=1;jettySize=auto;html=1;entryX=0.5;entryY=1;entryDx=0;entryDy=0;endArrow=none;endFill=0;" edge="1" parent="0RCKadzTL1skOKLIjvH6-1" source="hEPUDwOpI7Vbl83t5lPr-17" target="0RCKadzTL1skOKLIjvH6-21">
          <mxGeometry relative="1" as="geometry" />
        </mxCell>
        <mxCell id="hEPUDwOpI7Vbl83t5lPr-17" value="User_id" style="ellipse;whiteSpace=wrap;html=1;align=center;fontStyle=4" vertex="1" parent="0RCKadzTL1skOKLIjvH6-1">
          <mxGeometry x="485" y="642" width="65" height="30" as="geometry" />
        </mxCell>
        <mxCell id="Y_suWjR1CYW-WI18Jgu0-1" style="edgeStyle=none;rounded=0;orthogonalLoop=1;jettySize=auto;html=1;entryX=0;entryY=0.5;entryDx=0;entryDy=0;" edge="1" parent="0RCKadzTL1skOKLIjvH6-1" source="Y_suWjR1CYW-WI18Jgu0-0" target="0RCKadzTL1skOKLIjvH6-125">
          <mxGeometry relative="1" as="geometry">
            <mxPoint x="-20" y="730" as="targetPoint" />
          </mxGeometry>
        </mxCell>
        <mxCell id="Y_suWjR1CYW-WI18Jgu0-0" value="&lt;u&gt;User_id&lt;/u&gt;" style="ellipse;whiteSpace=wrap;html=1;align=center;fillColor=light-dark(#008a00, #43ba43);fontColor=#ffffff;strokeColor=#005700;" vertex="1" parent="0RCKadzTL1skOKLIjvH6-1">
          <mxGeometry x="-140" y="770" width="70" height="30" as="geometry" />
        </mxCell>
        <mxCell id="Y_suWjR1CYW-WI18Jgu0-7" style="edgeStyle=none;rounded=0;orthogonalLoop=1;jettySize=auto;html=1;" edge="1" parent="0RCKadzTL1skOKLIjvH6-1" source="Y_suWjR1CYW-WI18Jgu0-6">
          <mxGeometry relative="1" as="geometry">
            <mxPoint x="-9.999999999999773" y="730" as="targetPoint" />
          </mxGeometry>
        </mxCell>
        <mxCell id="Y_suWjR1CYW-WI18Jgu0-6" value="&lt;u&gt;C_code&lt;/u&gt;" style="ellipse;whiteSpace=wrap;html=1;align=center;fillColor=light-dark(#008a00, #43ba43);fontColor=#ffffff;strokeColor=#005700;" vertex="1" parent="0RCKadzTL1skOKLIjvH6-1">
          <mxGeometry x="-75" y="805" width="70" height="30" as="geometry" />
        </mxCell>
        <mxCell id="Y_suWjR1CYW-WI18Jgu0-15" value="Date" style="ellipse;whiteSpace=wrap;html=1;align=center;fontStyle=4" vertex="1" parent="0RCKadzTL1skOKLIjvH6-1">
          <mxGeometry x="-373" y="1386.92" width="60" height="30" as="geometry" />
        </mxCell>
        <mxCell id="Y_suWjR1CYW-WI18Jgu0-16" style="edgeStyle=none;rounded=0;orthogonalLoop=1;jettySize=auto;html=1;entryX=0.115;entryY=0.996;entryDx=0;entryDy=0;entryPerimeter=0;endArrow=none;endFill=0;" edge="1" parent="0RCKadzTL1skOKLIjvH6-1" source="Y_suWjR1CYW-WI18Jgu0-15" target="0RCKadzTL1skOKLIjvH6-90">
          <mxGeometry relative="1" as="geometry" />
        </mxCell>
        <mxCell id="Y_suWjR1CYW-WI18Jgu0-20" style="edgeStyle=none;rounded=0;orthogonalLoop=1;jettySize=auto;html=1;entryX=0.714;entryY=-0.002;entryDx=0;entryDy=0;entryPerimeter=0;endArrow=none;endFill=0;exitX=0;exitY=0.5;exitDx=0;exitDy=0;" edge="1" parent="0RCKadzTL1skOKLIjvH6-1" source="0RCKadzTL1skOKLIjvH6-171" target="0RCKadzTL1skOKLIjvH6-114">
          <mxGeometry relative="1" as="geometry" />
        </mxCell>
        <mxCell id="Y_suWjR1CYW-WI18Jgu0-21" value="N" style="edgeLabel;html=1;align=center;verticalAlign=middle;resizable=0;points=[];" vertex="1" connectable="0" parent="Y_suWjR1CYW-WI18Jgu0-20">
          <mxGeometry x="0.4376" y="1" relative="1" as="geometry">
            <mxPoint as="offset" />
          </mxGeometry>
        </mxCell>
        <mxCell id="Y_suWjR1CYW-WI18Jgu0-28" value="User_id&amp;nbsp;&lt;div&gt;(of lecturer)&lt;/div&gt;" style="ellipse;whiteSpace=wrap;html=1;align=center;fillColor=#008a00;fontColor=#ffffff;strokeColor=#005700;" vertex="1" parent="0RCKadzTL1skOKLIjvH6-1">
          <mxGeometry x="204" y="1040" width="86" height="40" as="geometry" />
        </mxCell>
        <mxCell id="Y_suWjR1CYW-WI18Jgu0-29" value="Dpt_name" style="ellipse;whiteSpace=wrap;html=1;align=center;fontStyle=0" vertex="1" parent="0RCKadzTL1skOKLIjvH6-1">
          <mxGeometry x="-284.5" y="430" width="75" height="30" as="geometry" />
        </mxCell>
        <mxCell id="Y_suWjR1CYW-WI18Jgu0-30" style="edgeStyle=none;rounded=0;orthogonalLoop=1;jettySize=auto;html=1;entryX=0.683;entryY=0.004;entryDx=0;entryDy=0;entryPerimeter=0;endArrow=none;endFill=0;" edge="1" parent="0RCKadzTL1skOKLIjvH6-1" source="Y_suWjR1CYW-WI18Jgu0-29" target="0RCKadzTL1skOKLIjvH6-16">
          <mxGeometry relative="1" as="geometry" />
        </mxCell>
      </root>
    </mxGraphModel>
  </diagram>
  <diagram id="L3Ck8kJsyS4O0GhOIHMH" name="Old RM">
    <mxGraphModel dx="1042" dy="657" grid="1" gridSize="10" guides="1" tooltips="1" connect="1" arrows="1" fold="1" page="1" pageScale="1" pageWidth="827" pageHeight="1169" math="0" shadow="0">
      <root>
        <mxCell id="0" />
        <mxCell id="1" parent="0" />
        <mxCell id="LrDWjxnj34L4_JBsAB-V-1" value="" style="shape=table;startSize=0;container=1;collapsible=0;childLayout=tableLayout;arcSize=15;" parent="1" vertex="1">
          <mxGeometry x="70" y="80" width="640" height="40" as="geometry" />
        </mxCell>
        <mxCell id="LrDWjxnj34L4_JBsAB-V-2" value="" style="shape=tableRow;horizontal=0;startSize=0;swimlaneHead=0;swimlaneBody=0;strokeColor=inherit;top=0;left=0;bottom=0;right=0;collapsible=0;dropTarget=0;fillColor=none;points=[[0,0.5,0,0,0],[1,0.5,0,0,0]];portConstraint=eastwest;" parent="LrDWjxnj34L4_JBsAB-V-1" vertex="1">
          <mxGeometry width="640" height="40" as="geometry" />
        </mxCell>
        <mxCell id="LrDWjxnj34L4_JBsAB-V-3" value="&lt;u&gt;User_id&lt;/u&gt;" style="shape=partialRectangle;html=1;whiteSpace=wrap;connectable=0;strokeColor=inherit;overflow=hidden;fillColor=none;top=0;left=0;bottom=0;right=0;pointerEvents=1;" parent="LrDWjxnj34L4_JBsAB-V-2" vertex="1">
          <mxGeometry width="180" height="40" as="geometry">
            <mxRectangle width="180" height="40" as="alternateBounds" />
          </mxGeometry>
        </mxCell>
        <mxCell id="LrDWjxnj34L4_JBsAB-V-4" value="User_pwd" style="shape=partialRectangle;html=1;whiteSpace=wrap;connectable=0;strokeColor=inherit;overflow=hidden;fillColor=none;top=0;left=0;bottom=0;right=0;pointerEvents=1;" parent="LrDWjxnj34L4_JBsAB-V-2" vertex="1">
          <mxGeometry x="180" width="90" height="40" as="geometry">
            <mxRectangle width="90" height="40" as="alternateBounds" />
          </mxGeometry>
        </mxCell>
        <mxCell id="LrDWjxnj34L4_JBsAB-V-5" value="Name" style="shape=partialRectangle;html=1;whiteSpace=wrap;connectable=0;strokeColor=inherit;overflow=hidden;fillColor=none;top=0;left=0;bottom=0;right=0;pointerEvents=1;" parent="LrDWjxnj34L4_JBsAB-V-2" vertex="1">
          <mxGeometry x="270" width="80" height="40" as="geometry">
            <mxRectangle width="80" height="40" as="alternateBounds" />
          </mxGeometry>
        </mxCell>
        <mxCell id="LrDWjxnj34L4_JBsAB-V-6" value="Email" style="shape=partialRectangle;html=1;whiteSpace=wrap;connectable=0;strokeColor=inherit;overflow=hidden;fillColor=none;top=0;left=0;bottom=0;right=0;pointerEvents=1;" parent="LrDWjxnj34L4_JBsAB-V-2" vertex="1">
          <mxGeometry x="350" width="70" height="40" as="geometry">
            <mxRectangle width="70" height="40" as="alternateBounds" />
          </mxGeometry>
        </mxCell>
        <mxCell id="LrDWjxnj34L4_JBsAB-V-7" value="Nic" style="shape=partialRectangle;html=1;whiteSpace=wrap;connectable=0;strokeColor=inherit;overflow=hidden;fillColor=none;top=0;left=0;bottom=0;right=0;pointerEvents=1;" parent="LrDWjxnj34L4_JBsAB-V-2" vertex="1">
          <mxGeometry x="420" width="50" height="40" as="geometry">
            <mxRectangle width="50" height="40" as="alternateBounds" />
          </mxGeometry>
        </mxCell>
        <mxCell id="LrDWjxnj34L4_JBsAB-V-8" value="No" style="shape=partialRectangle;html=1;whiteSpace=wrap;connectable=0;strokeColor=inherit;overflow=hidden;fillColor=none;top=0;left=0;bottom=0;right=0;pointerEvents=1;" parent="LrDWjxnj34L4_JBsAB-V-2" vertex="1">
          <mxGeometry x="470" width="50" height="40" as="geometry">
            <mxRectangle width="50" height="40" as="alternateBounds" />
          </mxGeometry>
        </mxCell>
        <mxCell id="LrDWjxnj34L4_JBsAB-V-9" value="Street" style="shape=partialRectangle;html=1;whiteSpace=wrap;connectable=0;strokeColor=inherit;overflow=hidden;fillColor=none;top=0;left=0;bottom=0;right=0;pointerEvents=1;" parent="LrDWjxnj34L4_JBsAB-V-2" vertex="1">
          <mxGeometry x="520" width="64" height="40" as="geometry">
            <mxRectangle width="64" height="40" as="alternateBounds" />
          </mxGeometry>
        </mxCell>
        <mxCell id="LrDWjxnj34L4_JBsAB-V-10" value="City" style="shape=partialRectangle;html=1;whiteSpace=wrap;connectable=0;strokeColor=inherit;overflow=hidden;fillColor=none;top=0;left=0;bottom=0;right=0;pointerEvents=1;" parent="LrDWjxnj34L4_JBsAB-V-2" vertex="1">
          <mxGeometry x="584" width="56" height="40" as="geometry">
            <mxRectangle width="56" height="40" as="alternateBounds" />
          </mxGeometry>
        </mxCell>
        <mxCell id="kYoo4-yBRyUNPzHMtP4Y-1" value="USER" style="text;html=1;align=left;verticalAlign=middle;resizable=0;points=[];autosize=1;strokeColor=none;fillColor=none;" parent="1" vertex="1">
          <mxGeometry x="160" y="50" width="60" height="30" as="geometry" />
        </mxCell>
        <mxCell id="LH22O_dW-x7zirJqAMRr-4" value="" style="shape=table;startSize=0;container=1;collapsible=0;childLayout=tableLayout;" parent="1" vertex="1">
          <mxGeometry x="160" y="240" width="120" height="40" as="geometry" />
        </mxCell>
        <mxCell id="LH22O_dW-x7zirJqAMRr-5" value="" style="shape=tableRow;horizontal=0;startSize=0;swimlaneHead=0;swimlaneBody=0;strokeColor=inherit;top=0;left=0;bottom=0;right=0;collapsible=0;dropTarget=0;fillColor=none;points=[[0,0.5],[1,0.5]];portConstraint=eastwest;" parent="LH22O_dW-x7zirJqAMRr-4" vertex="1">
          <mxGeometry width="120" height="40" as="geometry" />
        </mxCell>
        <mxCell id="LH22O_dW-x7zirJqAMRr-6" value="&lt;u&gt;User_id&lt;/u&gt;" style="shape=partialRectangle;html=1;whiteSpace=wrap;connectable=0;strokeColor=inherit;overflow=hidden;fillColor=none;top=0;left=0;bottom=0;right=0;pointerEvents=1;" parent="LH22O_dW-x7zirJqAMRr-5" vertex="1">
          <mxGeometry width="60" height="40" as="geometry">
            <mxRectangle width="60" height="40" as="alternateBounds" />
          </mxGeometry>
        </mxCell>
        <mxCell id="LH22O_dW-x7zirJqAMRr-7" value="&lt;u&gt;Phone&lt;/u&gt;" style="shape=partialRectangle;html=1;whiteSpace=wrap;connectable=0;strokeColor=inherit;overflow=hidden;fillColor=none;top=0;left=0;bottom=0;right=0;pointerEvents=1;" parent="LH22O_dW-x7zirJqAMRr-5" vertex="1">
          <mxGeometry x="60" width="60" height="40" as="geometry">
            <mxRectangle width="60" height="40" as="alternateBounds" />
          </mxGeometry>
        </mxCell>
        <mxCell id="LH22O_dW-x7zirJqAMRr-11" value="User_Phone" style="text;html=1;align=left;verticalAlign=middle;resizable=0;points=[];autosize=1;strokeColor=none;fillColor=none;" parent="1" vertex="1">
          <mxGeometry x="160" y="210" width="90" height="30" as="geometry" />
        </mxCell>
        <mxCell id="LH22O_dW-x7zirJqAMRr-13" style="edgeStyle=orthogonalEdgeStyle;rounded=0;orthogonalLoop=1;jettySize=auto;html=1;arcSize=15;entryX=0.266;entryY=0.998;entryDx=0;entryDy=0;entryPerimeter=0;" parent="1" target="LrDWjxnj34L4_JBsAB-V-2" edge="1">
          <mxGeometry relative="1" as="geometry">
            <mxPoint x="250" y="130" as="targetPoint" />
            <mxPoint x="190" y="279.76" as="sourcePoint" />
            <Array as="points">
              <mxPoint x="190" y="290" />
              <mxPoint x="140" y="290" />
              <mxPoint x="140" y="200" />
              <mxPoint x="240" y="200" />
              <mxPoint x="240" y="130" />
              <mxPoint x="240" y="130" />
            </Array>
          </mxGeometry>
        </mxCell>
        <mxCell id="LH22O_dW-x7zirJqAMRr-14" value="" style="shape=table;startSize=0;container=1;collapsible=0;childLayout=tableLayout;" parent="1" vertex="1">
          <mxGeometry x="160" y="360" width="190" height="40" as="geometry" />
        </mxCell>
        <mxCell id="LH22O_dW-x7zirJqAMRr-15" value="" style="shape=tableRow;horizontal=0;startSize=0;swimlaneHead=0;swimlaneBody=0;strokeColor=inherit;top=0;left=0;bottom=0;right=0;collapsible=0;dropTarget=0;fillColor=none;points=[[0,0.5],[1,0.5]];portConstraint=eastwest;" parent="LH22O_dW-x7zirJqAMRr-14" vertex="1">
          <mxGeometry width="190" height="40" as="geometry" />
        </mxCell>
        <mxCell id="LH22O_dW-x7zirJqAMRr-16" value="&lt;u&gt;St_id&lt;/u&gt;" style="shape=partialRectangle;html=1;whiteSpace=wrap;connectable=0;strokeColor=inherit;overflow=hidden;fillColor=none;top=0;left=0;bottom=0;right=0;pointerEvents=1;" parent="LH22O_dW-x7zirJqAMRr-15" vertex="1">
          <mxGeometry width="70" height="40" as="geometry">
            <mxRectangle width="70" height="40" as="alternateBounds" />
          </mxGeometry>
        </mxCell>
        <mxCell id="LH22O_dW-x7zirJqAMRr-17" value="User_id" style="shape=partialRectangle;html=1;whiteSpace=wrap;connectable=0;strokeColor=inherit;overflow=hidden;fillColor=none;top=0;left=0;bottom=0;right=0;pointerEvents=1;" parent="LH22O_dW-x7zirJqAMRr-15" vertex="1">
          <mxGeometry x="70" width="57" height="40" as="geometry">
            <mxRectangle width="57" height="40" as="alternateBounds" />
          </mxGeometry>
        </mxCell>
        <mxCell id="LH22O_dW-x7zirJqAMRr-18" value="Program" style="shape=partialRectangle;html=1;whiteSpace=wrap;connectable=0;strokeColor=inherit;overflow=hidden;fillColor=none;top=0;left=0;bottom=0;right=0;pointerEvents=1;" parent="LH22O_dW-x7zirJqAMRr-15" vertex="1">
          <mxGeometry x="127" width="63" height="40" as="geometry">
            <mxRectangle width="63" height="40" as="alternateBounds" />
          </mxGeometry>
        </mxCell>
        <mxCell id="LH22O_dW-x7zirJqAMRr-20" value="STUDENT" style="text;html=1;align=left;verticalAlign=middle;resizable=0;points=[];autosize=1;strokeColor=none;fillColor=none;" parent="1" vertex="1">
          <mxGeometry x="160" y="334" width="80" height="30" as="geometry" />
        </mxCell>
        <mxCell id="LH22O_dW-x7zirJqAMRr-22" style="edgeStyle=orthogonalEdgeStyle;rounded=0;orthogonalLoop=1;jettySize=auto;html=1;arcSize=15;entryX=0.25;entryY=1;entryDx=0;entryDy=0;entryPerimeter=0;" parent="1" source="LH22O_dW-x7zirJqAMRr-15" target="LrDWjxnj34L4_JBsAB-V-2" edge="1">
          <mxGeometry relative="1" as="geometry">
            <mxPoint x="230" y="130" as="targetPoint" />
            <Array as="points">
              <mxPoint x="260" y="420" />
              <mxPoint x="130" y="420" />
              <mxPoint x="130" y="190" />
              <mxPoint x="230" y="190" />
            </Array>
          </mxGeometry>
        </mxCell>
        <mxCell id="LH22O_dW-x7zirJqAMRr-23" value="" style="shape=table;startSize=0;container=1;collapsible=0;childLayout=tableLayout;" parent="1" vertex="1">
          <mxGeometry x="160" y="480" width="120" height="40" as="geometry" />
        </mxCell>
        <mxCell id="LH22O_dW-x7zirJqAMRr-24" value="" style="shape=tableRow;horizontal=0;startSize=0;swimlaneHead=0;swimlaneBody=0;strokeColor=inherit;top=0;left=0;bottom=0;right=0;collapsible=0;dropTarget=0;fillColor=none;points=[[0,0.5],[1,0.5]];portConstraint=eastwest;" parent="LH22O_dW-x7zirJqAMRr-23" vertex="1">
          <mxGeometry width="120" height="40" as="geometry" />
        </mxCell>
        <mxCell id="LH22O_dW-x7zirJqAMRr-25" value="&lt;u&gt;Admin_id&lt;/u&gt;" style="shape=partialRectangle;html=1;whiteSpace=wrap;connectable=0;strokeColor=inherit;overflow=hidden;fillColor=none;top=0;left=0;bottom=0;right=0;pointerEvents=1;" parent="LH22O_dW-x7zirJqAMRr-24" vertex="1">
          <mxGeometry width="60" height="40" as="geometry">
            <mxRectangle width="60" height="40" as="alternateBounds" />
          </mxGeometry>
        </mxCell>
        <mxCell id="LH22O_dW-x7zirJqAMRr-26" value="User_id" style="shape=partialRectangle;html=1;whiteSpace=wrap;connectable=0;strokeColor=inherit;overflow=hidden;fillColor=none;top=0;left=0;bottom=0;right=0;pointerEvents=1;" parent="LH22O_dW-x7zirJqAMRr-24" vertex="1">
          <mxGeometry x="60" width="60" height="40" as="geometry">
            <mxRectangle width="60" height="40" as="alternateBounds" />
          </mxGeometry>
        </mxCell>
        <mxCell id="LH22O_dW-x7zirJqAMRr-28" value="ADMIN" style="text;html=1;align=left;verticalAlign=middle;resizable=0;points=[];autosize=1;strokeColor=none;fillColor=none;" parent="1" vertex="1">
          <mxGeometry x="160" y="454" width="60" height="30" as="geometry" />
        </mxCell>
        <mxCell id="LH22O_dW-x7zirJqAMRr-29" style="edgeStyle=orthogonalEdgeStyle;rounded=0;orthogonalLoop=1;jettySize=auto;html=1;arcSize=15;entryX=0.233;entryY=1.011;entryDx=0;entryDy=0;entryPerimeter=0;" parent="1" source="LH22O_dW-x7zirJqAMRr-24" target="LrDWjxnj34L4_JBsAB-V-2" edge="1">
          <mxGeometry relative="1" as="geometry">
            <mxPoint x="220" y="130" as="targetPoint" />
            <Array as="points">
              <mxPoint x="250" y="530" />
              <mxPoint x="120" y="530" />
              <mxPoint x="120" y="180" />
              <mxPoint x="219" y="180" />
            </Array>
          </mxGeometry>
        </mxCell>
        <mxCell id="LH22O_dW-x7zirJqAMRr-30" value="" style="shape=table;startSize=0;container=1;collapsible=0;childLayout=tableLayout;" parent="1" vertex="1">
          <mxGeometry x="160" y="600" width="120" height="40" as="geometry" />
        </mxCell>
        <mxCell id="LH22O_dW-x7zirJqAMRr-31" value="" style="shape=tableRow;horizontal=0;startSize=0;swimlaneHead=0;swimlaneBody=0;strokeColor=inherit;top=0;left=0;bottom=0;right=0;collapsible=0;dropTarget=0;fillColor=none;points=[[0,0.5],[1,0.5]];portConstraint=eastwest;" parent="LH22O_dW-x7zirJqAMRr-30" vertex="1">
          <mxGeometry width="120" height="40" as="geometry" />
        </mxCell>
        <mxCell id="LH22O_dW-x7zirJqAMRr-32" value="&lt;u&gt;Dean_id&lt;/u&gt;" style="shape=partialRectangle;html=1;whiteSpace=wrap;connectable=0;strokeColor=inherit;overflow=hidden;fillColor=none;top=0;left=0;bottom=0;right=0;pointerEvents=1;" parent="LH22O_dW-x7zirJqAMRr-31" vertex="1">
          <mxGeometry width="60" height="40" as="geometry">
            <mxRectangle width="60" height="40" as="alternateBounds" />
          </mxGeometry>
        </mxCell>
        <mxCell id="LH22O_dW-x7zirJqAMRr-33" value="User_id" style="shape=partialRectangle;html=1;whiteSpace=wrap;connectable=0;strokeColor=inherit;overflow=hidden;fillColor=none;top=0;left=0;bottom=0;right=0;pointerEvents=1;" parent="LH22O_dW-x7zirJqAMRr-31" vertex="1">
          <mxGeometry x="60" width="60" height="40" as="geometry">
            <mxRectangle width="60" height="40" as="alternateBounds" />
          </mxGeometry>
        </mxCell>
        <mxCell id="LH22O_dW-x7zirJqAMRr-34" value="DEAN" style="text;html=1;align=left;verticalAlign=middle;resizable=0;points=[];autosize=1;strokeColor=none;fillColor=none;" parent="1" vertex="1">
          <mxGeometry x="160" y="574" width="60" height="30" as="geometry" />
        </mxCell>
        <mxCell id="LH22O_dW-x7zirJqAMRr-46" value="" style="shape=table;startSize=0;container=1;collapsible=0;childLayout=tableLayout;" parent="1" vertex="1">
          <mxGeometry x="160" y="720" width="120" height="40" as="geometry" />
        </mxCell>
        <mxCell id="LH22O_dW-x7zirJqAMRr-47" value="" style="shape=tableRow;horizontal=0;startSize=0;swimlaneHead=0;swimlaneBody=0;strokeColor=inherit;top=0;left=0;bottom=0;right=0;collapsible=0;dropTarget=0;fillColor=none;points=[[0,0.5],[1,0.5]];portConstraint=eastwest;" parent="LH22O_dW-x7zirJqAMRr-46" vertex="1">
          <mxGeometry width="120" height="40" as="geometry" />
        </mxCell>
        <mxCell id="LH22O_dW-x7zirJqAMRr-48" value="&lt;u&gt;Lec_id&lt;/u&gt;" style="shape=partialRectangle;html=1;whiteSpace=wrap;connectable=0;strokeColor=inherit;overflow=hidden;fillColor=none;top=0;left=0;bottom=0;right=0;pointerEvents=1;" parent="LH22O_dW-x7zirJqAMRr-47" vertex="1">
          <mxGeometry width="60" height="40" as="geometry">
            <mxRectangle width="60" height="40" as="alternateBounds" />
          </mxGeometry>
        </mxCell>
        <mxCell id="LH22O_dW-x7zirJqAMRr-49" value="User_id" style="shape=partialRectangle;html=1;whiteSpace=wrap;connectable=0;strokeColor=inherit;overflow=hidden;fillColor=none;top=0;left=0;bottom=0;right=0;pointerEvents=1;" parent="LH22O_dW-x7zirJqAMRr-47" vertex="1">
          <mxGeometry x="60" width="60" height="40" as="geometry">
            <mxRectangle width="60" height="40" as="alternateBounds" />
          </mxGeometry>
        </mxCell>
        <mxCell id="LH22O_dW-x7zirJqAMRr-50" value="LECTURER" style="text;html=1;align=left;verticalAlign=middle;resizable=0;points=[];autosize=1;strokeColor=none;fillColor=none;" parent="1" vertex="1">
          <mxGeometry x="160" y="694" width="90" height="30" as="geometry" />
        </mxCell>
        <mxCell id="LH22O_dW-x7zirJqAMRr-60" style="edgeStyle=orthogonalEdgeStyle;rounded=0;orthogonalLoop=1;jettySize=auto;html=1;entryX=0.188;entryY=1;entryDx=0;entryDy=0;entryPerimeter=0;" parent="1" source="LH22O_dW-x7zirJqAMRr-51" target="LrDWjxnj34L4_JBsAB-V-2" edge="1">
          <mxGeometry relative="1" as="geometry">
            <mxPoint x="190" y="126" as="targetPoint" />
            <Array as="points">
              <mxPoint x="250" y="890" />
              <mxPoint x="90" y="890" />
              <mxPoint x="90" y="150" />
              <mxPoint x="190" y="150" />
            </Array>
          </mxGeometry>
        </mxCell>
        <mxCell id="LH22O_dW-x7zirJqAMRr-51" value="" style="shape=table;startSize=0;container=1;collapsible=0;childLayout=tableLayout;" parent="1" vertex="1">
          <mxGeometry x="160" y="840" width="120" height="40" as="geometry" />
        </mxCell>
        <mxCell id="LH22O_dW-x7zirJqAMRr-52" value="" style="shape=tableRow;horizontal=0;startSize=0;swimlaneHead=0;swimlaneBody=0;strokeColor=inherit;top=0;left=0;bottom=0;right=0;collapsible=0;dropTarget=0;fillColor=none;points=[[0,0.5],[1,0.5]];portConstraint=eastwest;" parent="LH22O_dW-x7zirJqAMRr-51" vertex="1">
          <mxGeometry width="120" height="40" as="geometry" />
        </mxCell>
        <mxCell id="LH22O_dW-x7zirJqAMRr-53" value="&lt;u&gt;To_id&lt;/u&gt;" style="shape=partialRectangle;html=1;whiteSpace=wrap;connectable=0;strokeColor=inherit;overflow=hidden;fillColor=none;top=0;left=0;bottom=0;right=0;pointerEvents=1;" parent="LH22O_dW-x7zirJqAMRr-52" vertex="1">
          <mxGeometry width="60" height="40" as="geometry">
            <mxRectangle width="60" height="40" as="alternateBounds" />
          </mxGeometry>
        </mxCell>
        <mxCell id="LH22O_dW-x7zirJqAMRr-54" value="User_id" style="shape=partialRectangle;html=1;whiteSpace=wrap;connectable=0;strokeColor=inherit;overflow=hidden;fillColor=none;top=0;left=0;bottom=0;right=0;pointerEvents=1;" parent="LH22O_dW-x7zirJqAMRr-52" vertex="1">
          <mxGeometry x="60" width="60" height="40" as="geometry">
            <mxRectangle width="60" height="40" as="alternateBounds" />
          </mxGeometry>
        </mxCell>
        <mxCell id="LH22O_dW-x7zirJqAMRr-55" value="TECH_OFFICER" style="text;html=1;align=left;verticalAlign=middle;resizable=0;points=[];autosize=1;strokeColor=none;fillColor=none;" parent="1" vertex="1">
          <mxGeometry x="160" y="814" width="120" height="30" as="geometry" />
        </mxCell>
        <mxCell id="LH22O_dW-x7zirJqAMRr-57" style="edgeStyle=orthogonalEdgeStyle;rounded=0;orthogonalLoop=1;jettySize=auto;html=1;arcSize=15;entryX=0.219;entryY=1.001;entryDx=0;entryDy=0;entryPerimeter=0;" parent="1" source="LH22O_dW-x7zirJqAMRr-31" target="LrDWjxnj34L4_JBsAB-V-2" edge="1">
          <mxGeometry relative="1" as="geometry">
            <mxPoint x="220" y="130" as="targetPoint" />
            <Array as="points">
              <mxPoint x="250" y="650" />
              <mxPoint x="110" y="650" />
              <mxPoint x="110" y="170" />
              <mxPoint x="210" y="170" />
              <mxPoint x="210" y="130" />
              <mxPoint x="210" y="130" />
            </Array>
          </mxGeometry>
        </mxCell>
        <mxCell id="LH22O_dW-x7zirJqAMRr-58" style="edgeStyle=orthogonalEdgeStyle;rounded=0;orthogonalLoop=1;jettySize=auto;html=1;entryX=0.203;entryY=1;entryDx=0;entryDy=0;entryPerimeter=0;arcSize=15;" parent="1" source="LH22O_dW-x7zirJqAMRr-47" target="LrDWjxnj34L4_JBsAB-V-2" edge="1">
          <mxGeometry relative="1" as="geometry">
            <Array as="points">
              <mxPoint x="250" y="780" />
              <mxPoint x="100" y="780" />
              <mxPoint x="100" y="160" />
              <mxPoint x="200" y="160" />
            </Array>
          </mxGeometry>
        </mxCell>
        <mxCell id="LH22O_dW-x7zirJqAMRr-85" value="" style="shape=table;startSize=0;container=1;collapsible=0;childLayout=tableLayout;" parent="1" vertex="1">
          <mxGeometry x="160" y="1070" width="300" height="40" as="geometry" />
        </mxCell>
        <mxCell id="LH22O_dW-x7zirJqAMRr-86" value="" style="shape=tableRow;horizontal=0;startSize=0;swimlaneHead=0;swimlaneBody=0;strokeColor=inherit;top=0;left=0;bottom=0;right=0;collapsible=0;dropTarget=0;fillColor=none;points=[[0,0.5],[1,0.5]];portConstraint=eastwest;" parent="LH22O_dW-x7zirJqAMRr-85" vertex="1">
          <mxGeometry width="300" height="40" as="geometry" />
        </mxCell>
        <mxCell id="LH22O_dW-x7zirJqAMRr-87" value="&lt;u&gt;C_code&lt;/u&gt;" style="shape=partialRectangle;html=1;whiteSpace=wrap;connectable=0;strokeColor=inherit;overflow=hidden;fillColor=none;top=0;left=0;bottom=0;right=0;pointerEvents=1;" parent="LH22O_dW-x7zirJqAMRr-86" vertex="1">
          <mxGeometry width="60" height="40" as="geometry">
            <mxRectangle width="60" height="40" as="alternateBounds" />
          </mxGeometry>
        </mxCell>
        <mxCell id="LH22O_dW-x7zirJqAMRr-88" value="C_name" style="shape=partialRectangle;html=1;whiteSpace=wrap;connectable=0;strokeColor=inherit;overflow=hidden;fillColor=none;top=0;left=0;bottom=0;right=0;pointerEvents=1;" parent="LH22O_dW-x7zirJqAMRr-86" vertex="1">
          <mxGeometry x="60" width="60" height="40" as="geometry">
            <mxRectangle width="60" height="40" as="alternateBounds" />
          </mxGeometry>
        </mxCell>
        <mxCell id="LH22O_dW-x7zirJqAMRr-89" value="Credits" style="shape=partialRectangle;html=1;whiteSpace=wrap;connectable=0;strokeColor=inherit;overflow=hidden;fillColor=none;top=0;left=0;bottom=0;right=0;pointerEvents=1;" parent="LH22O_dW-x7zirJqAMRr-86" vertex="1">
          <mxGeometry x="120" width="60" height="40" as="geometry">
            <mxRectangle width="60" height="40" as="alternateBounds" />
          </mxGeometry>
        </mxCell>
        <mxCell id="LH22O_dW-x7zirJqAMRr-90" value="Type" style="shape=partialRectangle;html=1;whiteSpace=wrap;connectable=0;strokeColor=inherit;overflow=hidden;fillColor=none;top=0;left=0;bottom=0;right=0;pointerEvents=1;" parent="LH22O_dW-x7zirJqAMRr-86" vertex="1">
          <mxGeometry x="180" width="60" height="40" as="geometry">
            <mxRectangle width="60" height="40" as="alternateBounds" />
          </mxGeometry>
        </mxCell>
        <mxCell id="LH22O_dW-x7zirJqAMRr-97" value="Lec_id" style="shape=partialRectangle;html=1;whiteSpace=wrap;connectable=0;strokeColor=inherit;overflow=hidden;fillColor=none;top=0;left=0;bottom=0;right=0;pointerEvents=1;" parent="LH22O_dW-x7zirJqAMRr-86" vertex="1">
          <mxGeometry x="240" width="60" height="40" as="geometry">
            <mxRectangle width="60" height="40" as="alternateBounds" />
          </mxGeometry>
        </mxCell>
        <mxCell id="LH22O_dW-x7zirJqAMRr-91" value="COURSE" style="text;html=1;align=left;verticalAlign=middle;resizable=0;points=[];autosize=1;strokeColor=none;fillColor=none;" parent="1" vertex="1">
          <mxGeometry x="160" y="1044" width="70" height="30" as="geometry" />
        </mxCell>
        <mxCell id="LH22O_dW-x7zirJqAMRr-98" style="edgeStyle=orthogonalEdgeStyle;rounded=0;orthogonalLoop=1;jettySize=auto;html=1;entryX=0.162;entryY=0.999;entryDx=0;entryDy=0;entryPerimeter=0;jumpStyle=arc;jumpSize=10;" parent="1" source="LH22O_dW-x7zirJqAMRr-86" target="LH22O_dW-x7zirJqAMRr-46" edge="1">
          <mxGeometry relative="1" as="geometry">
            <Array as="points">
              <mxPoint x="430" y="1120" />
              <mxPoint x="580" y="1120" />
              <mxPoint x="580" y="800" />
              <mxPoint x="180" y="800" />
              <mxPoint x="180" y="760" />
            </Array>
          </mxGeometry>
        </mxCell>
        <mxCell id="O_C5OtcXpMvpVVZx9vC7-1" value="" style="shape=table;startSize=0;container=1;collapsible=0;childLayout=tableLayout;" parent="1" vertex="1">
          <mxGeometry x="160" y="960" width="340" height="40" as="geometry" />
        </mxCell>
        <mxCell id="O_C5OtcXpMvpVVZx9vC7-2" value="" style="shape=tableRow;horizontal=0;startSize=0;swimlaneHead=0;swimlaneBody=0;strokeColor=inherit;top=0;left=0;bottom=0;right=0;collapsible=0;dropTarget=0;fillColor=none;points=[[0,0.5],[1,0.5]];portConstraint=eastwest;" parent="O_C5OtcXpMvpVVZx9vC7-1" vertex="1">
          <mxGeometry width="340" height="40" as="geometry" />
        </mxCell>
        <mxCell id="O_C5OtcXpMvpVVZx9vC7-3" value="&lt;u&gt;St_id&lt;/u&gt;" style="shape=partialRectangle;html=1;whiteSpace=wrap;connectable=0;strokeColor=inherit;overflow=hidden;fillColor=none;top=0;left=0;bottom=0;right=0;pointerEvents=1;" parent="O_C5OtcXpMvpVVZx9vC7-2" vertex="1">
          <mxGeometry width="60" height="40" as="geometry">
            <mxRectangle width="60" height="40" as="alternateBounds" />
          </mxGeometry>
        </mxCell>
        <mxCell id="O_C5OtcXpMvpVVZx9vC7-4" value="&lt;u&gt;C_code&lt;/u&gt;" style="shape=partialRectangle;html=1;whiteSpace=wrap;connectable=0;strokeColor=inherit;overflow=hidden;fillColor=none;top=0;left=0;bottom=0;right=0;pointerEvents=1;" parent="O_C5OtcXpMvpVVZx9vC7-2" vertex="1">
          <mxGeometry x="60" width="60" height="40" as="geometry">
            <mxRectangle width="60" height="40" as="alternateBounds" />
          </mxGeometry>
        </mxCell>
        <mxCell id="O_C5OtcXpMvpVVZx9vC7-5" value="Academic_yr" style="shape=partialRectangle;html=1;whiteSpace=wrap;connectable=0;strokeColor=inherit;overflow=hidden;fillColor=none;top=0;left=0;bottom=0;right=0;pointerEvents=1;" parent="O_C5OtcXpMvpVVZx9vC7-2" vertex="1">
          <mxGeometry x="120" width="90" height="40" as="geometry">
            <mxRectangle width="90" height="40" as="alternateBounds" />
          </mxGeometry>
        </mxCell>
        <mxCell id="O_C5OtcXpMvpVVZx9vC7-6" value="Sem" style="shape=partialRectangle;html=1;whiteSpace=wrap;connectable=0;strokeColor=inherit;overflow=hidden;fillColor=none;top=0;left=0;bottom=0;right=0;pointerEvents=1;" parent="O_C5OtcXpMvpVVZx9vC7-2" vertex="1">
          <mxGeometry x="210" width="50" height="40" as="geometry">
            <mxRectangle width="50" height="40" as="alternateBounds" />
          </mxGeometry>
        </mxCell>
        <mxCell id="O_C5OtcXpMvpVVZx9vC7-7" value="Status" style="shape=partialRectangle;html=1;whiteSpace=wrap;connectable=0;strokeColor=inherit;overflow=hidden;fillColor=none;top=0;left=0;bottom=0;right=0;pointerEvents=1;" parent="O_C5OtcXpMvpVVZx9vC7-2" vertex="1">
          <mxGeometry x="260" width="80" height="40" as="geometry">
            <mxRectangle width="80" height="40" as="alternateBounds" />
          </mxGeometry>
        </mxCell>
        <mxCell id="O_C5OtcXpMvpVVZx9vC7-8" value="ENROLLS_IN" style="text;html=1;align=left;verticalAlign=middle;resizable=0;points=[];autosize=1;strokeColor=none;fillColor=none;" parent="1" vertex="1">
          <mxGeometry x="160" y="934" width="100" height="30" as="geometry" />
        </mxCell>
        <mxCell id="O_C5OtcXpMvpVVZx9vC7-9" style="edgeStyle=orthogonalEdgeStyle;rounded=0;orthogonalLoop=1;jettySize=auto;html=1;exitX=0.079;exitY=1;exitDx=0;exitDy=0;exitPerimeter=0;jumpStyle=arc;jumpSize=10;" parent="1" source="O_C5OtcXpMvpVVZx9vC7-2" edge="1">
          <mxGeometry relative="1" as="geometry">
            <mxPoint x="210" y="400" as="targetPoint" />
            <mxPoint x="187" y="1001" as="sourcePoint" />
            <Array as="points">
              <mxPoint x="187" y="1020" />
              <mxPoint x="150" y="1020" />
              <mxPoint x="150" y="920" />
              <mxPoint x="320" y="920" />
              <mxPoint x="320" y="430" />
              <mxPoint x="210" y="430" />
              <mxPoint x="210" y="401" />
            </Array>
          </mxGeometry>
        </mxCell>
        <mxCell id="O_C5OtcXpMvpVVZx9vC7-10" style="edgeStyle=orthogonalEdgeStyle;rounded=0;orthogonalLoop=1;jettySize=auto;html=1;entryX=0.168;entryY=0.998;entryDx=0;entryDy=0;entryPerimeter=0;exitX=0.283;exitY=1.05;exitDx=0;exitDy=0;exitPerimeter=0;jumpStyle=arc;jumpSize=11;" parent="1" source="O_C5OtcXpMvpVVZx9vC7-2" target="LH22O_dW-x7zirJqAMRr-86" edge="1">
          <mxGeometry relative="1" as="geometry">
            <mxPoint x="490" y="1160" as="targetPoint" />
            <Array as="points">
              <mxPoint x="256" y="1040" />
              <mxPoint x="480" y="1040" />
              <mxPoint x="480" y="1130" />
              <mxPoint x="210" y="1130" />
              <mxPoint x="210" y="1110" />
            </Array>
          </mxGeometry>
        </mxCell>
        <mxCell id="O_C5OtcXpMvpVVZx9vC7-11" value="" style="shape=table;startSize=0;container=1;collapsible=0;childLayout=tableLayout;" parent="1" vertex="1">
          <mxGeometry x="160" y="1200" width="300" height="40" as="geometry" />
        </mxCell>
        <mxCell id="O_C5OtcXpMvpVVZx9vC7-12" value="" style="shape=tableRow;horizontal=0;startSize=0;swimlaneHead=0;swimlaneBody=0;strokeColor=inherit;top=0;left=0;bottom=0;right=0;collapsible=0;dropTarget=0;fillColor=none;points=[[0,0.5],[1,0.5]];portConstraint=eastwest;" parent="O_C5OtcXpMvpVVZx9vC7-11" vertex="1">
          <mxGeometry width="300" height="40" as="geometry" />
        </mxCell>
        <mxCell id="O_C5OtcXpMvpVVZx9vC7-13" value="Session_id" style="shape=partialRectangle;html=1;whiteSpace=wrap;connectable=0;strokeColor=inherit;overflow=hidden;fillColor=none;top=0;left=0;bottom=0;right=0;pointerEvents=1;fontStyle=4" parent="O_C5OtcXpMvpVVZx9vC7-12" vertex="1">
          <mxGeometry width="70" height="40" as="geometry">
            <mxRectangle width="70" height="40" as="alternateBounds" />
          </mxGeometry>
        </mxCell>
        <mxCell id="O_C5OtcXpMvpVVZx9vC7-14" value="Week_no" style="shape=partialRectangle;html=1;whiteSpace=wrap;connectable=0;strokeColor=inherit;overflow=hidden;fillColor=none;top=0;left=0;bottom=0;right=0;pointerEvents=1;" parent="O_C5OtcXpMvpVVZx9vC7-12" vertex="1">
          <mxGeometry x="70" width="60" height="40" as="geometry">
            <mxRectangle width="60" height="40" as="alternateBounds" />
          </mxGeometry>
        </mxCell>
        <mxCell id="O_C5OtcXpMvpVVZx9vC7-15" value="Date" style="shape=partialRectangle;html=1;whiteSpace=wrap;connectable=0;strokeColor=inherit;overflow=hidden;fillColor=none;top=0;left=0;bottom=0;right=0;pointerEvents=1;" parent="O_C5OtcXpMvpVVZx9vC7-12" vertex="1">
          <mxGeometry x="130" width="60" height="40" as="geometry">
            <mxRectangle width="60" height="40" as="alternateBounds" />
          </mxGeometry>
        </mxCell>
        <mxCell id="O_C5OtcXpMvpVVZx9vC7-16" value="Type" style="shape=partialRectangle;html=1;whiteSpace=wrap;connectable=0;strokeColor=inherit;overflow=hidden;fillColor=none;top=0;left=0;bottom=0;right=0;pointerEvents=1;" parent="O_C5OtcXpMvpVVZx9vC7-12" vertex="1">
          <mxGeometry x="190" width="50" height="40" as="geometry">
            <mxRectangle width="50" height="40" as="alternateBounds" />
          </mxGeometry>
        </mxCell>
        <mxCell id="O_C5OtcXpMvpVVZx9vC7-17" value="C_code" style="shape=partialRectangle;html=1;whiteSpace=wrap;connectable=0;strokeColor=inherit;overflow=hidden;fillColor=none;top=0;left=0;bottom=0;right=0;pointerEvents=1;" parent="O_C5OtcXpMvpVVZx9vC7-12" vertex="1">
          <mxGeometry x="240" width="60" height="40" as="geometry">
            <mxRectangle width="60" height="40" as="alternateBounds" />
          </mxGeometry>
        </mxCell>
        <mxCell id="O_C5OtcXpMvpVVZx9vC7-18" value="SESSIONS" style="text;html=1;align=left;verticalAlign=middle;resizable=0;points=[];autosize=1;strokeColor=none;fillColor=none;" parent="1" vertex="1">
          <mxGeometry x="160" y="1173" width="80" height="30" as="geometry" />
        </mxCell>
        <mxCell id="O_C5OtcXpMvpVVZx9vC7-20" style="edgeStyle=orthogonalEdgeStyle;rounded=0;orthogonalLoop=1;jettySize=auto;html=1;entryX=0.074;entryY=0.978;entryDx=0;entryDy=0;entryPerimeter=0;exitX=0.906;exitY=1;exitDx=0;exitDy=0;exitPerimeter=0;" parent="1" source="O_C5OtcXpMvpVVZx9vC7-12" target="LH22O_dW-x7zirJqAMRr-86" edge="1">
          <mxGeometry relative="1" as="geometry">
            <Array as="points">
              <mxPoint x="432" y="1250" />
              <mxPoint x="480" y="1250" />
              <mxPoint x="480" y="1170" />
              <mxPoint x="182" y="1170" />
            </Array>
          </mxGeometry>
        </mxCell>
        <mxCell id="O_C5OtcXpMvpVVZx9vC7-29" style="edgeStyle=orthogonalEdgeStyle;rounded=0;orthogonalLoop=1;jettySize=auto;html=1;jumpStyle=arc;exitX=0.527;exitY=0.991;exitDx=0;exitDy=0;exitPerimeter=0;jumpSize=10;" parent="1" source="O_C5OtcXpMvpVVZx9vC7-22" edge="1">
          <mxGeometry relative="1" as="geometry">
            <mxPoint x="200" y="400" as="targetPoint" />
            <Array as="points">
              <mxPoint x="355" y="1380" />
              <mxPoint x="140" y="1380" />
              <mxPoint x="140" y="450" />
              <mxPoint x="200" y="450" />
            </Array>
          </mxGeometry>
        </mxCell>
        <mxCell id="O_C5OtcXpMvpVVZx9vC7-30" style="edgeStyle=orthogonalEdgeStyle;rounded=0;orthogonalLoop=1;jettySize=auto;html=1;exitX=0.725;exitY=1.005;exitDx=0;exitDy=0;exitPerimeter=0;entryX=0.098;entryY=1.038;entryDx=0;entryDy=0;entryPerimeter=0;" parent="1" source="O_C5OtcXpMvpVVZx9vC7-22" target="O_C5OtcXpMvpVVZx9vC7-12" edge="1">
          <mxGeometry relative="1" as="geometry">
            <mxPoint x="180" y="1260" as="targetPoint" />
            <mxPoint x="430" y="1380" as="sourcePoint" />
            <Array as="points">
              <mxPoint x="428" y="1390" />
              <mxPoint x="580" y="1390" />
              <mxPoint x="580" y="1280" />
              <mxPoint x="190" y="1280" />
              <mxPoint x="190" y="1260" />
              <mxPoint x="189" y="1260" />
            </Array>
          </mxGeometry>
        </mxCell>
        <mxCell id="O_C5OtcXpMvpVVZx9vC7-21" value="" style="shape=table;startSize=0;container=1;collapsible=0;childLayout=tableLayout;" parent="1" vertex="1">
          <mxGeometry x="160" y="1321" width="370" height="40" as="geometry" />
        </mxCell>
        <mxCell id="O_C5OtcXpMvpVVZx9vC7-22" value="" style="shape=tableRow;horizontal=0;startSize=0;swimlaneHead=0;swimlaneBody=0;strokeColor=inherit;top=0;left=0;bottom=0;right=0;collapsible=0;dropTarget=0;fillColor=none;points=[[0,0.5],[1,0.5]];portConstraint=eastwest;" parent="O_C5OtcXpMvpVVZx9vC7-21" vertex="1">
          <mxGeometry width="370" height="40" as="geometry" />
        </mxCell>
        <mxCell id="O_C5OtcXpMvpVVZx9vC7-23" value="Attendance_id" style="shape=partialRectangle;html=1;whiteSpace=wrap;connectable=0;strokeColor=inherit;overflow=hidden;fillColor=none;top=0;left=0;bottom=0;right=0;pointerEvents=1;fontStyle=4" parent="O_C5OtcXpMvpVVZx9vC7-22" vertex="1">
          <mxGeometry width="90" height="40" as="geometry">
            <mxRectangle width="90" height="40" as="alternateBounds" />
          </mxGeometry>
        </mxCell>
        <mxCell id="O_C5OtcXpMvpVVZx9vC7-24" value="Status" style="shape=partialRectangle;html=1;whiteSpace=wrap;connectable=0;strokeColor=inherit;overflow=hidden;fillColor=none;top=0;left=0;bottom=0;right=0;pointerEvents=1;" parent="O_C5OtcXpMvpVVZx9vC7-22" vertex="1">
          <mxGeometry x="90" width="70" height="40" as="geometry">
            <mxRectangle width="70" height="40" as="alternateBounds" />
          </mxGeometry>
        </mxCell>
        <mxCell id="O_C5OtcXpMvpVVZx9vC7-25" value="St_id" style="shape=partialRectangle;html=1;whiteSpace=wrap;connectable=0;strokeColor=inherit;overflow=hidden;fillColor=none;top=0;left=0;bottom=0;right=0;pointerEvents=1;" parent="O_C5OtcXpMvpVVZx9vC7-22" vertex="1">
          <mxGeometry x="160" width="60" height="40" as="geometry">
            <mxRectangle width="60" height="40" as="alternateBounds" />
          </mxGeometry>
        </mxCell>
        <mxCell id="O_C5OtcXpMvpVVZx9vC7-26" value="&lt;div&gt;Session_id&lt;/div&gt;" style="shape=partialRectangle;html=1;whiteSpace=wrap;connectable=0;strokeColor=inherit;overflow=hidden;fillColor=none;top=0;left=0;bottom=0;right=0;pointerEvents=1;" parent="O_C5OtcXpMvpVVZx9vC7-22" vertex="1">
          <mxGeometry x="220" width="80" height="40" as="geometry">
            <mxRectangle width="80" height="40" as="alternateBounds" />
          </mxGeometry>
        </mxCell>
        <mxCell id="O_C5OtcXpMvpVVZx9vC7-27" value="C_code" style="shape=partialRectangle;html=1;whiteSpace=wrap;connectable=0;strokeColor=inherit;overflow=hidden;fillColor=none;top=0;left=0;bottom=0;right=0;pointerEvents=1;" parent="O_C5OtcXpMvpVVZx9vC7-22" vertex="1">
          <mxGeometry x="300" width="70" height="40" as="geometry">
            <mxRectangle width="70" height="40" as="alternateBounds" />
          </mxGeometry>
        </mxCell>
        <mxCell id="O_C5OtcXpMvpVVZx9vC7-28" value="ATTENDANCE" style="text;html=1;align=left;verticalAlign=middle;resizable=0;points=[];autosize=1;strokeColor=none;fillColor=none;" parent="1" vertex="1">
          <mxGeometry x="160" y="1293" width="100" height="30" as="geometry" />
        </mxCell>
        <mxCell id="O_C5OtcXpMvpVVZx9vC7-32" style="edgeStyle=orthogonalEdgeStyle;rounded=0;orthogonalLoop=1;jettySize=auto;html=1;entryX=0.125;entryY=1.015;entryDx=0;entryDy=0;entryPerimeter=0;jumpStyle=arc;jumpSize=11;exitX=0.896;exitY=1.012;exitDx=0;exitDy=0;exitPerimeter=0;" parent="1" source="O_C5OtcXpMvpVVZx9vC7-22" target="LH22O_dW-x7zirJqAMRr-86" edge="1">
          <mxGeometry relative="1" as="geometry">
            <mxPoint x="560" y="1140" as="targetPoint" />
            <Array as="points">
              <mxPoint x="492" y="1380" />
              <mxPoint x="560" y="1380" />
              <mxPoint x="560" y="1150" />
              <mxPoint x="198" y="1150" />
            </Array>
          </mxGeometry>
        </mxCell>
        <mxCell id="6JHhaleTlfYhsWGyRAYU-1" value="" style="shape=table;startSize=0;container=1;collapsible=0;childLayout=tableLayout;" parent="1" vertex="1">
          <mxGeometry x="160" y="1440" width="410" height="40" as="geometry" />
        </mxCell>
        <mxCell id="6JHhaleTlfYhsWGyRAYU-2" value="" style="shape=tableRow;horizontal=0;startSize=0;swimlaneHead=0;swimlaneBody=0;strokeColor=inherit;top=0;left=0;bottom=0;right=0;collapsible=0;dropTarget=0;fillColor=none;points=[[0,0.5],[1,0.5]];portConstraint=eastwest;" parent="6JHhaleTlfYhsWGyRAYU-1" vertex="1">
          <mxGeometry width="410" height="40" as="geometry" />
        </mxCell>
        <mxCell id="6JHhaleTlfYhsWGyRAYU-3" value="Medical_id" style="shape=partialRectangle;html=1;whiteSpace=wrap;connectable=0;strokeColor=inherit;overflow=hidden;fillColor=none;top=0;left=0;bottom=0;right=0;pointerEvents=1;fontStyle=4" parent="6JHhaleTlfYhsWGyRAYU-2" vertex="1">
          <mxGeometry width="81" height="40" as="geometry">
            <mxRectangle width="81" height="40" as="alternateBounds" />
          </mxGeometry>
        </mxCell>
        <mxCell id="6JHhaleTlfYhsWGyRAYU-4" value="Date_submitted" style="shape=partialRectangle;html=1;whiteSpace=wrap;connectable=0;strokeColor=inherit;overflow=hidden;fillColor=none;top=0;left=0;bottom=0;right=0;pointerEvents=1;" parent="6JHhaleTlfYhsWGyRAYU-2" vertex="1">
          <mxGeometry x="81" width="114" height="40" as="geometry">
            <mxRectangle width="114" height="40" as="alternateBounds" />
          </mxGeometry>
        </mxCell>
        <mxCell id="6JHhaleTlfYhsWGyRAYU-5" value="Status" style="shape=partialRectangle;html=1;whiteSpace=wrap;connectable=0;strokeColor=inherit;overflow=hidden;fillColor=none;top=0;left=0;bottom=0;right=0;pointerEvents=1;" parent="6JHhaleTlfYhsWGyRAYU-2" vertex="1">
          <mxGeometry x="195" width="60" height="40" as="geometry">
            <mxRectangle width="60" height="40" as="alternateBounds" />
          </mxGeometry>
        </mxCell>
        <mxCell id="6JHhaleTlfYhsWGyRAYU-6" value="St_id" style="shape=partialRectangle;html=1;whiteSpace=wrap;connectable=0;strokeColor=inherit;overflow=hidden;fillColor=none;top=0;left=0;bottom=0;right=0;pointerEvents=1;" parent="6JHhaleTlfYhsWGyRAYU-2" vertex="1">
          <mxGeometry x="255" width="55" height="40" as="geometry">
            <mxRectangle width="55" height="40" as="alternateBounds" />
          </mxGeometry>
        </mxCell>
        <mxCell id="6JHhaleTlfYhsWGyRAYU-7" value="Attendance_id" style="shape=partialRectangle;html=1;whiteSpace=wrap;connectable=0;strokeColor=inherit;overflow=hidden;fillColor=none;top=0;left=0;bottom=0;right=0;pointerEvents=1;" parent="6JHhaleTlfYhsWGyRAYU-2" vertex="1">
          <mxGeometry x="310" width="100" height="40" as="geometry">
            <mxRectangle width="100" height="40" as="alternateBounds" />
          </mxGeometry>
        </mxCell>
        <mxCell id="6JHhaleTlfYhsWGyRAYU-8" value="MEDICAL" style="text;html=1;align=left;verticalAlign=middle;resizable=0;points=[];autosize=1;strokeColor=none;fillColor=none;" parent="1" vertex="1">
          <mxGeometry x="160" y="1413" width="80" height="30" as="geometry" />
        </mxCell>
        <mxCell id="J3--7HQK3M9TUlO8Ik2x-2" style="edgeStyle=orthogonalEdgeStyle;rounded=0;orthogonalLoop=1;jettySize=auto;html=1;exitX=0.664;exitY=1.007;exitDx=0;exitDy=0;exitPerimeter=0;jumpStyle=arc;jumpSize=6;" parent="1" edge="1">
          <mxGeometry relative="1" as="geometry">
            <mxPoint x="190" y="400" as="targetPoint" />
            <mxPoint x="442.24" y="1480.04" as="sourcePoint" />
            <Array as="points">
              <mxPoint x="442" y="1500" />
              <mxPoint x="80" y="1500" />
              <mxPoint x="80" y="440" />
              <mxPoint x="190" y="440" />
              <mxPoint x="190" y="400" />
            </Array>
          </mxGeometry>
        </mxCell>
        <mxCell id="J3--7HQK3M9TUlO8Ik2x-3" style="edgeStyle=orthogonalEdgeStyle;rounded=0;orthogonalLoop=1;jettySize=auto;html=1;entryX=0.093;entryY=1.008;entryDx=0;entryDy=0;entryPerimeter=0;exitX=0.873;exitY=0.976;exitDx=0;exitDy=0;exitPerimeter=0;jumpStyle=arc;jumpSize=10;" parent="1" source="6JHhaleTlfYhsWGyRAYU-1" target="O_C5OtcXpMvpVVZx9vC7-22" edge="1">
          <mxGeometry relative="1" as="geometry">
            <mxPoint x="600" y="1510" as="sourcePoint" />
            <Array as="points">
              <mxPoint x="518" y="1490" />
              <mxPoint x="600" y="1490" />
              <mxPoint x="600" y="1400" />
              <mxPoint x="194" y="1400" />
            </Array>
          </mxGeometry>
        </mxCell>
        <mxCell id="VngdS8DRgfG0t7V8Q84g-1" value="" style="shape=table;startSize=0;container=1;collapsible=0;childLayout=tableLayout;" parent="1" vertex="1">
          <mxGeometry x="160" y="1559" width="370" height="40" as="geometry" />
        </mxCell>
        <mxCell id="VngdS8DRgfG0t7V8Q84g-2" value="" style="shape=tableRow;horizontal=0;startSize=0;swimlaneHead=0;swimlaneBody=0;strokeColor=inherit;top=0;left=0;bottom=0;right=0;collapsible=0;dropTarget=0;fillColor=none;points=[[0,0.5],[1,0.5]];portConstraint=eastwest;" parent="VngdS8DRgfG0t7V8Q84g-1" vertex="1">
          <mxGeometry width="370" height="40" as="geometry" />
        </mxCell>
        <mxCell id="VngdS8DRgfG0t7V8Q84g-3" value="Exam_id" style="shape=partialRectangle;html=1;whiteSpace=wrap;connectable=0;strokeColor=inherit;overflow=hidden;fillColor=none;top=0;left=0;bottom=0;right=0;pointerEvents=1;fontStyle=4" parent="VngdS8DRgfG0t7V8Q84g-2" vertex="1">
          <mxGeometry width="70" height="40" as="geometry">
            <mxRectangle width="70" height="40" as="alternateBounds" />
          </mxGeometry>
        </mxCell>
        <mxCell id="VngdS8DRgfG0t7V8Q84g-4" value="Exam_date" style="shape=partialRectangle;html=1;whiteSpace=wrap;connectable=0;strokeColor=inherit;overflow=hidden;fillColor=none;top=0;left=0;bottom=0;right=0;pointerEvents=1;" parent="VngdS8DRgfG0t7V8Q84g-2" vertex="1">
          <mxGeometry x="70" width="80" height="40" as="geometry">
            <mxRectangle width="80" height="40" as="alternateBounds" />
          </mxGeometry>
        </mxCell>
        <mxCell id="VngdS8DRgfG0t7V8Q84g-5" value="Exam_type" style="shape=partialRectangle;html=1;whiteSpace=wrap;connectable=0;strokeColor=inherit;overflow=hidden;fillColor=none;top=0;left=0;bottom=0;right=0;pointerEvents=1;" parent="VngdS8DRgfG0t7V8Q84g-2" vertex="1">
          <mxGeometry x="150" width="80" height="40" as="geometry">
            <mxRectangle width="80" height="40" as="alternateBounds" />
          </mxGeometry>
        </mxCell>
        <mxCell id="VngdS8DRgfG0t7V8Q84g-6" value="&lt;div&gt;Total_marks&lt;/div&gt;" style="shape=partialRectangle;html=1;whiteSpace=wrap;connectable=0;strokeColor=inherit;overflow=hidden;fillColor=none;top=0;left=0;bottom=0;right=0;pointerEvents=1;" parent="VngdS8DRgfG0t7V8Q84g-2" vertex="1">
          <mxGeometry x="230" width="80" height="40" as="geometry">
            <mxRectangle width="80" height="40" as="alternateBounds" />
          </mxGeometry>
        </mxCell>
        <mxCell id="VngdS8DRgfG0t7V8Q84g-7" value="C_code" style="shape=partialRectangle;html=1;whiteSpace=wrap;connectable=0;strokeColor=inherit;overflow=hidden;fillColor=none;top=0;left=0;bottom=0;right=0;pointerEvents=1;" parent="VngdS8DRgfG0t7V8Q84g-2" vertex="1">
          <mxGeometry x="310" width="60" height="40" as="geometry">
            <mxRectangle width="60" height="40" as="alternateBounds" />
          </mxGeometry>
        </mxCell>
        <mxCell id="VngdS8DRgfG0t7V8Q84g-8" value="EXAM" style="text;html=1;align=left;verticalAlign=middle;resizable=0;points=[];autosize=1;strokeColor=none;fillColor=none;" parent="1" vertex="1">
          <mxGeometry x="160" y="1532" width="60" height="30" as="geometry" />
        </mxCell>
        <mxCell id="VngdS8DRgfG0t7V8Q84g-9" style="edgeStyle=orthogonalEdgeStyle;rounded=0;orthogonalLoop=1;jettySize=auto;html=1;entryX=0.033;entryY=1;entryDx=0;entryDy=0;entryPerimeter=0;jumpStyle=arc;exitX=0.926;exitY=1.019;exitDx=0;exitDy=0;exitPerimeter=0;jumpSize=10;" parent="1" source="VngdS8DRgfG0t7V8Q84g-2" target="LH22O_dW-x7zirJqAMRr-86" edge="1">
          <mxGeometry relative="1" as="geometry">
            <Array as="points">
              <mxPoint x="503" y="1620" />
              <mxPoint x="120" y="1620" />
              <mxPoint x="120" y="1110" />
            </Array>
          </mxGeometry>
        </mxCell>
        <mxCell id="ljXlk4xjI2pyYj6t2Rc5-2" style="edgeStyle=orthogonalEdgeStyle;rounded=0;orthogonalLoop=1;jettySize=auto;html=1;entryX=0.102;entryY=0.993;entryDx=0;entryDy=0;entryPerimeter=0;jumpStyle=arc;jumpSize=6;exitX=0.501;exitY=0.986;exitDx=0;exitDy=0;exitPerimeter=0;" parent="1" source="VngdS8DRgfG0t7V8Q84g-11" target="LH22O_dW-x7zirJqAMRr-15" edge="1">
          <mxGeometry relative="1" as="geometry">
            <mxPoint x="180" y="410" as="targetPoint" />
            <Array as="points">
              <mxPoint x="345" y="1740" />
              <mxPoint x="60" y="1740" />
              <mxPoint x="60" y="430" />
              <mxPoint x="179" y="430" />
            </Array>
          </mxGeometry>
        </mxCell>
        <mxCell id="VngdS8DRgfG0t7V8Q84g-10" value="" style="shape=table;startSize=0;container=1;collapsible=0;childLayout=tableLayout;" parent="1" vertex="1">
          <mxGeometry x="160" y="1667" width="370" height="40" as="geometry" />
        </mxCell>
        <mxCell id="VngdS8DRgfG0t7V8Q84g-11" value="" style="shape=tableRow;horizontal=0;startSize=0;swimlaneHead=0;swimlaneBody=0;strokeColor=inherit;top=0;left=0;bottom=0;right=0;collapsible=0;dropTarget=0;fillColor=none;points=[[0,0.5],[1,0.5]];portConstraint=eastwest;" parent="VngdS8DRgfG0t7V8Q84g-10" vertex="1">
          <mxGeometry width="370" height="40" as="geometry" />
        </mxCell>
        <mxCell id="VngdS8DRgfG0t7V8Q84g-12" value="Mark_id" style="shape=partialRectangle;html=1;whiteSpace=wrap;connectable=0;strokeColor=inherit;overflow=hidden;fillColor=none;top=0;left=0;bottom=0;right=0;pointerEvents=1;fontStyle=4" parent="VngdS8DRgfG0t7V8Q84g-11" vertex="1">
          <mxGeometry width="70" height="40" as="geometry">
            <mxRectangle width="70" height="40" as="alternateBounds" />
          </mxGeometry>
        </mxCell>
        <mxCell id="VngdS8DRgfG0t7V8Q84g-13" value="Exam_id" style="shape=partialRectangle;html=1;whiteSpace=wrap;connectable=0;strokeColor=inherit;overflow=hidden;fillColor=none;top=0;left=0;bottom=0;right=0;pointerEvents=1;" parent="VngdS8DRgfG0t7V8Q84g-11" vertex="1">
          <mxGeometry x="70" width="80" height="40" as="geometry">
            <mxRectangle width="80" height="40" as="alternateBounds" />
          </mxGeometry>
        </mxCell>
        <mxCell id="VngdS8DRgfG0t7V8Q84g-14" value="St_id" style="shape=partialRectangle;html=1;whiteSpace=wrap;connectable=0;strokeColor=inherit;overflow=hidden;fillColor=none;top=0;left=0;bottom=0;right=0;pointerEvents=1;" parent="VngdS8DRgfG0t7V8Q84g-11" vertex="1">
          <mxGeometry x="150" width="60" height="40" as="geometry">
            <mxRectangle width="60" height="40" as="alternateBounds" />
          </mxGeometry>
        </mxCell>
        <mxCell id="VngdS8DRgfG0t7V8Q84g-15" value="&lt;div&gt;Marks&lt;/div&gt;" style="shape=partialRectangle;html=1;whiteSpace=wrap;connectable=0;strokeColor=inherit;overflow=hidden;fillColor=none;top=0;left=0;bottom=0;right=0;pointerEvents=1;" parent="VngdS8DRgfG0t7V8Q84g-11" vertex="1">
          <mxGeometry x="210" width="70" height="40" as="geometry">
            <mxRectangle width="70" height="40" as="alternateBounds" />
          </mxGeometry>
        </mxCell>
        <mxCell id="VngdS8DRgfG0t7V8Q84g-16" value="Weightage" style="shape=partialRectangle;html=1;whiteSpace=wrap;connectable=0;strokeColor=inherit;overflow=hidden;fillColor=none;top=0;left=0;bottom=0;right=0;pointerEvents=1;" parent="VngdS8DRgfG0t7V8Q84g-11" vertex="1">
          <mxGeometry x="280" width="90" height="40" as="geometry">
            <mxRectangle width="90" height="40" as="alternateBounds" />
          </mxGeometry>
        </mxCell>
        <mxCell id="VngdS8DRgfG0t7V8Q84g-17" value="MARK" style="text;html=1;align=left;verticalAlign=middle;resizable=0;points=[];autosize=1;strokeColor=none;fillColor=none;" parent="1" vertex="1">
          <mxGeometry x="160" y="1640" width="60" height="30" as="geometry" />
        </mxCell>
        <mxCell id="ljXlk4xjI2pyYj6t2Rc5-1" style="edgeStyle=orthogonalEdgeStyle;rounded=0;orthogonalLoop=1;jettySize=auto;html=1;jumpStyle=arc;jumpSize=10;exitX=0.295;exitY=1.002;exitDx=0;exitDy=0;exitPerimeter=0;" parent="1" source="VngdS8DRgfG0t7V8Q84g-11" edge="1">
          <mxGeometry relative="1" as="geometry">
            <mxPoint x="200" y="1600" as="targetPoint" />
          </mxGeometry>
        </mxCell>
      </root>
    </mxGraphModel>
  </diagram>
</mxfile>
